<?xml version="1.0" encoding="UTF-8"?><svg id="Layer_1" xmlns="http://www.w3.org/2000/svg" viewBox="0 0 16 16"><path d="M7.21,.8c.48-.51,.79-.8,.79-.8,.11,.36,.23,.71,.37,1.04,.81,1.95,2.07,3.35,3.2,4.6,1.31,1.46,2.43,2.71,2.43,4.36,0,3.31-2.69,6-6,6s-6-2.69-6-6S5.58,2.52,7.21,.8Zm.41,1.02c-.64,.69-1.25,1.42-1.83,2.17-.73,.95-1.44,2.01-1.96,3.07-.53,1.07-.83,2.08-.83,2.94,0,0,2.5,1.5,5,.5s5-.5,5-.5c0-1.2-.8-2.16-2.18-3.7l-.03-.03c-1.04-1.16-2.29-2.55-3.17-4.45h0Z" fill="#fff" fill-rule="evenodd"/><path d="M4.55,7.78c.82-1.64,1.72-2.75,2.09-3.13l.71,.71c-.29,.29-1.13,1.31-1.91,2.87l-.89-.45Z" fill="#fff" fill-rule="evenodd"/></svg>