<?xml version="1.0" encoding="UTF-8"?><svg id="Layer_1" xmlns="http://www.w3.org/2000/svg" viewBox="0 0 16.5 16.5"><path d="M12.28,5.22c.29,.29,.29,.76,.01,1.05l-3.99,4.99-.02,.02c-.29,.29-.77,.29-1.06,0l-2.65-2.65c-.26-.29-.26-.73,0-1.02,.29-.3,.76-.32,1.06-.04l2.1,2.1,3.47-4.43s.01,0,.02-.02c.29-.29,.77-.29,1.06,0Z" fill="#00d176"/><path d="M8.25,.25c4.42,0,8,3.58,8,8s-3.58,8-8,8S.25,12.67,.25,8.25,3.83,.25,8.25,.25Zm4.04,6.02c.28-.29,.28-.76-.01-1.05s-.77-.29-1.06,0c0,.01,0,.02-.02,.02l-3.47,4.43-2.1-2.1c-.3-.28-.77-.26-1.06,.04-.26,.29-.26,.73,0,1.02l2.65,2.65c.29,.29,.77,.29,1.06,0l.02-.02,3.99-4.99Z" fill="#fff"/></svg>