<?xml version="1.0" encoding="utf-8"?>
<!-- Generator: Adobe Illustrator 26.5.0, SVG Export Plug-In . SVG Version: 6.00 Build 0)  -->
<svg version="1.1" id="Layer_1" xmlns="http://www.w3.org/2000/svg" xmlns:xlink="http://www.w3.org/1999/xlink" x="0px" y="0px"
	 viewBox="0 0 225 225" style="enable-background:new 0 0 225 225;" xml:space="preserve">
<style type="text/css">
	.st0{display:none;fill-rule:evenodd;clip-rule:evenodd;}
	.st1{fill-rule:evenodd;clip-rule:evenodd;}
</style>
<path class="st0" d="M112.5,225C50.4,225,0,174.6,0,112.5S50.4,0,112.5,0S225,50.4,225,112.5S174.6,225,112.5,225z M89.9,112.5
	c0,12.5,10.2,22.6,22.6,22.6s22.7-10.2,22.7-22.6S125,89.8,112.5,89.8S89.9,100,89.9,112.5z M112.5,150.8
	c-18.9,0-34.5-13.7-37.7-35.6H61c1.5,15.7,6.8,26.1,14.8,34.1c9.4,9.4,22.4,15.2,36.7,15.2C112.5,164.4,112.5,150.8,112.5,150.8z
	 M18.3,115.2c3.4,53.1,44.3,91.9,94.2,91.9v-15.3c-41.6,0-75.6-32-79-76.7L18.3,115.2L18.3,115.2z M59.5,165.5
	c13.6,13.6,32.3,21.9,53,21.9v-18.5c-28.9,0-52.7-21.8-55.9-53.7H37.9C39.5,137.2,47.4,153.4,59.5,165.5L59.5,165.5z"/>
<path class="st1" d="M112.5,0C50.4,0,0,50.4,0,112.5S50.4,225,112.5,225c62.1,0,112.5-50.4,112.5-112.5S174.6,0,112.5,0z
	 M112.5,207.5c-52.5,0-95-42.5-95-95h16c0,43.6,35.4,79,79,79V207.5z M112.5,187.5c-41.4,0-75-33.6-75-75h20c0,30.4,24.6,55,55,55
	V187.5z M112.5,163.5c-28.2,0-51-22.8-51-51H75c0,20.7,16.8,37.5,37.5,37.5V163.5z M112.5,135c-12.4,0-22.5-10.1-22.5-22.5
	S100.1,90,112.5,90c12.4,0,22.5,10.1,22.5,22.5S124.9,135,112.5,135z M150,112.5c0-20.7-16.8-37.5-37.5-37.5V61.5
	c28.2,0,51,22.8,51,51H150z M167.5,112.5c0-30.4-24.6-55-55-55v-20c41.4,0,75,33.6,75,75H167.5z M191.5,112.5c0-43.6-35.4-79-79-79
	v-16c52.5,0,95,42.5,95,95H191.5z"/>
</svg>
