<svg id="Layer_1" data-name="Layer 1" xmlns="http://www.w3.org/2000/svg" viewBox="0 0 660.03 543.3"><defs><style>.cls-1{fill:#cecece;}.cls-2{fill:#fff;}.cls-3{fill:#db5f44;}.cls-4{fill:#aa6f46;}.cls-5{fill:#e0e0e0;}.cls-6{fill:#2f2e41;}.cls-7{fill:#cacaca;}</style></defs><path class="cls-1" d="M287.84,505.73l-23,3.53,24.06-11.37c1.95-22.14-3.24-45.89-3.24-45.89s-49.69,8.64-65,31.4-7.11,39.81,9.58,51S265.79,546.8,281.09,524C284.5,519,286.61,512.59,287.84,505.73Z" transform="translate(-0.01)"/><path class="cls-2" d="M260.67,507.51l-.75,1.13c-8.84,13-17.88,21.69-27,26l-.4.18-.28-.62-.27-.6c10-4.52,19-14.32,26.74-25.65.26-.36.51-.73.76-1.11,3.22-4.82,6.2-9.89,8.91-14.94l.63-1.19c3.54-6.68,6.61-13.28,9.13-19.12.18-.41.35-.82.52-1.23,4.22-9.89,6.78-17.39,7.34-19.06a2.54,2.54,0,0,0,.11-.34l.63.21h0l.64.21s-.13.4-.37,1.09c-.89,2.6-3.36,9.61-7.13,18.51-.18.4-.35.81-.53,1.23-2,4.73-4.42,9.95-7.13,15.29-.68,1.35-1.36,2.66-2.05,4-.2.4-.41.8-.63,1.19Q265.16,500.79,260.67,507.51Z" transform="translate(-0.01)"/><path class="cls-2" d="M279.88,470.94c-.41-.2-.82-.4-1.23-.62q-1.66-.9-3.24-1.95a35.87,35.87,0,0,1-10.93-11.57l-1.3.41a37.23,37.23,0,0,0,11.48,12.27,39.2,39.2,0,0,0,3.47,2.07c.4.22.81.42,1.22.62A37.22,37.22,0,0,0,290,475.44c0-.47-.06-.92-.09-1.37A35.73,35.73,0,0,1,279.88,470.94Z" transform="translate(-0.01)"/><path class="cls-2" d="M270.17,491.41c-.39-.24-.79-.48-1.17-.74l-.36-.23a36.12,36.12,0,0,1-16-29.39l-1.32.55a37.45,37.45,0,0,0,16.54,29.95l.47.31,1.17.74a37.26,37.26,0,0,0,20.36,5.29l.12-1.34A35.89,35.89,0,0,1,270.17,491.41Z" transform="translate(-0.01)"/><path class="cls-2" d="M260.67,507.51c-.41-.22-.81-.46-1.21-.71s-.86-.53-1.27-.81a36.21,36.21,0,0,1-14.28-41c-.55.28-1.1.55-1.64.84a37.53,37.53,0,0,0,15.17,41.25c.42.28.84.56,1.26.81s.81.49,1.22.73a37.43,37.43,0,0,0,27.22,3.77c.16-.49.3-1,.44-1.48A36.09,36.09,0,0,1,260.67,507.51Z" transform="translate(-0.01)"/><path id="b378a409-d352-4bc8-8df5-72c04014c528-117" class="cls-1" d="M47.24,184.93a26,26,0,1,1,26-26h0A26,26,0,0,1,47.24,184.93Zm0-49.56A23.57,23.57,0,1,0,70.8,158.93h0a23.6,23.6,0,0,0-23.56-23.56Z" transform="translate(-0.01)"/><path class="cls-1" d="M330.74,185.93A27.06,27.06,0,1,1,349.81,178,27,27,0,0,1,330.74,185.93Zm0-52a25,25,0,1,0,25,25A25,25,0,0,0,330.74,133.94Z" transform="translate(-0.01)"/><path id="eaf0a386-106a-4b50-bbfe-53e3b7aaa4b9-118" class="cls-1" d="M330.74,148.07a10.86,10.86,0,1,0,10.87,10.86,10.85,10.85,0,0,0-10.87-10.86Z" transform="translate(-0.01)"/><path id="f8cfee77-1129-4225-b1d2-3db262cea721-119" class="cls-1" d="M614.24,148.07a10.86,10.86,0,1,0,10.87,10.87,10.86,10.86,0,0,0-10.87-10.87Z" transform="translate(-0.01)"/><path id="aa555a1b-e556-4d4d-94e2-268c2a3db786-120" class="cls-3" d="M571.64,0a4.13,4.13,0,1,0,0,8.26h83.77a4.13,4.13,0,1,0,0-8.26Z" transform="translate(-0.01)"/><path id="a3a07e36-e50f-4b72-9ce2-373f87af9ffe-121" class="cls-3" d="M571.64,24.33a4.13,4.13,0,1,0,0,8.26h83.77a4.13,4.13,0,0,0,0-8.26Z" transform="translate(-0.01)"/><path id="b19e454f-549d-47de-9809-ad624ec5b949-122" class="cls-3" d="M571.64,48.92a4.13,4.13,0,1,0,0,8.26h83.77a4.13,4.13,0,0,0,0-8.26Z" transform="translate(-0.01)"/><path class="cls-4" d="M146.59,300.79a10.05,10.05,0,0,0-1.51-14.14,9,9,0,0,0-1.47-1l6-35.23-17,7.48-3.08,32.31a10.11,10.11,0,0,0,17.07,10.57Z" transform="translate(-0.01)"/><path class="cls-5" d="M125.75,280.48l-3.1-88.1v-.06l16.64-80.87A12.6,12.6,0,0,1,164,116.32L151.11,185l-.28,96.09Z" transform="translate(-0.01)"/><polygon class="cls-4" points="208.04 529.76 220.3 529.76 226.13 482.47 208.04 482.47 208.04 529.76"/><path class="cls-6" d="M204.92,525.75h24.14a15.39,15.39,0,0,1,15.39,15.39v.5H204.92Z" transform="translate(-0.01)"/><polygon class="cls-4" points="155.04 529.76 167.3 529.76 173.13 482.47 155.04 482.47 155.04 529.76"/><path class="cls-6" d="M151.92,525.75h24.14a15.39,15.39,0,0,1,15.39,15.39v.5H151.92Z" transform="translate(-0.01)"/><path class="cls-6" d="M222.73,199.83l4.68,10,14.05,130.68L227.66,514l-24.41.8,4.21-160.28-30.22-65-1.78,228H154.11L133.94,288.76s-7-63.65,18.28-88.93Z" transform="translate(-0.01)"/><path class="cls-5" d="M152.16,200.32l-.37,0-12.3-76.61a22,22,0,0,1,13.13-23.75l12.7-5.41L205,94.15l15.77,9.4a36.13,36.13,0,0,1,17.32,35.69l-9.24,71.18Z" transform="translate(-0.01)"/><path class="cls-4" d="M227.25,308.21a10.06,10.06,0,0,1,1.32-14.16,10.27,10.27,0,0,1,1.46-1l-6.46-35.15,17.1,7.26,3.51,32.26a10.11,10.11,0,0,1-16.93,10.8Z" transform="translate(-0.01)"/><path class="cls-5" d="M209,201v-.06l5.41-82.38a12.68,12.68,0,0,1,9.84-11.48h0a12.61,12.61,0,0,1,15,9.57,13,13,0,0,1,.29,3.35l-3.4,69.76L249,285l-24.93,2.87Z" transform="translate(-0.01)"/><circle class="cls-4" cx="190.08" cy="61.39" r="26.23"/><path class="cls-6" d="M145.37,94.63c2.79-2.37,6.2-3.87,9.24-5.92s5.84-4.93,6.34-8.56c.6-4.35-2.19-8.33-4-12.34-5.59-12.48-.69-28.71,10.87-36s28.32-4.74,37.17,5.67c4.06-5.28,13.24-5.3,17.33,0s1.8,14.14-4.32,16.78c-4.29,1.85-9.53.86-13.57,3.22-4.21,2.47-5.8,8-5.06,12.83s3.37,9.12,5.93,13.28l-5.66-8.61c3.1,6.55,6.24,13.3,6.71,20.52s-2.35,15.15-8.68,18.67c-5.55,3.08-13.17,2.59-17.23,7.47a11.09,11.09,0,0,0-2.35,7.22c-6.12-.94-12.25-1.77-18.38-2.64l-20.44-2.89a40.76,40.76,0,0,1-1.31-6.67C137.09,108.61,139.24,99.84,145.37,94.63Z" transform="translate(-0.01)"/><path id="af6132d7-3197-44cc-9af2-6abab932cbd2-123" class="cls-3" d="M288.13,0a4.13,4.13,0,0,0,0,8.26h83.78a4.13,4.13,0,0,0,0-8.26Z" transform="translate(-0.01)"/><path id="f68869de-5685-49d7-9d26-cf370d102e2e-124" class="cls-3" d="M288.13,24.33a4.13,4.13,0,1,0,0,8.26h83.78a4.13,4.13,0,0,0,0-8.26Z" transform="translate(-0.01)"/><path id="b025d6d3-8b66-469d-ad7c-6ebfa91ed46d-125" class="cls-3" d="M288.13,48.92a4.13,4.13,0,0,0,0,8.26h83.78a4.13,4.13,0,0,0,0-8.26Z" transform="translate(-0.01)"/><path id="b9def71e-ddd4-4c35-bcb2-21590e713d1b-126" class="cls-1" d="M5.13,0a4.13,4.13,0,0,0,0,8.26H88.91a4.13,4.13,0,0,0,0-8.26Z" transform="translate(-0.01)"/><path id="f1172eca-5787-475f-9d55-c603006fea48-127" class="cls-1" d="M5.13,24.33a4.13,4.13,0,0,0,0,8.26H88.91a4.13,4.13,0,1,0,0-8.26Z" transform="translate(-0.01)"/><path id="e397f236-7fcd-485a-ac75-06bd6e05da59-128" class="cls-1" d="M5.13,48.92a4.13,4.13,0,0,0,0,8.26H88.91a4.13,4.13,0,0,0,0-8.26Z" transform="translate(-0.01)"/><path id="ed8c2be5-7bf0-4420-a5cd-4927e344f762-129" class="cls-3" d="M572.13,0a4.13,4.13,0,0,0,0,8.26h83.78a4.13,4.13,0,0,0,0-8.26Z" transform="translate(-0.01)"/><path id="b618e516-c702-4fef-a5ee-c6190b0c4fe9-130" class="cls-3" d="M572.13,24.33a4.13,4.13,0,1,0,0,8.26h83.78a4.13,4.13,0,0,0,0-8.26Z" transform="translate(-0.01)"/><path id="ff12c586-9c34-44df-9822-41eb07546e2b-131" class="cls-3" d="M572.13,48.92a4.13,4.13,0,1,0,0,8.26h83.78a4.13,4.13,0,0,0,0-8.26Z" transform="translate(-0.01)"/><path class="cls-7" d="M1.19,543.3a1.19,1.19,0,0,1,0-2.38" transform="translate(-0.01)"/><path class="cls-1" d="M614.24,187.93a29,29,0,1,1,29-29A29,29,0,0,1,614.24,187.93Zm0-56a27,27,0,1,0,27,27h0A27,27,0,0,0,614.24,131.94Z" transform="translate(-0.01)"/></svg>