<?xml version="1.0" encoding="UTF-8"?><svg id="Layer_1" xmlns="http://www.w3.org/2000/svg" viewBox="0 0 50 50"><path d="M25,50C11.19,50,0,38.81,0,25S11.19,0,25,0s25,11.19,25,25-11.19,25-25,25Zm-5.03-25c0,2.78,2.26,5.03,5.03,5.03s5.04-2.26,5.04-5.03-2.26-5.04-5.04-5.04-5.03,2.26-5.03,5.04Zm5.03-8.51c4.2,0,7.67,3.04,8.37,6.15h3.08c-.33-1.71-1.51-4.04-3.28-5.81-2.09-2.09-4.97-3.38-8.17-3.38v3.04Zm0,17.01c-4.2,0-7.67-3.04-8.37-7.92h-3.08c.33,3.48,1.51,5.81,3.28,7.58,2.09,2.09,4.97,3.38,8.17,3.38,0,0,0-3.04,0-3.04Zm0-21.04c6.42,0,11.7,4.83,12.43,10.17h4.14c-.35-3.13-2.11-6.72-4.8-9.41-3.02-3.02-7.17-4.87-11.77-4.87,0,0,0,4.12,0,4.12ZM4.06,25.59c.76,11.8,9.84,20.42,20.94,20.42v-3.39c-9.24,0-16.8-7.1-17.55-17.04h-3.39Zm9.17,11.19c3.02,3.02,7.17,4.87,11.77,4.87v-4.12c-6.42,0-11.7-4.83-12.43-11.94h-4.14c.35,4.89,2.11,8.49,4.81,11.18h0ZM25,3.98v3.39c9.24,0,16.8,7.11,17.55,15.27h3.39c-.76-10.03-9.84-18.66-20.94-18.66Z" fill="#fff" fill-rule="evenodd"/></svg>