<?xml version="1.0" encoding="UTF-8"?><svg id="Layer_1" xmlns="http://www.w3.org/2000/svg" viewBox="0 0 225 225"><path d="M112.5,0C50.37,0,0,50.37,0,112.5s50.37,112.5,112.5,112.5,112.5-50.37,112.5-112.5S174.64,0,112.5,0Zm0,207.5c-52.46,0-95-42.53-95-95h16c0,43.63,35.37,79,79,79v16Zm0-20c-41.42,0-75-33.58-75-75h20c0,30.38,24.63,55,55,55v20Zm0-24c-28.16,0-51-22.83-51-51h13.5c0,20.71,16.79,37.5,37.5,37.5v13.5Zm0-28.5c-12.42,0-22.5-10.07-22.5-22.5s10.08-22.5,22.5-22.5,22.5,10.07,22.5,22.5-10.07,22.5-22.5,22.5Zm37.5-22.5c0-20.71-16.79-37.5-37.5-37.5v-13.5c28.17,0,51,22.83,51,51h-13.5Zm17.5,0c0-30.38-24.62-55-55-55v-20c41.42,0,75,33.58,75,75h-20Zm24,0c0-43.63-35.37-79-79-79V17.5c52.47,0,95,42.53,95,95h-16Z" style="fill:#fff; fill-rule:evenodd;"/></svg>