<svg id="Layer_1" data-name="Layer 1" xmlns="http://www.w3.org/2000/svg" viewBox="0 0 457.46 598.68"><defs><style>.cls-1{fill:#c58cff;}</style></defs><path class="cls-1" d="M547.05,197.87c16.66-1.41,27.59,6.68,35.94,20.3a147.56,147.56,0,0,1,21.06,59.53c2,15.89-3.66,29.33-15.86,39.29C575,327.8,559.84,335.4,542.51,337.17c-8,.82-16-.27-22-6.73-1-1-1.73-1-2.94-.23-10.32,6.55-11.61,9.2-8.23,21.07a222.2,222.2,0,0,0,21.24,50.38c2.08,3.6,3.09,7.38,1.79,11.54a2.52,2.52,0,0,0,.29,1.81c7.09,11.68,10.74,24.63,14.76,37.57,4.19,13.5,10.23,26.41,15.15,39.69,17.41,47,30.65,95,35.1,145a333.88,333.88,0,0,1,.7,56.21c-.11,1.37-.09,2.71-2.07,2.58s-1.66-1.55-1.57-2.71C600,622.94,581.28,556.84,558,491.59q-5.79-16.2-11.83-32.31c-.35-.94-.67-3.7-1.93-2.36-1.76,1.88-7,1.38-5.19,5.82,10.07,24.31,19.5,48.85,27.3,74,13.07,42.14,22,85,22.24,129.34.05,9.25-.37,18.5-.57,27.74,0,1.41-.43,2.36-2.13,2.32-1.85,0-1.58-1.29-1.5-2.41C589.27,628,572.82,566,551,504.92c-4.57-12.81-9.76-25.41-13.94-38.34-1.69-5.23-6.86-6.37-9.34-10.67-5.32-9.21-11.72-17.79-17.42-26.78-3-4.8-7.95-7.46-11.77-11.33-26.25-26.67-51.85-53.85-63.89-90.47-5.35-16.29-7.29-33.06-4.6-50.21,4.07-25.92,21.4-39.88,44-49,5-2,10.3-3.24,15.44-4.91a4.35,4.35,0,0,0,2.38-1.49c8.37-15.17,22.48-20.49,38.49-22.46C535.94,198.58,541.51,198.32,547.05,197.87Zm-3.79,30.36c0,2.21,0,4.42,0,6.64a3,3,0,0,1-.43,1c-.23-.28-.63-.54-.66-.84-1.22-10.1-1.79-20.13,3.53-29.45.49-.87.92-1.78,1.39-2.67a4.61,4.61,0,0,0-3.76,1.48c-.51.63-1,1.29-1.46,2-4.3,6.47-4.15,13.8-4.1,21.12a6.07,6.07,0,0,1-.52,1.74c-.25-.45-.7-.89-.74-1.36-.55-7.22-.9-14.42,2.39-21.21.41-.84.66-1.75,1-2.63-1.19.18-2.55.07-3.5.64a7,7,0,0,0-2.25,2.81,24.37,24.37,0,0,0-2.75,11.85,5.78,5.78,0,0,1-.69,1.89,7,7,0,0,1-.76-1.89,27.93,27.93,0,0,1,1.64-11.84,8.24,8.24,0,0,0,.2-1.87,5.54,5.54,0,0,0-2.08.05c-3.42,1.49-3.75,4.9-4.65,7.9-.65,2.19-1.09,4.44-1.62,6.67-1.17-2.72-.33-5.39.24-8.05.39-1.84.86-3.66,1.29-5.49-3.13.42-3.67,3.16-4.77,5.38-.25.51-.33,1.11-.62,1.6-.87,1.5-.91,5-1.77,4.48-1.92-1.1-.14-3.63-.1-5.57,0-1.22,1.58-3.14.38-3.38a3.93,3.93,0,0,0-4.4,2.77c-.36,1.17-.5,2.42-.93,3.55s.2,3.72-1.47,3.53c-1.29-.14-.47-2.57-.6-4-.06-.76,0-1.53-.06-2.3a20.46,20.46,0,0,0-2.1,1.17c-8.51,6-12.57,14.45-12.91,24.74-.61,18.37,5,35.4,11.6,52.16,4.92,12.39,8.83,25.36,18.83,35,3,2.86,6.18,6.11,10.69,5.85,14.3-.84,27.4-5.57,39.42-13.24,13.63-8.69,23.4-19.72,22.39-37.31-1.35-23.52-8.91-45-20.76-65.17a25.71,25.71,0,0,0-18-12.71c-5.26-1-7.24,1.19-8.48,5.75A73.88,73.88,0,0,0,549.3,239a8.6,8.6,0,0,1-.14,1.81,6.4,6.4,0,0,1-.81-1.58,65.41,65.41,0,0,1,2.59-34.13l.55-1.56A11.66,11.66,0,0,0,550,204.6C543.3,211.19,543.59,219.81,543.26,228.23Zm-66.75,34.3a41.68,41.68,0,0,1,2.57-14.75c.27-.73.25-2,1.54-1.71.23.06.26,1.41.18,2.15-.44,4-.94,8-1.4,11.93a4,4,0,0,0,.1,1c.18-.09.49-.13.54-.26,2.19-5.86,7-10.71,7.46-17.17.37-5,.42-10,1.74-14.83a6.56,6.56,0,0,0,0-1.6,9.59,9.59,0,0,0-1.39.4c-7.58,3.5-15.09,7.17-22.77,10.47-8.17,3.51-12,9.34-12.41,18.34-.54,11.71-1.46,23.38-.4,35.09a9.77,9.77,0,0,1-.39,2.41,14.94,14.94,0,0,1-.76-2.47c-1.75-13.72-2.05-27.42.32-41.11a5.89,5.89,0,0,0-.25-1.83,5.38,5.38,0,0,0-1.56.95,75.26,75.26,0,0,0-6,7.76c-11.17,18.39-11.23,38.22-6.44,58.26,7.46,31.17,25.44,56.45,46.26,80a19.51,19.51,0,0,0,1.7,1.57,21.22,21.22,0,0,0-.94-2.19c-13.15-22.68-24.54-46.14-31.66-71.48a13.66,13.66,0,0,1-.23-2.73,14.68,14.68,0,0,1,1.29,2.18c6.56,17.13,12.84,34.39,21.74,50.52.4.73.61,3,2.17,1.45a158,158,0,0,0,10.83-11.73c1.34-1.63,0-3.91-1.23-5.05-.93-.87-1.56,1.15-2.19,1.95-2.53,3.22-4.94,6.53-7.43,9.78-.52.68-1.17,1.8-2.12,1.1s0-1.66.47-2.32c3.18-4.06,6.33-8.15,9.64-12.1a3.18,3.18,0,0,0-.08-4.44c-.89-.87-1.52,1-2.14,1.78-1.86,2.18-3.53,4.52-5.39,6.71-.67.78-1.46,2.46-2.58,1.56s.34-2.11,1-2.89a67,67,0,0,1,7.26-8.31c2.49-2.23.53-4.38.66-6.54,0-.33-.3-.68-.47-1-.95,1.2-1.93,2.38-2.86,3.6s-1.73,2.62-2.77,3.76c-1.33,1.45-2,3.62-4.19,4.18-.48-2.47,1.46-3.88,2.75-5.26,4.8-5.14,7.9-10.54,8-18.07s3.65-13.88,9.79-18.52c1.18-.9.73-1.45,0-2.34C483.17,296.61,478,280.27,476.51,262.53Zm36,156.5c12.77-.24,17.59-7.84,11.43-18.56a212.22,212.22,0,0,1-19.35-45.58c-4.57-15.41-2.82-20,10.63-28.42,1.17-.74.52-1.21.15-1.94-2.45-4.78-8.37-3.43-11.62-6.55-5.39-5.2-8.44-1.55-11.44,2.66-9,12.67-6.66,26-1.72,39.19,5.27,14.12,13.57,26.48,23.19,38a13.72,13.72,0,0,1,1.35,2.44,12.31,12.31,0,0,1-2.14-1.6c-3.09-3.61-6.15-7.24-9.13-10.94-1-1.21-1.64-1.69-2.77-.16-2.78,3.75-5.66,7.43-8.48,11.15-.53.7-1.39,1.61-.42,2.33s1.35-.54,1.83-1.08c2.51-2.92,4.95-5.9,7.48-8.8a3.82,3.82,0,0,1,1.67-1.06c.8.85-.11,1.49-.54,2.07-2.51,3.34-5.08,6.64-7.63,9.94-.54.7-1.39,1.32-.67,2.34.42.59.91,1.13,1.37,1.69.73-.71,1.47-1.41,2.17-2.14s1.48-1.62,2.21-2.43c.44,1.46-1,2.05-1.44,3.11-.5,1.24-2.16,2-1.66,3.62C498.68,413.86,506.39,419.15,512.49,419Zm23.72,37.33c5.33.11,8.62-4.6,6.59-9.4a209.31,209.31,0,0,0-12.71-25.2c-1.47-2.48-2.24-3.87-5.16-1.51a18.37,18.37,0,0,1-9.29,3.63c-2.44.32-2.09,1.24-1.07,2.78q9,13.65,17.85,27.34A4.46,4.46,0,0,0,536.21,456.36ZM488,394.47c2.38-3,4.35-6.05,7-8.45,3.77-3.47,3.95-6.5.83-10.55-2.16-2.81-3.5-6.27-5.08-9.5-.73-1.49-1.3-1.63-2.39-.35-3.14,3.66-6.3,7.31-9.54,10.9-1.54,1.71-.3,3.14.64,4.07,1.26,1.26,1.61-.7,2.22-1.29,1.61-1.51,3-3.24,4.56-4.81a11.08,11.08,0,0,1,1.91-1.26,8.45,8.45,0,0,1-.83,2.07,82,82,0,0,1-5.31,6.43c-1.49,1.56-.77,2.92.32,3.79,1.45,1.15,1.52-.86,2-1.48,1.67-2.23,3.09-4.63,4.69-6.9.46-.65.75-1.85,1.92-1.35a5.07,5.07,0,0,1-.6,2.33c-1.69,2.8-3.48,5.55-5.28,8.28-.58.88-1.71,1.79-.58,2.73s1.56-.68,2.07-1.25c2.07-2.32,4-4.8,6-7.15a5.1,5.1,0,0,1,2-1.35c.9.9-.09,1.62-.57,2.27-2.23,3-4.53,6-6.85,9a2,2,0,0,0-.12,2.69A11.66,11.66,0,0,0,488,394.47Zm-6.25-118.41.89,2.83c.38-.92.81-1.81,1.14-2.75a43.61,43.61,0,0,1,1.79-5.35c3.06-6.16,5.51-12.36,2.88-19.35-.17-.45-.28-.93-.42-1.39-.23.15-.55.25-.66.46a83.83,83.83,0,0,0-7,17.53,2.53,2.53,0,0,0,.13.92c.15-.28.33-.54.46-.83,1.42-3.13,2.78-6.28,4.28-9.37.34-.71,1.16-1.19,1.75-1.78.8,1,0,1.71-.4,2.44A50.44,50.44,0,0,0,481.72,276.06Zm19.72,108.77a7.69,7.69,0,0,0-1.2-1.77c-.83-.61-1.09.32-1.45.78-2.21,2.82-4.58,5.53-6.54,8.52-1,1.59-4.24,3.45-2.23,5.07,1.62,1.3,2.59-2.28,4-3.56a40.18,40.18,0,0,0,3.43-4.13C498.74,388.12,500.06,386.5,501.44,384.83Z" transform="translate(-428.88 -97.5)"/><path class="cls-1" d="M724.45,361.79c.46-18.05,9.57-31,19.67-43.66,15.46-19.33,35.79-20.62,57.76-15.95C811.52,304.23,821,306.92,829,313c5.12,3.9,8.21,8.87,7.82,15.55-.07,1.14.11,1.83,1.48,2,22.71,2,41.2,26.19,43.37,51.63,1.82,21.21-4.91,40.39-14.1,58.74-17.51,35-38.08,68-63.86,97.62-5.29,6.07-10,12.68-14.75,19.16-2.51,3.39-4.65,7-9.55,7.29-.65,0-1.42,1.27-1.8,2.1-18,39.59-32.24,80.43-40.66,123.19-.28,1.44-.62,2.88-.93,4.32-.43,2-2,1.57-3.34,1.45-1.49-.13-1.2-1.29-1-2.25,7.7-43.69,20.79-85.6,40.95-125.22.58-1.14,3.08-3,.62-3.81-2-.68-4.91-3.83-7,.84-18.29,40.45-33,82.08-41.45,125.76-.19,1-.43,1.92-.57,2.89-.3,2.14-1.87,2-3.35,1.85-1.94-.15-1.28-1.63-1.1-2.62,8.08-45.21,22.52-88.19,42.64-129.6,4.48-9.21,8.6-19.17,12.38-29,1.17-3-1.71-7.69,1.39-10.2,3.37-2.73,4.46-6.32,5.87-9.88,6.77-17.09,13.13-34.34,13.62-53,.32-12.16-1.6-23.61-11.91-31.87a17.76,17.76,0,0,1-2.77-2.78c-4-5-7.11-8.84-15.58-6.75-8.29,2-14.63-5.69-19.87-12C734,394.62,725.4,379.38,724.45,361.79Zm48,33.25c.37,11.6,3.59,20.93,11.44,28.4,4.32,4.12,8.75,8.19,11.73,13.5a12.07,12.07,0,0,0,1,1.31c0-.54.1-1.08.07-1.61-.62-11.65-4.38-21.78-14-29.14-.5-.38-1.11-1.44-.93-1.74.59-1,1.46-.23,2.12.13a29.51,29.51,0,0,1,9,7.55c11.71,14.9,19.09,32,24.87,49.82.39,1.19,1.43,3.15-.22,3.67-1.44.45-1.68-1.7-2-2.85a217,217,0,0,0-15.15-36.77,13.83,13.83,0,0,0-.95-1.36c0,.22-.15.45-.1.64,1.34,4.54.62,9.45,2.76,13.9a163,163,0,0,1,10.47,28.31c.5,1.83,1.43,3.69.55,5.68-2-1.07-1.81-3.25-2.38-5-2-6.07-3.72-12.23-5.76-18.28-1-3-2.51-5.86-3.78-8.79A27.48,27.48,0,0,0,802.43,453c2.41,7,4.52,14.2,6.68,21.33.25.83.76,1.9-.28,2.69a9.32,9.32,0,0,1-1.39-2.12c-1.79-6-3.5-11.95-5.25-17.92a3.29,3.29,0,0,0-.64-.88c-.06.32-.12.64-.17.95-.82,5.05,0,9.91,1.38,14.78.87,3,2.28,6,1.47,9.27-2.52-2.36-2.2-5.73-3.06-8.68,0-.16-.07-.32-.12-.48-.14-.35-.29-.7-.44-1.05a3.27,3.27,0,0,0-.28,1.17c.63,3.86,1.37,7.7,1.94,11.56.16,1.09,1.26,2.81-.27,3.21-1.24.32-1.27-1.63-1.58-2.65-.74-2.4-1.32-4.86-2-7.29-.74,3-1.35,6.07-.4,9.2a15.55,15.55,0,0,1,.76,3.85c.06,1.63,1.52,4.28,0,4.61s-1.15-2.73-1.71-4.26c-.24-.64-.46-1.29-.7-1.94a14.14,14.14,0,0,1-.72,2c-3.44,6.64.86,12.94.79,19.43a31.49,31.49,0,0,1-.52,4c-1.43-.93-.88-2.47-1.09-3.74-.4-2.43-.64-4.88-1-7.31a12.49,12.49,0,0,0-.65-2,6,6,0,0,0-.89,1.89c-.53,5.6,2.6,10.33,3.77,15.54.15.67.81,1.53-.15,1.92s-1.18-.64-1.43-1.28c-.95-2.52-1.83-5.07-2.77-7.6-.4-1.1-.86-2.17-1.29-3.25a4.21,4.21,0,0,0-.86,4.55c1.77,3.69,3.75,7.27,5.58,10.92a6.39,6.39,0,0,1,.28,2,8.39,8.39,0,0,1-1.62-.87c-3.19-2.78-3.1-7.43-5.92-10.43-2,3.64-4,7.29-6.07,10.91-.36.62-1.06,1-1.44,1.66a8,8,0,0,0,4.28,11.62c-.66-1.31-1.33-2.61-2-3.91a2.57,2.57,0,0,1-.2-.45c-.35-1.21-1.46-3-.16-3.54s1.51,1.48,2,2.45c4.14,8.48,11.81,9.63,16.81,2.44,15.38-22.12,31.86-43.48,45.2-67,14.13-24.93,28.41-49.72,30.59-79.3.39-5.27-1.94-7.16-6.23-7.58a20.07,20.07,0,0,0-13,2.95c-11.72,7.44-17.44,19.05-21.79,31.5-6,17.27-8.67,35.56-15.56,52.6a156.6,156.6,0,0,1-10.25,21.77,10.42,10.42,0,0,1-1.4,1.58,7.76,7.76,0,0,1,.39-1.95,243.42,243.42,0,0,0,10.62-25.92,9.57,9.57,0,0,0,0-6.65,186.58,186.58,0,0,0-31.4-57.8,6.9,6.9,0,0,1-.78-2.08,7.53,7.53,0,0,1,1.74,1.19c13.12,16.25,23.76,33.93,30.86,53.65.48,1.33,1.18,2.57,1.78,3.85.45-1.78,1-3.54,1.33-5.34.09-.41-.26-.93-.42-1.39-7.21-21.78-17.77-41.71-32.59-59.31a6.91,6.91,0,0,1-.8-1.81,10.42,10.42,0,0,1,1.62,1.31,169.86,169.86,0,0,1,32.51,56.27c.2.6.5,1.18.75,1.77a11.9,11.9,0,0,0,.75-1.73c2.6-9.91,4.9-19.9,7.83-29.7,4.14-13.83,9.68-27,22.4-35.35,2.61-1.71,3-2.89,1.77-5.55-8.48-18.72-25-26.72-43.21-32.18a16.18,16.18,0,0,0-13.57,2.31C783.17,357.81,773.44,374.62,772.43,395Zm15.83-88c-30.15-.19-57.25,26.28-57,53.89.24,21.67,12.57,37.49,28,51.14,2.75,2.42,6.51,3,10.26,2.36a4.41,4.41,0,0,0,1.22-.69c-.22-.18-.43-.5-.65-.51-8.94-.49-11.19-7-12.26-14.12-2.08-13.88,1.35-26.94,7.32-39.29,10.38-21.49,24.85-38.4,50.14-42.31,1.75-.27,4.69-1.26,5,.45.32,1.56-2.94,1-4.45,1.82-.54.29-1.14.49-1.71.73.64-.05,1.28-.05,1.91-.15,7.54-1.16,14.07,1.79,15.66,7,.18.59-.23,1.67.93,1.59a4.23,4.23,0,0,0,.14-2.15c-1.62-5.5-5.64-8.94-10.48-11.46C810.82,309.29,798.22,307.52,788.26,307Zm35.9,30.3c1.22.23,4.07.59,6.83,1.29,2.13.55,4.5.56,6.24,2.25l-6.46-.75-1-.1-7.11-.68,6.66,2.44c16.61,6.1,30.34,15.2,35.09,33.67.11.41.69.7,1.05,1a7.31,7.31,0,0,0,.16-2c-2.64-12.25-9.76-21.24-20.28-27.74a10.56,10.56,0,0,1-1.59-1.55,8.68,8.68,0,0,1,2.2.58c11.37,6.33,18.24,16.08,21.84,28.42,1.17,4,5.21,1.92,7.8,3,.78.33.25-1.87.08-2.86-1-5.63-3.25-10.77-5.8-15.85-8.22-16.37-31.5-30.24-49.14-23.76-2.07.76-4.07,1.73-6.1,2.6,2,1.37,4.1.12,6.15,0C821.37,337.28,821.94,337.3,824.16,337.3ZM767,371.58c.68,1.94,1.21,3.43,1.74,4.93.31-.31.78-.56.9-.93,5.71-16.54,17.23-28.32,31.16-38.13,1.2-.84,1.23-1.28-.07-2-4.51-2.45-9.23-3.31-13.31.28C776.55,345.37,770.27,357.68,767,371.58Zm8.76,188.53c3.1-.28,5.52-.77,7.26-2.77,3.27-3.76,6.49-7.58,9.72-11.38.36-.43.64-.92,1-1.39a7.72,7.72,0,0,0-1.78-.44c-5.09,0-9.72-1.27-13.6-4.71-.85-.76-1.44-.93-2.07.24-3,5.55-6,11.07-9,16.61-.38.7-.83,1.59.5,1.91Zm35.55-221.18c-.64.2-1.87.55-3.08,1-.21.07-.31.46-.46.7a3.54,3.54,0,0,0,.71.09c8.85-.69,16.19,3.63,23.52,7.49,11.56,6.09,21.79,13.69,26.51,26.71.42,1.15-.46,3.87,2.56,3s1.58-2.9,1.13-4.53C856.47,352.78,831.78,342.2,811.34,338.93Z" transform="translate(-428.88 -97.5)"/><path class="cls-1" d="M743.82,132.45c0-5.73.42-11.51-.11-17.2-.66-7.17,3.79-10.34,8.77-13.86a20.6,20.6,0,0,1,9.72-3.76c6.33-.82,10.55,2.28,12.81,7.74,2,4.81-1.67,7.3-5.19,9.53a6.53,6.53,0,0,0-1.13,1.21c.49-.18,1-.37,1.48-.53l1.7-.48a7.42,7.42,0,0,1-1.12,1.5c-5.74,4.44-12.19,6-19.18,4-2.42-.7-2.75-.16-2.78,2-.28,21-.76,41.93-.89,62.9,0,5.93-.72,8.83-8.22,9.8-13.8,1.78-28.17,2.67-40.61,10.35-.94.59-2,.9-2.91-.1s.22-1.62.38-2.42c.06-.27,2.23-1.85-.44-1-.23.07-.56-.18-.84-.29l1.7-2.19c.55-.69,2.27-1,1.46-2.08s-1.06.74-1.73.88c-1.68.36-1.47-.88-1.35-1.82,2.68-20.38,2.68-40.83,1.77-61.32a12.76,12.76,0,0,1,.47-2.69c.21.89.47,1.78.6,2.68s.13,1.75.19,2.63c0-.9.11-1.79.09-2.69-.14-5.4-.49-10.81-.39-16.21.14-8,5.95-14.87,12.61-15.29a7.9,7.9,0,0,1,2,.4,8.09,8.09,0,0,1-1.61.86,13,13,0,0,0-7.53,4.75c2-1.15,4.08-2.28,6.12-3.44,3.85-2.18,7.89-3.54,12.43-3,4.88.58,5.23,5,6.57,8.18.92,2.22.58,4.68-2.63,5.84-2,.72-3.6,2.51-5.37,3.82a3.12,3.12,0,0,0-.47.49,2.69,2.69,0,0,0,.87-.14c.87-.45,1.72-.94,2.57-1.45,1-.62,2.06-1.28,3.09-1.92a18.26,18.26,0,0,1-2.54,3.14c-5.12,4-11.1,5-17.39,4.38-2.72-.27-3.89-.1-3.93,3.41-.19,19.49-.75,39-1.27,58.46-.06,2.43.4,3.16,3,2.44,10.26-2.8,21.08-2.83,31.22-6.48,4.67-1.68,6.34-4.31,6.63-9.3C743.27,160.28,744,146.39,743.82,132.45Z" transform="translate(-428.88 -97.5)"/><path class="cls-1" d="M803.09,205.32c-8.29-.21-14.4-1.56-14.28-11.39,0-.33.21-1-.51-.37-.54.47-.14,1.78-1.42,1.58a13.34,13.34,0,0,1,.48-2.79c3.7-9.51,16.63-12.64,27.94-6.66,1.63.86,1.93.4,2.17-1.06,3.51-22.24,7.07-44.48,10.51-66.73.28-1.79-.25-3.71-.49-5.56-.56-4.48,3.32-5.17,5.77-5.15,2.22,0,.82,2.93.77,4.68-.09,2.84,1.55,5.2,3.13,7.29,4.17,5.56,8.8,10.79,13,16.36,5.47,7.3,4.55,15.37-1.44,22.38-1.21,1.41-.52,4.63-.34,7,.44,5.69-3.56,8.67-7,12-.17.15-.55.08-.84.11a9.18,9.18,0,0,1,.28-.89,12.57,12.57,0,0,1,1.15-2.87c6.89-9.59-.76-15.44-5.72-21.86-2-2.54-4.54-4.61-6.84-6.9-.72,3.25-1.64,6.46-2.14,9.74-1.94,12.63-4.11,25.24-5.46,37.93-.72,6.77-4.11,10.24-10.19,11.71C808.25,204.67,804.82,205,803.09,205.32Zm46-57a38.82,38.82,0,0,0-1.71-5.78c-3-6.7-9.41-10.85-13.17-17-.34-.56-1.14-.81-1.24.06-.58,5.23-5,10.53.88,15.61,3.45,3,6.26,6.68,9.32,10.09,1.33,1.48,2.56,3.05,3.83,4.58C848.81,153.84,848.61,151.3,849.14,148.3Z" transform="translate(-428.88 -97.5)"/><path class="cls-1" d="M856.66,266.55a13,13,0,0,1,9.12,3.72c1.82,1.75,2.27.9,2.78-.89q3.88-13.71,7.85-27.41a2.54,2.54,0,0,0-1.17-3.27c-7.52-5.25-15-10.54-22.41-16-2-1.44-2.71-1-3.32,1.13-3.47,12.22-7.08,24.39-10.46,36.63-.79,2.86-2.38,4.12-5.15,4.3-8.36.56-14.5-3.77-15-11.76-.24-4,3.74-5.15,7.4-5,4,.11,6.84,2.55,9.5,5.12,1.29,1.25,1.37.59,1.69-.55,4.23-14.9,9-29.66,12.47-44.73,1.57-6.83,3.88-3.67,6.65-1.93,9,5.69,17.93,11.48,26.91,17.21,2.16,1.38,3.75,2.55,2.15,5.69-7.75,15.2-11.17,31.85-15.7,48.11-1.41,5-6,7.74-11.42,6.48-6-1.39-10.1-6.73-9.08-11.69C849.92,269.6,854.13,266.58,856.66,266.55Zm23.1-36.76c.38-2.51-.79-3-1.76-3.54-7-4.22-14-8.47-21-12.6-1-.57-2.28-2.55-3.44-.57-1,1.76-2.43,3.86.42,5.69,6.82,4.37,13.5,8.94,20.3,13.32,1.23.79,2.64,2.89,3.86,1.85S879.48,230.59,879.76,229.79Z" transform="translate(-428.88 -97.5)"/><path class="cls-1" d="M696.65,497.38c-.12-1-.25-2.37-.48-3.74a17.71,17.71,0,0,0-.58-2.1c-.08.55-.12,1.11-.24,1.65,0,.16-.3.26-.46.39a3.75,3.75,0,0,1-.39-.87c-1.8-8.06-8.07-12.67-13.72-17.75a2.88,2.88,0,0,0-1-.38c0,.48,0,1,0,1.44,1,14,5.08,27.64,5.94,41.53.55,8.86,5.56,18.28-.82,27.14-2.95,4.1-16.84,9.39-20.88,7-3-1.8-5.66-5-5.68-8.74,0-5.26,3.16-9,7.55-11.59a28.5,28.5,0,0,1,13.4-3.59c1.65-.08,2.62-.58,2.37-2.53-2.5-18.91-5-37.82-7.37-56.76-.39-3.17-2.78-5.12-3.76-7.87a6.07,6.07,0,0,1,1.23-6.63c.92-1,2.09-.24,3,.18,3.16,1.51,3.54,5,5.23,7.49a90.08,90.08,0,0,0,12.26,14c6.37,6.2,9.78,19.48,6.57,27.8-.11.27-.59,1.77-.78.52s-1.06-2.13-1.31-3.24A16.38,16.38,0,0,1,696.65,497.38Z" transform="translate(-428.88 -97.5)"/><path class="cls-1" d="M616.25,389c7.32-.06,11.8,6.63,8.88,13.26-3.9,8.86-9.92,12.59-19.67,12-2.3-.14-1.42,1.18-1.21,2.15,4.8,22,9.57,44,14.52,65.95.6,2.67-.52,4.83-2.3,5.07-2.12.28-1.41-2.71-2.16-4.1-6.13-11.27-4.82-24.13-7.94-36-3.36-12.82-6-25.84-9-38.74a7.55,7.55,0,0,1,.61-6.07C602.17,395.44,607.18,389.49,616.25,389Z" transform="translate(-428.88 -97.5)"/><path class="cls-1" d="M452.81,507.14c-3.87-.32-9.09,0-10.63-5.2-2-6.68,2.24-11.62,6.7-15.8,3.54-3.31,8.22-4.22,13.08-3.79l2.34.18a15.06,15.06,0,0,0-.61-2.53c-9.1-20.44-16.1-41.64-23.05-62.86a55.69,55.69,0,0,1-1.47-6.95c-.22-1.15-.82-2.56,1.24-2.72,1.61-.13,3.36-.67,4,1.6,7.49,26.42,17.67,51.87,27.21,77.57C474.85,495.31,467.42,507.4,452.81,507.14Zm10.6-11.66c.19-4.54-1.8-7.75-5.64-8.53s-6,2.46-7.74,5.38c-4,7,3.05,7.77,6.26,10.56.47.41,2.36-.67,3.51-1.23C462.54,500.35,463.8,498.15,463.41,495.48Z" transform="translate(-428.88 -97.5)"/><path class="cls-1" d="M558.94,149.7c-6.3-.46-13-1-16.35-8-2.76-5.75-1-11,3-15.37,5.46-5.94,12.61-8.11,20.47-7.49a21.24,21.24,0,0,1,10.36,3.09c9.77,6.31,9.83,17.57-.22,23.51C571,148.48,565.26,149.5,558.94,149.7Zm12.77-16.91c0-8.77-3.08-10.3-12.19-7-6,2.15-8.49,7-6.42,12.74,2.2,6.05,8.19,9,13.83,6.8a38.24,38.24,0,0,0,4.46-2.48c-1.43.39-2.86.81-4.31,1.16a18.77,18.77,0,0,1-3.14.55,7.75,7.75,0,0,1-2-.45c.53-.4,1-1.06,1.59-1.15C569.94,141.88,570.73,136.77,571.71,132.79Z" transform="translate(-428.88 -97.5)"/><path class="cls-1" d="M740,284.37l1.06.63a9.81,9.81,0,0,1-2,1.3c-9.62,3.54-17.94,8.82-23.33,17.83-7.57,12.68-7.18,25.64-1.23,38.81.54,1.2,2.37,3.11.49,4-1.42.68-2.35-1.62-3.14-2.88-13.6-21.83.55-54.34,25.8-59.31C738.34,284.64,739,284.54,740,284.37Z" transform="translate(-428.88 -97.5)"/><path class="cls-1" d="M630.57,268c.88-20.46-5.69-39.92-18.93-57.24a8.45,8.45,0,0,1-.83-2.09c.49.2,1.13.27,1.44.62,17,19.42,24.85,41.65,20.38,67.55a5.58,5.58,0,0,1-1.3,2.57c-1.61-.46-.66-1.88-.72-2.88C630.48,274.17,630.57,271.79,630.57,268Z" transform="translate(-428.88 -97.5)"/><path class="cls-1" d="M687.88,311.44c-2.62,19.5.22,37.16,11.62,52.95.35.47.18,1.32.25,2a5.79,5.79,0,0,1-2.06-.12,9.91,9.91,0,0,1-4.47-4.75c-8.24-15.56-11.06-31.92-7-49.23a7,7,0,0,1,1.18-1.93Z" transform="translate(-428.88 -97.5)"/><path class="cls-1" d="M642.17,224.75a1.59,1.59,0,0,1-3.1.72c-5.39-16.53-14.52-30.88-25.69-44-.31-.36-.27-1-.4-1.51a3.82,3.82,0,0,1,1.3.19C622.36,184.68,641.93,216,642.17,224.75Z" transform="translate(-428.88 -97.5)"/><path class="cls-1" d="M652,267.26a139.9,139.9,0,0,1-3,27.07,7.09,7.09,0,0,1-1,1.8,7.45,7.45,0,0,1-.3-1.95c2.19-17.56.81-35-1.66-52.4-.17-1.24-1.18-3.31.45-3.66s1.59,1.95,1.93,3.16A97,97,0,0,1,652,267.26Z" transform="translate(-428.88 -97.5)"/><path class="cls-1" d="M672.28,248.05c-.59,2.51.75,6.2-1.68,6.52-1.9.24-1.53-3.61-1.67-5.64a148,148,0,0,0-8.75-41.17c-.25-.66-1-1.61.09-2.11.21-.1,1.18.91,1.5,1.56C668.16,220.18,671,234.05,672.28,248.05Z" transform="translate(-428.88 -97.5)"/><path class="cls-1" d="M721.67,326.22c.1-11.61,9.09-22.66,20.46-25.13.7-.15,2.1,0,2.14.24.27,1.26-1,1.24-1.74,1.55-11.43,4.81-17.16,13.2-17.35,25.15,0,1.67,1.14,4.64-1.3,4.74-2.2.08-1.7-3-2.18-4.84A6.51,6.51,0,0,1,721.67,326.22Z" transform="translate(-428.88 -97.5)"/><path class="cls-1" d="M618.65,259.87c0-.24-.67.34-1.68.28-1.71-.09-2-1.41-2.1-2.79a63.51,63.51,0,0,0-9.19-29.93c-.82-1.38-3.12-3.63-2.14-4,1.88-.79,2.65,2,3.72,3.41C614.48,236.12,616.73,247.27,618.65,259.87Z" transform="translate(-428.88 -97.5)"/><path class="cls-1" d="M624.93,157.66a10,10,0,0,1,.94.59,102.7,102.7,0,0,1,23.34,26.23c.65,1.06,2,2.75.35,3.64s-2.39-1.05-3-2.16a126.41,126.41,0,0,0-21.31-26.15,4.93,4.93,0,0,1-.91-1.62C624.26,158.12,624.7,157.84,624.93,157.66Z" transform="translate(-428.88 -97.5)"/><path class="cls-1" d="M672.52,276.09c-.76,10.18-1.29,19.67-5,28.57-.34.81-.49,2.3-1.78,1.86s-.67-1.72-.49-2.61Q668,289.86,671,275.82a4.75,4.75,0,0,1,.81-1.35Z" transform="translate(-428.88 -97.5)"/><path class="cls-1" d="M736.66,262.34a15,15,0,0,1-2.31,1,57.42,57.42,0,0,0-22.41,9.52c-.76.53-1.78,1.39-2.62.4s.12-1.9.84-2.49a38.87,38.87,0,0,1,24-9.1A11,11,0,0,1,736.66,262.34Z" transform="translate(-428.88 -97.5)"/><path class="cls-1" d="M560.76,240A29.69,29.69,0,0,1,564,224c2.78-5.28,7.92-5.8,11.71-1.25,7.25,8.71,11.77,18.84,15.25,29.5a4,4,0,0,1-.13,1.47,7.21,7.21,0,0,1-.83-1.1c-2.05-4-4-8-6.12-12-.41-.77-.84-2-2.17-1.21-1.11.7-.64,1.51-.18,2.52,2.41,5.28,4.7,10.63,7,16a5.73,5.73,0,0,1,.11,1.82,6.55,6.55,0,0,1-1.36-1.43c-2.07-4.18-4.06-8.4-6.13-12.58-.31-.64-.68-1.8-1.73-1-.28.21-.14,1.37.16,1.89a46.06,46.06,0,0,1,5.16,13.49c.14.71.77,1.61-.31,2.1a5.28,5.28,0,0,1-1-1.69A50.89,50.89,0,0,0,578,248.38c-.38-.6-.6-1.89-1.7-1.13-.9.62-.2,1.48.23,2.16a35.9,35.9,0,0,1,5.35,12.85,6,6,0,0,1-.33,2,7.89,7.89,0,0,1-1.28-1.52c-1.74-3.69-3.37-7.44-5.18-11.1-.28-.57-.57-2.18-1.8-1.27-.91.68.15,1.46.59,2.06a25.72,25.72,0,0,1,4.89,10.36c.14.76.68,1.75-.41,2.07-.29.09-1.14-1-1.39-1.62a30.42,30.42,0,0,0-5.26-9.38c-.55-.64-1.23-2.32-2.29-1.32s.57,1.64,1.18,2.28a23.9,23.9,0,0,1,5.62,9.41c.19.59.14,1.72-.21,1.92-.9.55-1.2-.44-1.51-1.08-1.61-3.31-3.37-6.51-6.29-8.91.17,3.73,1.73,7.06,3.14,10.39a61.17,61.17,0,0,0,3.88,7.39c.51.86.83,2.67,2.15,2.09.71-.31.76-2.12,1.11-3.26.26-.85-.82-1.92.42-2.63a10.45,10.45,0,0,1,1.14,2.81,10.31,10.31,0,0,1-.52,3.35c-.25,1-1.3,1.86-.28,2.91a3.94,3.94,0,0,0,1.22.58c.45-1,.9-2,1.36-3,.71-1.52-1.11-3.39.68-4.74,1.45,2,1.07,4.14.84,6.35-.12,1.17-1.86,2.93-.27,3.33s1.68-2,2.14-3.34a7.22,7.22,0,0,0,.2-2.19c0-1.29,0-2.58,0-3.87,1.41,1.19,1.18,2.94,1.45,4.5a8.24,8.24,0,0,1-.22,2.18c-.12,1.11-.22,2.21-.33,3.31a16.22,16.22,0,0,0,2.38-3.3c.53-1.32.43-2.88.74-4.31s-.85-3,.55-4.33a29,29,0,0,1,.85,4.46,28.46,28.46,0,0,1-.52,4.37c0,.32-.56,1.18.47.59.77-.45,1.42-1.88,2.38-.68s.41,2.52-.2,3.72c-2.58,5.12-10.72,5.68-15.89.86-7.56-7.05-11.64-16.12-14.23-25.92A61,61,0,0,1,560.76,240Z" transform="translate(-428.88 -97.5)"/><path class="cls-1" d="M512.59,246.52l.59-1.48a8,8,0,0,1,.87,2.12c2.76,28.61,14.08,53.62,31.9,75.9.58.73,1.64,1.62.63,2.53-1.16,1.06-1.92-.23-2.56-1C524.84,302.34,515,276.27,512.59,246.52Z" transform="translate(-428.88 -97.5)"/><path class="cls-1" d="M507,245a26.93,26.93,0,0,1,.81,3.08c2,28,11,53.43,27.88,76,.69.93,2.11,2.35.93,3.16-1.6,1.11-2.57-.93-3.34-2a134.58,134.58,0,0,1-25.59-63.07c-.61-4.62-.75-9.3-1.07-14A26.26,26.26,0,0,1,507,245Z" transform="translate(-428.88 -97.5)"/><path class="cls-1" d="M518.5,246.22l.58-1.45a5.07,5.07,0,0,1,.91,1.48c4.72,26.11,15.63,49.51,30.86,71.07,1,1.49,4.26,3.26,2.43,4.73-1.61,1.3-3.24-2-4.37-3.54C533.2,296.73,522.11,273,518.5,246.22Z" transform="translate(-428.88 -97.5)"/><path class="cls-1" d="M524.78,249.35a29.7,29.7,0,0,1,1.11,2.77,158.43,158.43,0,0,0,31.81,64.46c.6.73,1.93,1.69.74,2.66-1,.84-1.72-.54-2.3-1.21-16.4-19.2-26.21-41.56-31.61-66A12.82,12.82,0,0,1,524.78,249.35Z" transform="translate(-428.88 -97.5)"/><path class="cls-1" d="M532.29,254.32c.79,2,1.1,2.56,1.23,3.15,4.61,20.6,14.5,38.48,28.07,54.47.65.76,2.24,1.83,1.16,2.8s-1.94-.71-2.63-1.45c-14.69-15.79-23.24-34.67-27.81-55.53A23.54,23.54,0,0,1,532.29,254.32Z" transform="translate(-428.88 -97.5)"/><path class="cls-1" d="M575.71,309c-.58.75-.8,1.19-.93,1.17a5.46,5.46,0,0,1-1.83-.54c-9-5.22-14.76-13.3-19.81-22a61.69,61.69,0,0,1-6.46-16.67,5.68,5.68,0,0,1,.09-1.63c.32.38.83.7,1,1.13,4.39,15.34,12.81,27.86,25.87,37.15C574.26,308.07,575,308.5,575.71,309Z" transform="translate(-428.88 -97.5)"/><path class="cls-1" d="M566.92,309.09c-.65,1.44-1.43.63-1.94.18-12.69-11.2-21-25.16-25.67-41.33-.1-.34.21-.8.32-1.21a7.6,7.6,0,0,1,1,1.56,93,93,0,0,0,17,30.76c2.46,2.94,5.3,5.56,8,8.35C566.07,307.93,566.48,308.53,566.92,309.09Z" transform="translate(-428.88 -97.5)"/><path class="cls-1" d="M551.64,265.29a23.13,23.13,0,0,1,1,2.5A58,58,0,0,0,572.3,299c.66.56,2.1,1.16,1.25,2.24s-1.8-.08-2.5-.67a56.8,56.8,0,0,1-19.39-32.41A19.28,19.28,0,0,1,551.64,265.29Z" transform="translate(-428.88 -97.5)"/><path class="cls-1" d="M561.11,279.55l.25-.61c.35.28.87.48,1,.83,3.31,7.67,8.87,13.47,15.28,18.58a5.42,5.42,0,0,1,1,1.55c-.42.09-.89.34-1.26.24C573.07,299,561.38,284.38,561.11,279.55Z" transform="translate(-428.88 -97.5)"/><path class="cls-1" d="M464,335.09c-1.07-.42-.61-1-.22-1.52q6.93-8.86,13.91-17.7c.2-.26.63-.33,1-.49,0,.29.14.67,0,.88-4.09,6.49-8.14,13-13.87,18.27A7.48,7.48,0,0,1,464,335.09Z" transform="translate(-428.88 -97.5)"/><path class="cls-1" d="M821.51,426.11l-.33.78a6.85,6.85,0,0,1-1.38-1.48c-5.73-11.82-12.25-23.14-20.8-33.2-1.55-1.81-2.88-3.8-4.31-5.7,2.48.95,3.62,3.31,5.22,5.14,8.56,9.8,15.87,20.42,20.83,32.52C821,424.78,821.22,425.39,821.51,426.11Z" transform="translate(-428.88 -97.5)"/><path class="cls-1" d="M785.47,525.56c2,3.14,4,6.21,5.95,9.31,0,0-.45.62-.64.59-2.29-.32-3.38-2.14-4.38-3.87s-2-3.57-1.45-5.73C785,525.72,785.32,525.65,785.47,525.56Z" transform="translate(-428.88 -97.5)"/><path class="cls-1" d="M750.15,387.41c1.18-23.93,12.13-42.74,30.32-57.76a3.89,3.89,0,0,1,1.46-.42,8.6,8.6,0,0,1-1.21,1.67c-15.24,12.92-24.8,29.07-27.6,48.94-.69,4.93-.6,10-.93,14.94a7.78,7.78,0,0,1-.63,1.93,7.23,7.23,0,0,1-.81-1.92C750.48,392.35,750.34,389.9,750.15,387.41Z" transform="translate(-428.88 -97.5)"/><path class="cls-1" d="M746.38,381.77c1.5-21,10.09-38.32,26.92-51.34a7.68,7.68,0,0,1,1.9-.79,5.93,5.93,0,0,1-1,1.46c-18.44,15.44-27.19,35-25.35,59.15a8.29,8.29,0,0,1-.45,2.2,7.33,7.33,0,0,1-1.05-2C747,387.59,746.72,384.74,746.38,381.77Z" transform="translate(-428.88 -97.5)"/><path class="cls-1" d="M744.42,380.47a8,8,0,0,1,0,1c-.29,2.19.72,4.49-.54,6.59-1.63-2.07-1.52-4.63-1.51-7,.08-21.22,8.92-38.19,25.32-51.4a4.89,4.89,0,0,1,1.7-.47,9.21,9.21,0,0,1-1.24,1.63C752.79,343.83,744.43,360.16,744.42,380.47Z" transform="translate(-428.88 -97.5)"/><path class="cls-1" d="M734.44,367.23c1.12-17.84,8.46-32.3,22.1-43.54a6.24,6.24,0,0,1,1.92-.69,9.57,9.57,0,0,1-1.16,1.56c-14.43,12.65-21.87,28.32-20.75,47.73a14.13,14.13,0,0,1-.36,2.8c-1.34-.48-1-1.77-1.15-2.69C734.69,370.64,734.61,368.83,734.44,367.23Z" transform="translate(-428.88 -97.5)"/><path class="cls-1" d="M761.6,329l.54.27a7.48,7.48,0,0,1-1.08,1.49c-12.8,10.66-20,24.2-20.94,40.89-.14,2.52.21,5.07.23,7.6a6.61,6.61,0,0,1-.59,1.95,6.32,6.32,0,0,1-.92-1.86c-2.11-16.66,3.76-30.68,14.49-43,2.3-2.63,5.16-4.76,7.76-7.11A2.38,2.38,0,0,1,761.6,329Z" transform="translate(-428.88 -97.5)"/></svg>