<svg id="Layer_1" data-name="Layer 1" xmlns="http://www.w3.org/2000/svg" viewBox="0 0 500.92 598.67"><defs><style>.cls-1{fill:#e3c8ff;}.cls-2{fill:#c58cff;}.cls-3{fill:#fff;}</style></defs><ellipse class="cls-1" cx="263.42" cy="265.04" rx="237.5" ry="242.5"/><path class="cls-2" d="M905.54,241.11c2.16,1.38,3.75,2.55,2.15,5.69-7.75,15.2-11.17,31.85-15.7,48.11-1.41,5-6,7.74-11.42,6.48-6-1.39-10.1-6.73-9.08-11.69.43-2.1,4.64-5.12,7.17-5.15a13,13,0,0,1,9.12,3.72c1.82,1.75,2.27.9,2.78-.89q3.88-13.71,7.85-27.41a2.54,2.54,0,0,0-1.17-3.27c-7.52-5.25-15-10.54-22.41-16-2-1.44-2.71-1-3.32,1.13-3.47,12.22-7.08,24.39-10.46,36.63-.79,2.86-2.38,4.12-5.15,4.3-8.36.56-14.5-3.77-15-11.76-.24-4,3.74-5.15,7.4-5.05,4,.11,6.84,2.55,9.5,5.12,1.29,1.25,1.37.59,1.69-.55,4.23-14.9,9-29.66,12.47-44.73,1.57-6.83,3.88-3.67,6.65-1.93C887.63,229.59,896.56,235.38,905.54,241.11Zm-3.78,6.68c.38-2.51-.79-3-1.76-3.54-7-4.22-14-8.47-21-12.6-1-.57-2.28-2.55-3.44-.57-1,1.76-2.43,3.86.42,5.69,6.82,4.37,13.5,8.94,20.3,13.32,1.23.79,2.64,2.89,3.86,1.85S901.48,248.59,901.76,247.79Z" transform="translate(-450.88 -115.5)"/><path class="cls-2" d="M903.71,400.17c1.82,21.21-4.91,40.39-14.1,58.74-17.51,35-38.08,68-63.86,97.62-5.29,6.07-10,12.68-14.75,19.16-2.51,3.39-4.65,7-9.55,7.29-.65,0-1.42,1.27-1.8,2.1-18,39.59-32.24,80.43-40.66,123.19-.28,1.44-.62,2.88-.93,4.32-.43,2-2,1.57-3.34,1.45-1.49-.13-1.2-1.29-1-2.25,7.7-43.69,20.79-85.6,40.95-125.22.58-1.14,3.08-3,.62-3.81-2-.68-4.91-3.83-7,.84-18.29,40.45-33,82.08-41.45,125.76-.19,1-.43,1.92-.57,2.89-.3,2.14-1.87,2-3.35,1.85-1.94-.15-1.28-1.63-1.1-2.62,8.08-45.21,22.52-88.19,42.64-129.6,4.48-9.21,8.6-19.17,12.38-29,1.17-3-1.71-7.69,1.39-10.2,3.37-2.73,4.46-6.32,5.87-9.88,6.77-17.09,13.13-34.34,13.62-53,.32-12.16-1.6-23.61-11.91-31.87a17.76,17.76,0,0,1-2.77-2.78c-4-5-7.11-8.84-15.58-6.75-8.29,2-14.63-5.69-19.87-12-11.56-13.83-20.14-29.07-21.09-46.66.46-18.05,9.57-31,19.67-43.66,15.46-19.33,35.79-20.62,57.76-15.95C833.52,322.23,843,324.92,851,331c5.12,3.9,8.21,8.87,7.82,15.55-.07,1.14.11,1.83,1.48,2C883.05,350.58,901.54,374.73,903.71,400.17ZM898.93,407c.39-5.27-1.94-7.16-6.23-7.58a20.07,20.07,0,0,0-13,2.95c-11.72,7.44-17.44,19.05-21.79,31.5-6,17.27-8.67,35.56-15.56,52.6a156.6,156.6,0,0,1-10.25,21.77,10.42,10.42,0,0,1-1.4,1.58,7.76,7.76,0,0,1,.39-1.95q3.44-7.11,6.33-14.43c1.22-3,2.36-6.08,3.46-9.15.28-.78.56-1.56.83-2.34a9.57,9.57,0,0,0,0-6.65,186.58,186.58,0,0,0-31.4-57.8,6.9,6.9,0,0,1-.78-2.08,7.53,7.53,0,0,1,1.74,1.19c13.12,16.25,23.76,33.93,30.86,53.65.48,1.33,1.18,2.57,1.78,3.85.45-1.78,1-3.54,1.33-5.34.09-.41-.26-.93-.42-1.39-7.21-21.78-17.77-41.71-32.59-59.31a6.91,6.91,0,0,1-.8-1.81,10.42,10.42,0,0,1,1.62,1.31,169.86,169.86,0,0,1,32.51,56.27c.2.6.5,1.18.75,1.77a11.9,11.9,0,0,0,.75-1.73c2.6-9.91,4.9-19.9,7.83-29.7,4.14-13.83,9.68-27,22.4-35.35,2.61-1.71,3-2.89,1.77-5.55-8.48-18.72-25-26.72-43.21-32.18a16.18,16.18,0,0,0-13.57,2.31c-17.09,12.41-26.82,29.22-27.83,49.64.37,11.6,3.59,20.93,11.44,28.4,4.32,4.12,8.75,8.19,11.73,13.5a12.07,12.07,0,0,0,1,1.31c0-.54.1-1.08.07-1.61-.62-11.65-4.38-21.78-14-29.14-.5-.38-1.11-1.44-.93-1.74.59-1,1.46-.23,2.12.13a29.51,29.51,0,0,1,9,7.55c11.71,14.9,19.09,32,24.87,49.82.27.82.85,2,.64,2.84a1.17,1.17,0,0,1-.86.83c-1.44.45-1.68-1.7-2-2.85a217,217,0,0,0-15.15-36.77,13.83,13.83,0,0,0-.95-1.36c0,.22-.15.45-.1.64,1.34,4.54.62,9.45,2.76,13.9a163,163,0,0,1,10.47,28.31c.5,1.83,1.43,3.69.55,5.68-2-1.07-1.81-3.25-2.38-5-2-6.07-3.72-12.23-5.76-18.28-1-3-2.51-5.86-3.78-8.79A27.48,27.48,0,0,0,824.43,471c2.41,7,4.52,14.2,6.68,21.33.25.83.76,1.9-.28,2.69a9.32,9.32,0,0,1-1.39-2.12c-1.79-6-3.5-11.95-5.25-17.92a3.29,3.29,0,0,0-.64-.88c-.06.32-.12.64-.17.95-.82,5.05,0,9.91,1.38,14.78.87,3,2.28,6,1.47,9.27-2.52-2.36-2.2-5.73-3.06-8.68,0-.16-.07-.32-.12-.48-.14-.35-.29-.7-.44-1.05a3.27,3.27,0,0,0-.28,1.17c.63,3.86,1.37,7.7,1.94,11.56.16,1.09,1.26,2.81-.27,3.21-1.24.32-1.27-1.63-1.58-2.65-.74-2.4-1.32-4.86-2-7.29-.74,3-1.35,6.07-.4,9.2a15.55,15.55,0,0,1,.76,3.85c.06,1.63,1.52,4.28,0,4.61s-1.15-2.73-1.71-4.26c-.24-.64-.46-1.29-.7-1.94a14.14,14.14,0,0,1-.72,2c-3.44,6.64.86,12.94.79,19.43a31.49,31.49,0,0,1-.52,4c-1.43-.93-.88-2.47-1.09-3.74-.4-2.43-.64-4.88-1-7.31a12.49,12.49,0,0,0-.65-2,6,6,0,0,0-.89,1.89c-.53,5.6,2.6,10.33,3.77,15.54.15.67.81,1.53-.15,1.92s-1.18-.64-1.43-1.28c-.95-2.52-1.83-5.07-2.77-7.6-.4-1.1-.86-2.17-1.29-3.25a4.21,4.21,0,0,0-.86,4.55c1.77,3.69,3.75,7.27,5.58,10.92a6.39,6.39,0,0,1,.28,2,8.39,8.39,0,0,1-1.62-.87c-3.19-2.78-3.1-7.43-5.92-10.43-2,3.64-4,7.29-6.07,10.91-.36.62-1.06,1-1.44,1.66a8,8,0,0,0,4.28,11.62c-.66-1.31-1.33-2.61-2-3.91a2.57,2.57,0,0,1-.2-.45c-.35-1.21-1.46-3-.16-3.54s1.51,1.48,2,2.45c4.14,8.48,11.81,9.63,16.81,2.44,15.38-22.12,31.86-43.48,45.2-67C882.47,461.36,896.75,436.57,898.93,407Zm-1.32-11.85c.78.33.25-1.87.08-2.86-1-5.63-3.25-10.77-5.8-15.85-8.22-16.37-31.5-30.24-49.14-23.76-2.07.76-4.07,1.73-6.1,2.6,2,1.37,4.1.12,6.15,0,.57,0,1.14,0,3.36,0,1.22.23,4.07.59,6.83,1.29,2.13.55,4.5.56,6.24,2.25l-6.46-.75-1-.1-7.11-.68,6.66,2.44c16.61,6.1,30.34,15.2,35.09,33.67.11.41.69.7,1.05,1a7.31,7.31,0,0,0,.16-2c-2.64-12.25-9.76-21.24-20.28-27.74a10.56,10.56,0,0,1-1.59-1.55,8.68,8.68,0,0,1,2.2.58c11.37,6.33,18.24,16.08,21.84,28.42C891,396.16,895,394.08,897.61,395.14Zm-14.51.79c3-.85,1.58-2.9,1.13-4.53-5.76-20.62-30.45-31.2-50.89-34.47-.64.2-1.87.55-3.08,1-.21.07-.31.46-.46.7a3.54,3.54,0,0,0,.71.09c8.85-.69,16.19,3.63,23.52,7.49,11.56,6.09,21.79,13.69,26.51,26.71C881,394.05,880.08,396.77,883.1,395.93Zm-28.33-49a4.23,4.23,0,0,0,.14-2.15c-1.62-5.5-5.64-8.94-10.48-11.46-11.61-6-24.21-7.82-34.17-8.34-30.15-.19-57.25,26.28-57,53.89.24,21.67,12.57,37.49,28,51.14,2.75,2.42,6.51,3,10.26,2.36a4.41,4.41,0,0,0,1.22-.69c-.22-.18-.43-.5-.65-.51-8.94-.49-11.19-7-12.26-14.12-2.08-13.88,1.35-26.94,7.32-39.29,10.38-21.49,24.85-38.4,50.14-42.31,1.75-.27,4.69-1.26,5,.45.32,1.56-2.94,1-4.45,1.82-.54.29-1.14.49-1.71.73.64-.05,1.28-.05,1.91-.15,7.54-1.16,14.07,1.79,15.66,7C854,346,853.61,347,854.77,347Zm-31.94,8.5c1.2-.84,1.23-1.28-.07-2-4.51-2.45-9.23-3.31-13.31.28-10.9,9.63-17.18,21.94-20.42,35.84.68,1.94,1.21,3.43,1.74,4.93.31-.31.78-.56.9-.93C797.38,377,808.9,365.26,822.83,355.45ZM814.77,564c.36-.43.64-.92,1-1.39a7.72,7.72,0,0,0-1.78-.44c-5.09,0-9.72-1.27-13.6-4.71-.85-.76-1.44-.93-2.07.24-3,5.55-6,11.07-9,16.61-.38.7-.83,1.59.5,1.91l8,1.93c3.1-.28,5.52-.77,7.26-2.77C808.32,571.58,811.54,567.76,814.77,564Z" transform="translate(-450.88 -115.5)"/><path class="cls-3" d="M892.7,399.41c4.29.42,6.62,2.31,6.23,7.58-2.18,29.58-16.46,54.37-30.59,79.3-13.34,23.52-29.82,44.88-45.2,67-5,7.19-12.67,6-16.81-2.44-.47-1-.53-3.09-2-2.45s-.19,2.33.16,3.54a2.57,2.57,0,0,0,.2.45c.67,1.3,1.34,2.6,2,3.91a8,8,0,0,1-4.28-11.62c.38-.62,1.08-1,1.44-1.66,2-3.62,4-7.27,6.07-10.91,2.82,3,2.73,7.65,5.92,10.43a8.39,8.39,0,0,0,1.62.87,6.39,6.39,0,0,0-.28-2c-1.83-3.65-3.81-7.23-5.58-10.92a4.21,4.21,0,0,1,.86-4.55c.43,1.08.89,2.15,1.29,3.25.94,2.53,1.82,5.08,2.77,7.6.25.64.46,1.68,1.43,1.28s.3-1.25.15-1.92c-1.17-5.21-4.3-9.94-3.77-15.54a6,6,0,0,1,.89-1.89,12.49,12.49,0,0,1,.65,2c.37,2.43.61,4.88,1,7.31.21,1.27-.34,2.81,1.09,3.74a31.49,31.49,0,0,0,.52-4c.07-6.49-4.23-12.79-.79-19.43a14.14,14.14,0,0,0,.72-2c.24.65.46,1.3.7,1.94.56,1.53.3,4.56,1.71,4.26s0-3,0-4.61a15.55,15.55,0,0,0-.76-3.85c-.95-3.13-.34-6.16.4-9.2.64,2.43,1.22,4.89,2,7.29.31,1,.34,3,1.58,2.65,1.53-.4.43-2.12.27-3.21-.57-3.86-1.31-7.7-1.94-11.56a3.27,3.27,0,0,1,.28-1.17c.15.35.3.7.44,1.05.05.16.07.32.12.48.86,3,.54,6.32,3.06,8.68.81-3.29-.6-6.28-1.47-9.27-1.42-4.87-2.2-9.73-1.38-14.78,0-.31.11-.63.17-.95a3.29,3.29,0,0,1,.64.88c1.75,6,3.46,12,5.25,17.92a9.32,9.32,0,0,0,1.39,2.12c1-.79.53-1.86.28-2.69-2.16-7.13-4.27-14.28-6.68-21.33a27.48,27.48,0,0,1-1.33-10.62c1.27,2.93,2.76,5.78,3.78,8.79,2,6.05,3.77,12.21,5.76,18.28.57,1.74.37,3.92,2.38,5l2.36.95q-2.91,7.32-6.33,14.43a7.76,7.76,0,0,0-.39,1.95,10.42,10.42,0,0,0,1.4-1.58,156.6,156.6,0,0,0,10.25-21.77c6.89-17,9.52-35.33,15.56-52.6,4.35-12.45,10.07-24.06,21.79-31.5A20.07,20.07,0,0,1,892.7,399.41ZM812.78,553.46c.19,0,.67-.54.64-.59-1.94-3.1-3.93-6.17-5.95-9.31-.15.09-.48.16-.52.3-.54,2.16.44,4,1.45,5.73S810.49,553.14,812.78,553.46Z" transform="translate(-450.88 -115.5)"/><path class="cls-3" d="M897.69,392.28c.17,1,.7,3.19-.08,2.86-2.59-1.06-6.63,1-7.8-3-3.6-12.34-10.47-22.09-21.84-28.42a8.68,8.68,0,0,0-2.2-.58,10.56,10.56,0,0,0,1.59,1.55c10.52,6.5,17.64,15.49,20.28,27.74a7.31,7.31,0,0,1-.16,2c-.36-.34-.94-.63-1.05-1C881.68,375,868,365.85,851.34,359.75l-6.66-2.44,7.11.68,1,.1,6.46.75c-1.74-1.69-4.11-1.7-6.24-2.25-2.76-.7-5.61-1.06-6.83-1.29-2.22,0-2.79,0-3.36,0-2,.08-4.11,1.33-6.15,0,2-.87,4-1.84,6.1-2.6,17.64-6.48,40.92,7.39,49.14,23.76C894.44,381.51,896.73,386.65,897.69,392.28Z" transform="translate(-450.88 -115.5)"/><path class="cls-3" d="M884.23,391.4c.45,1.63,1.92,3.68-1.13,4.53s-2.14-1.88-2.56-3c-4.72-13-14.95-20.62-26.51-26.71-7.33-3.86-14.67-8.18-23.52-7.49a3.54,3.54,0,0,1-.71-.09c.15-.24.25-.63.46-.7,1.21-.43,2.44-.78,3.08-1C853.78,360.2,878.47,370.78,884.23,391.4Z" transform="translate(-450.88 -115.5)"/><path class="cls-3" d="M879,393.27c1.21,2.66.84,3.84-1.77,5.55-12.72,8.35-18.26,21.52-22.4,35.35-2.93,9.8-5.23,19.79-7.83,29.7a11.9,11.9,0,0,1-.75,1.73c-.25-.59-.55-1.17-.75-1.77A169.86,169.86,0,0,0,813,407.56a10.42,10.42,0,0,0-1.62-1.31,6.91,6.91,0,0,0,.8,1.81c14.82,17.6,25.38,37.53,32.59,59.31.16.46.51,1,.42,1.39-.37,1.8-.88,3.56-1.33,5.34-.6-1.28-1.3-2.52-1.78-3.85-7.1-19.72-17.74-37.4-30.86-53.65a7.53,7.53,0,0,0-1.74-1.19,6.9,6.9,0,0,0,.78,2.08,186.58,186.58,0,0,1,31.4,57.8,9.57,9.57,0,0,1,0,6.65c-.27.78-.55,1.56-.83,2.34l-.5-.18c.21-.83-.37-2-.64-2.84-5.78-17.85-13.16-34.92-24.87-49.82a29.51,29.51,0,0,0-9-7.55c-.66-.36-1.53-1.11-2.12-.13-.18.3.43,1.36.93,1.74,9.6,7.36,13.36,17.49,14,29.14,0,.53,0,1.07-.07,1.61a12.07,12.07,0,0,1-1-1.31c-3-5.31-7.41-9.38-11.73-13.5C798,434,794.8,424.64,794.43,413c1-20.42,10.74-37.23,27.83-49.64a16.18,16.18,0,0,1,13.57-2.31C854.08,366.55,870.56,374.55,879,393.27Zm-35.86,51.62c.11-.28.23-.56.33-.78-.29-.72-.52-1.33-.77-1.94-5-12.1-12.27-22.72-20.83-32.52-1.6-1.83-2.74-4.19-5.22-5.14,1.43,1.9,2.76,3.89,4.31,5.7,8.55,10.06,15.07,21.38,20.8,33.2A6.85,6.85,0,0,0,843.18,444.89Z" transform="translate(-450.88 -115.5)"/><path class="cls-2" d="M872.13,153.52c5.47,7.3,4.55,15.37-1.44,22.38-1.21,1.41-.52,4.63-.34,7,.44,5.69-3.56,8.67-7,12-.17.15-.55.08-.84.11a9.18,9.18,0,0,1,.28-.89,12.57,12.57,0,0,1,1.15-2.87c6.89-9.59-.76-15.44-5.72-21.86-2-2.54-4.54-4.61-6.84-6.9-.72,3.25-1.64,6.46-2.14,9.74-1.94,12.63-4.11,25.24-5.46,37.93-.72,6.77-4.11,10.24-10.19,11.71-3.33.81-6.76,1.17-8.49,1.46-8.29-.21-14.4-1.56-14.28-11.39,0-.33.21-1-.51-.37-.54.47-.14,1.78-1.42,1.58a13.34,13.34,0,0,1,.48-2.79c3.7-9.51,16.63-12.64,27.94-6.66,1.63.86,1.93.4,2.17-1.06,3.51-22.24,7.07-44.48,10.51-66.73.28-1.79-.25-3.71-.49-5.56-.56-4.48,3.32-5.17,5.77-5.15,2.22,0,.82,2.93.77,4.68-.09,2.84,1.55,5.2,3.13,7.29C863.33,142.72,868,148,872.13,153.52Zm-3.08,20.31c1.76-2,1.56-4.53,2.09-7.53a38.82,38.82,0,0,0-1.71-5.78c-3-6.7-9.41-10.85-13.17-17-.34-.56-1.14-.81-1.24.06-.58,5.23-5,10.53.88,15.61,3.45,3,6.26,6.68,9.32,10.09C866.55,170.73,867.78,172.3,869.05,173.83Z" transform="translate(-450.88 -115.5)"/><path class="cls-3" d="M854.91,344.8a4.23,4.23,0,0,1-.14,2.15c-1.16.08-.75-1-.93-1.59-1.59-5.25-8.12-8.2-15.66-7-.63.1-1.27.1-1.91.15.57-.24,1.17-.44,1.71-.73,1.51-.81,4.77-.26,4.45-1.82-.36-1.71-3.3-.72-5-.45-25.29,3.91-39.76,20.82-50.14,42.31-6,12.35-9.4,25.41-7.32,39.29,1.07,7.11,3.32,13.63,12.26,14.12.22,0,.43.33.65.51a4.41,4.41,0,0,1-1.22.69c-3.75.65-7.51.06-10.26-2.36-15.47-13.65-27.8-29.47-28-51.14-.3-27.61,26.8-54.08,57-53.89,10,.52,22.56,2.29,34.17,8.34C849.27,335.86,853.29,339.3,854.91,344.8Zm-52.19,4.1a8.6,8.6,0,0,0,1.21-1.67,3.89,3.89,0,0,0-1.46.42c-18.19,15-29.14,33.83-30.32,57.76.19,2.49.33,4.94.6,7.38a7.23,7.23,0,0,0,.81,1.92,7.78,7.78,0,0,0,.63-1.93c.33-5,.24-10,.93-14.94C777.92,378,787.48,361.82,802.72,348.9Zm-6.47.2a5.93,5.93,0,0,0,1-1.46,7.68,7.68,0,0,0-1.9.79c-16.83,13-25.42,30.33-26.92,51.34.34,3,.61,5.82,1,8.64a7.33,7.33,0,0,0,1.05,2,8.29,8.29,0,0,0,.45-2.2C769.06,384.11,777.81,364.54,796.25,349.1Zm-6.11-.26a9.21,9.21,0,0,0,1.24-1.63,4.89,4.89,0,0,0-1.7.47c-16.4,13.21-25.24,30.18-25.32,51.4,0,2.33-.12,4.89,1.51,7,1.26-2.1.25-4.4.54-6.59a8,8,0,0,0,0-1C766.43,378.16,774.79,361.83,790.14,348.84Zm-6-1.57-.54-.27a2.38,2.38,0,0,0-.51.26c-2.6,2.35-5.46,4.48-7.76,7.11-10.73,12.29-16.6,26.31-14.49,43a6.32,6.32,0,0,0,.92,1.86,6.61,6.61,0,0,0,.59-1.95c0-2.53-.37-5.08-.23-7.6,1-16.69,8.14-30.23,20.94-40.89A7.48,7.48,0,0,0,784.14,347.27Zm-4.84-4.71a9.57,9.57,0,0,0,1.16-1.56,6.24,6.24,0,0,0-1.92.69c-13.64,11.24-21,25.7-22.1,43.54.17,1.6.25,3.41.6,5.17.19.92-.19,2.21,1.15,2.69a14.13,14.13,0,0,0,.36-2.8C757.43,370.88,764.87,355.21,779.3,342.56Z" transform="translate(-450.88 -115.5)"/><path class="cls-2" d="M843.51,444.11c-.1.22-.22.5-.33.78a6.85,6.85,0,0,1-1.38-1.48c-5.73-11.82-12.25-23.14-20.8-33.2-1.55-1.81-2.88-3.8-4.31-5.7,2.48.95,3.62,3.31,5.22,5.14,8.56,9.8,15.87,20.42,20.83,32.52C843,442.78,843.22,443.39,843.51,444.11Z" transform="translate(-450.88 -115.5)"/><path class="cls-3" d="M840.34,484.1l.5.18c-1.1,3.07-2.24,6.12-3.46,9.15l-2.36-.95c.88-2,0-3.85-.55-5.68A163,163,0,0,0,824,458.49c-2.14-4.45-1.42-9.36-2.76-13.9,0-.19.07-.42.1-.64a13.83,13.83,0,0,1,.95,1.36,217,217,0,0,1,15.15,36.77c.36,1.15.6,3.3,2,2.85A1.17,1.17,0,0,0,840.34,484.1Z" transform="translate(-450.88 -115.5)"/><path class="cls-3" d="M822.76,353.46c1.3.71,1.27,1.15.07,2-13.93,9.81-25.45,21.59-31.16,38.13-.12.37-.59.62-.9.93-.53-1.5-1.06-3-1.74-4.93,3.24-13.9,9.52-26.21,20.42-35.84C813.53,350.15,818.25,351,822.76,353.46Z" transform="translate(-450.88 -115.5)"/><path class="cls-3" d="M815.73,562.57c-.32.47-.6,1-1,1.39-3.23,3.8-6.45,7.62-9.72,11.38-1.74,2-4.16,2.49-7.26,2.77l-8-1.93c-1.33-.32-.88-1.21-.5-1.91,3-5.54,6-11.06,9-16.61.63-1.17,1.22-1,2.07-.24,3.88,3.44,8.51,4.74,13.6,4.71A7.72,7.72,0,0,1,815.73,562.57Z" transform="translate(-450.88 -115.5)"/><path class="cls-2" d="M813.42,552.87s-.45.62-.64.59c-2.29-.32-3.38-2.14-4.38-3.87s-2-3.57-1.45-5.73c0-.14.37-.21.52-.3C809.49,546.7,811.48,549.77,813.42,552.87Z" transform="translate(-450.88 -115.5)"/><path class="cls-2" d="M803.93,347.23a8.6,8.6,0,0,1-1.21,1.67c-15.24,12.92-24.8,29.07-27.6,48.94-.69,4.93-.6,10-.93,14.94a7.78,7.78,0,0,1-.63,1.93,7.23,7.23,0,0,1-.81-1.92c-.27-2.44-.41-4.89-.6-7.38,1.18-23.93,12.13-42.74,30.32-57.76A3.89,3.89,0,0,1,803.93,347.23Z" transform="translate(-450.88 -115.5)"/><path class="cls-2" d="M797,123.37c2,4.81-1.67,7.3-5.19,9.53a6.53,6.53,0,0,0-1.13,1.21c.49-.18,1-.37,1.48-.53l1.7-.48a7.42,7.42,0,0,1-1.12,1.5c-5.74,4.44-12.19,6-19.18,4-2.42-.7-2.75-.16-2.78,2-.28,21-.76,41.93-.89,62.9,0,5.93-.72,8.83-8.22,9.8-13.8,1.78-28.17,2.67-40.61,10.35-.94.59-2,.9-2.91-.1s.22-1.62.38-2.42c.06-.27,2.23-1.85-.44-1-.23.07-.56-.18-.84-.29l1.7-2.19c.55-.69,2.27-1,1.46-2.08s-1.06.74-1.73.88c-1.68.36-1.47-.88-1.35-1.82,2.68-20.38,2.68-40.83,1.77-61.32a12.76,12.76,0,0,1,.47-2.69c.21.89.47,1.78.6,2.68s.13,1.75.19,2.63c0-.9.11-1.79.09-2.69-.14-5.4-.49-10.81-.39-16.21.14-8,5.95-14.87,12.61-15.29a7.9,7.9,0,0,1,2,.4,8.09,8.09,0,0,1-1.61.86,13,13,0,0,0-7.53,4.75c2-1.15,4.08-2.28,6.12-3.44,3.85-2.18,7.89-3.54,12.43-3,4.88.58,5.23,5,6.57,8.18.92,2.22.58,4.68-2.63,5.84-2,.72-3.6,2.51-5.37,3.82a3.12,3.12,0,0,0-.47.49,2.69,2.69,0,0,0,.87-.14c.87-.45,1.72-.94,2.57-1.45,1-.62,2.06-1.28,3.09-1.92a18.26,18.26,0,0,1-2.54,3.14c-5.12,4.05-11.1,5-17.39,4.38-2.72-.27-3.89-.1-3.93,3.41-.19,19.49-.75,39-1.27,58.46-.06,2.43.4,3.16,3,2.44,10.26-2.8,21.08-2.83,31.22-6.48,4.67-1.68,6.34-4.31,6.63-9.3.83-13.91,1.53-27.8,1.38-41.74,0-5.73.42-11.51-.11-17.2-.66-7.17,3.79-10.34,8.77-13.86a20.6,20.6,0,0,1,9.72-3.76C790.53,114.81,794.75,117.91,797,123.37Z" transform="translate(-450.88 -115.5)"/><path class="cls-2" d="M797.2,347.64a5.93,5.93,0,0,1-1,1.46c-18.44,15.44-27.19,35-25.35,59.15a8.29,8.29,0,0,1-.45,2.2,7.33,7.33,0,0,1-1.05-2c-.41-2.82-.68-5.67-1-8.64,1.5-21,10.09-38.32,26.92-51.34A7.68,7.68,0,0,1,797.2,347.64Z" transform="translate(-450.88 -115.5)"/><path class="cls-2" d="M791.38,347.21a9.21,9.21,0,0,1-1.24,1.63c-15.35,13-23.71,29.32-23.72,49.63a8,8,0,0,1,0,1c-.29,2.19.72,4.49-.54,6.59-1.63-2.07-1.52-4.63-1.51-7,.08-21.22,8.92-38.19,25.32-51.4A4.89,4.89,0,0,1,791.38,347.21Z" transform="translate(-450.88 -115.5)"/><path class="cls-2" d="M783.6,347l.54.27a7.48,7.48,0,0,1-1.08,1.49c-12.8,10.66-20,24.2-20.94,40.89-.14,2.52.21,5.07.23,7.6a6.61,6.61,0,0,1-.59,1.95,6.32,6.32,0,0,1-.92-1.86c-2.11-16.66,3.76-30.68,14.49-43,2.3-2.63,5.16-4.76,7.76-7.11A2.38,2.38,0,0,1,783.6,347Z" transform="translate(-450.88 -115.5)"/><path class="cls-2" d="M780.46,341a9.57,9.57,0,0,1-1.16,1.56c-14.43,12.65-21.87,28.32-20.75,47.73a14.13,14.13,0,0,1-.36,2.8c-1.34-.48-1-1.77-1.15-2.69-.35-1.76-.43-3.57-.6-5.17,1.12-17.84,8.46-32.3,22.1-43.54A6.24,6.24,0,0,1,780.46,341Z" transform="translate(-450.88 -115.5)"/><path class="cls-2" d="M766.27,319.33c.27,1.26-1,1.24-1.74,1.55-11.43,4.81-17.16,13.2-17.35,25.15,0,1.67,1.14,4.64-1.3,4.74-2.2.08-1.7-3-2.18-4.84a6.51,6.51,0,0,1,0-1.71c.1-11.61,9.09-22.66,20.46-25.13C764.83,318.94,766.23,319.1,766.27,319.33Z" transform="translate(-450.88 -115.5)"/><path class="cls-2" d="M762,302.37l1.06.63a9.81,9.81,0,0,1-2,1.3c-9.62,3.54-17.94,8.82-23.33,17.83-7.57,12.68-7.18,25.64-1.23,38.81.54,1.2,2.37,3.11.49,4-1.42.68-2.35-1.62-3.14-2.88-13.6-21.83.55-54.34,25.8-59.31C760.34,302.64,761,302.54,762,302.37Z" transform="translate(-450.88 -115.5)"/><path class="cls-2" d="M758.66,280.34a15,15,0,0,1-2.31,1,57.42,57.42,0,0,0-22.41,9.52c-.76.53-1.78,1.39-2.62.4s.12-1.9.84-2.49a38.87,38.87,0,0,1,24-9.1A11,11,0,0,1,758.66,280.34Z" transform="translate(-450.88 -115.5)"/><path class="cls-2" d="M721.75,384.39a5.79,5.79,0,0,1-2.06-.12,9.91,9.91,0,0,1-4.47-4.75c-8.24-15.56-11.06-31.92-7-49.23a7,7,0,0,1,1.18-1.93l.5,1.08c-2.62,19.5.22,37.16,11.62,52.95C721.85,382.86,721.68,383.71,721.75,384.39Z" transform="translate(-450.88 -115.5)"/><path class="cls-2" d="M714.22,493.65c6.37,6.2,9.78,19.48,6.57,27.8-.11.27-.59,1.77-.78.52s-1.06-2.13-1.31-3.24a16.38,16.38,0,0,1-.05-3.35c-.12-1-.25-2.37-.48-3.74a17.71,17.71,0,0,0-.58-2.1c-.08.55-.12,1.11-.24,1.65,0,.16-.3.26-.46.39a3.75,3.75,0,0,1-.39-.87c-1.8-8.06-8.07-12.67-13.72-17.75a2.88,2.88,0,0,0-1-.38c0,.48,0,1,0,1.44,1,14,5.08,27.64,5.94,41.53.55,8.86,5.56,18.28-.82,27.14-2.95,4.1-16.84,9.39-20.88,7-3-1.8-5.66-5-5.68-8.74,0-5.26,3.16-9,7.55-11.59a28.5,28.5,0,0,1,13.4-3.59c1.65-.08,2.62-.58,2.37-2.53-2.5-18.91-5-37.82-7.37-56.76-.39-3.17-2.78-5.12-3.76-7.87a6.07,6.07,0,0,1,1.23-6.63c.92-1,2.09-.24,3,.18,3.16,1.51,3.54,5,5.23,7.49A90.08,90.08,0,0,0,714.22,493.65Z" transform="translate(-450.88 -115.5)"/><path class="cls-2" d="M694.28,266.05c-.59,2.51.75,6.2-1.68,6.52-1.9.24-1.53-3.61-1.67-5.64a148,148,0,0,0-8.75-41.17c-.25-.66-1-1.61.09-2.11.21-.1,1.18.91,1.5,1.56C690.16,238.18,693,252.05,694.28,266.05Z" transform="translate(-450.88 -115.5)"/><path class="cls-2" d="M693.76,292.47l.76,1.62c-.76,10.18-1.29,19.67-5,28.57-.34.81-.49,2.3-1.78,1.86s-.67-1.72-.49-2.61Q690,307.86,693,293.82A4.75,4.75,0,0,1,693.76,292.47Z" transform="translate(-450.88 -115.5)"/><path class="cls-2" d="M674,285.26a139.9,139.9,0,0,1-3,27.07,7.09,7.09,0,0,1-1,1.8,7.45,7.45,0,0,1-.3-1.95c2.19-17.56.81-35-1.66-52.4-.17-1.24-1.18-3.31.45-3.66s1.59,1.95,1.93,3.16A97,97,0,0,1,674,285.26Z" transform="translate(-450.88 -115.5)"/><path class="cls-2" d="M671.21,202.48c.65,1.06,2,2.75.35,3.64s-2.39-1.05-3-2.16a126.41,126.41,0,0,0-21.31-26.15,4.93,4.93,0,0,1-.91-1.62c0-.07.41-.35.64-.53a10,10,0,0,1,.94.59A102.7,102.7,0,0,1,671.21,202.48Z" transform="translate(-450.88 -115.5)"/><path class="cls-2" d="M664.17,242.75a1.59,1.59,0,0,1-3.1.72c-5.39-16.53-14.52-30.88-25.69-44-.31-.36-.27-1-.4-1.51a3.82,3.82,0,0,1,1.3.19C644.36,202.68,663.93,234,664.17,242.75Z" transform="translate(-450.88 -115.5)"/><path class="cls-2" d="M634.25,227.3c17,19.42,24.85,41.65,20.38,67.55a5.58,5.58,0,0,1-1.3,2.57c-1.61-.46-.66-1.88-.72-2.88-.13-2.37,0-4.75,0-8.53.88-20.46-5.69-39.92-18.93-57.24a8.45,8.45,0,0,1-.83-2.09C633.3,226.88,633.94,227,634.25,227.3Z" transform="translate(-450.88 -115.5)"/><path class="cls-2" d="M638.25,407c7.32-.06,11.8,6.63,8.88,13.26-3.9,8.86-9.92,12.59-19.67,12-2.3-.14-1.42,1.18-1.21,2.15,4.8,22,9.57,44,14.52,65.95.6,2.67-.52,4.83-2.3,5.07-2.12.28-1.41-2.71-2.16-4.1-6.13-11.27-4.82-24.13-7.94-36-3.36-12.82-6-25.84-9-38.74a7.55,7.55,0,0,1,.61-6.07C624.17,413.44,629.18,407.49,638.25,407Z" transform="translate(-450.88 -115.5)"/><path class="cls-2" d="M640.64,277.82c-.11-.09-.75.38-1.67.33-1.71-.09-2-1.41-2.1-2.79a63.51,63.51,0,0,0-9.19-29.93c-.82-1.38-3.12-3.63-2.14-4,1.88-.79,2.65,2,3.72,3.41C636.47,254.11,638.72,265.24,640.64,277.82Z" transform="translate(-450.88 -115.5)"/><path class="cls-2" d="M626.05,295.7c2,15.89-3.66,29.33-15.86,39.29C597,345.8,581.84,353.4,564.51,355.17c-8,.82-16-.27-22-6.73-1-1-1.73-1-2.94-.23-10.32,6.55-11.61,9.2-8.23,21.07a222.2,222.2,0,0,0,21.24,50.38c2.08,3.6,3.09,7.38,1.79,11.54a2.52,2.52,0,0,0,.29,1.81c7.09,11.68,10.74,24.63,14.76,37.57,4.19,13.5,10.23,26.41,15.15,39.69,17.41,47,30.65,95,35.1,145a333.88,333.88,0,0,1,.7,56.21c-.11,1.37-.09,2.71-2.07,2.58s-1.66-1.55-1.57-2.71C622,640.94,603.28,574.84,580,509.59q-5.79-16.2-11.83-32.31c-.35-.94-.67-3.7-1.93-2.36-1.76,1.88-7,1.38-5.19,5.82,10.07,24.31,19.5,48.85,27.3,74,13.07,42.14,22,85,22.24,129.34.05,9.25-.37,18.5-.57,27.74,0,1.41-.43,2.36-2.13,2.32-1.85,0-1.58-1.29-1.5-2.41C611.27,646,594.82,584,573,522.92c-4.57-12.81-9.76-25.41-13.94-38.34-1.69-5.23-6.86-6.37-9.34-10.67-5.32-9.21-11.72-17.79-17.42-26.78-3-4.8-8-7.46-11.77-11.33-26.25-26.67-51.85-53.85-63.89-90.47-5.35-16.29-7.29-33.06-4.6-50.21,4.07-25.92,21.4-39.88,44-49,5-2,10.3-3.24,15.44-4.91a4.35,4.35,0,0,0,2.38-1.49c8.37-15.17,22.48-20.49,38.49-22.46,5.52-.68,11.09-.94,16.63-1.39,16.66-1.41,27.59,6.68,35.94,20.3A147.56,147.56,0,0,1,626.05,295.7Zm-27.92,40.74c13.63-8.69,23.4-19.72,22.39-37.31-1.35-23.52-8.91-45-20.76-65.17a25.71,25.71,0,0,0-18-12.71c-5.26-1-7.24,1.19-8.48,5.75A73.88,73.88,0,0,0,571.3,257a8.6,8.6,0,0,1-.14,1.81,6.4,6.4,0,0,1-.81-1.58,65.41,65.41,0,0,1,2.59-34.13l.55-1.56A11.66,11.66,0,0,0,572,222.6c-6.71,6.59-6.42,15.21-6.75,23.63,0,2.21,0,4.42,0,6.64a3,3,0,0,1-.43,1c-.23-.28-.63-.54-.66-.84-1.22-10.1-1.79-20.13,3.53-29.45.49-.87.92-1.78,1.39-2.67a4.61,4.61,0,0,0-3.76,1.48c-.51.63-1,1.29-1.46,2-4.3,6.47-4.15,13.8-4.1,21.12a6.07,6.07,0,0,1-.52,1.74c-.25-.45-.7-.89-.74-1.36-.55-7.22-.9-14.42,2.39-21.21.41-.84.66-1.75,1-2.63-1.19.18-2.55.07-3.5.64a7,7,0,0,0-2.25,2.81,24.37,24.37,0,0,0-2.75,11.85,5.78,5.78,0,0,1-.69,1.89,7,7,0,0,1-.76-1.89,27.93,27.93,0,0,1,1.64-11.84,8.24,8.24,0,0,0,.2-1.87,5.54,5.54,0,0,0-2.08.05c-3.42,1.49-3.75,4.9-4.65,7.9-.65,2.19-1.09,4.44-1.62,6.67-1.17-2.72-.33-5.39.24-8.05.39-1.84.86-3.66,1.29-5.49-3.13.42-3.67,3.16-4.77,5.38-.25.51-.33,1.11-.62,1.6-.87,1.5-.91,5-1.77,4.48-1.92-1.1-.14-3.63-.1-5.57,0-1.22,1.58-3.14.38-3.38a3.93,3.93,0,0,0-4.4,2.77c-.36,1.17-.5,2.42-.93,3.55s.2,3.72-1.47,3.53c-1.29-.14-.47-2.57-.6-4-.06-.76,0-1.53-.06-2.3a20.46,20.46,0,0,0-2.1,1.17c-8.51,6-12.57,14.45-12.91,24.74-.61,18.37,4.95,35.4,11.6,52.16,4.92,12.39,8.83,25.36,18.83,35,3,2.86,6.18,6.11,10.69,5.85C573,348.84,586.11,344.11,598.13,336.44ZM558.21,474.36c5.33.11,8.62-4.6,6.59-9.4a209.31,209.31,0,0,0-12.71-25.2c-1.47-2.48-2.24-3.87-5.16-1.51a18.37,18.37,0,0,1-9.29,3.63c-2.44.32-2.09,1.24-1.07,2.78q9,13.65,17.85,27.34A4.46,4.46,0,0,0,558.21,474.36ZM534.49,437c12.77-.24,17.59-7.84,11.43-18.56a212.22,212.22,0,0,1-19.35-45.58c-4.57-15.41-2.82-20,10.63-28.42,1.17-.74.52-1.21.15-1.94-2.45-4.78-8.37-3.43-11.62-6.55-5.39-5.2-8.44-1.55-11.44,2.66-9,12.67-6.66,26-1.72,39.19,5.27,14.12,13.57,26.48,23.19,38a13.72,13.72,0,0,1,1.35,2.44,12.31,12.31,0,0,1-2.14-1.6c-3.09-3.61-6.15-7.24-9.13-10.94-1-1.21-1.64-1.69-2.77-.16-2.78,3.75-5.66,7.43-8.48,11.15-.53.7-1.39,1.61-.42,2.33s1.35-.54,1.83-1.08c2.51-2.92,5-5.9,7.48-8.8a3.82,3.82,0,0,1,1.67-1.06c.8.85-.11,1.49-.54,2.07-2.51,3.34-5.08,6.64-7.63,9.94-.54.7-1.39,1.32-.67,2.34.42.59.91,1.13,1.37,1.69.73-.71,1.47-1.41,2.17-2.14s1.48-1.62,2.21-2.43c.44,1.46-1,2.05-1.44,3.11-.5,1.24-2.16,2-1.66,3.62C520.68,431.86,528.39,437.15,534.49,437Zm-11-34.2a7.69,7.69,0,0,0-1.2-1.77c-.83-.61-1.09.32-1.45.78-2.21,2.82-4.58,5.53-6.54,8.52-1,1.59-4.24,3.45-2.23,5.07,1.62,1.3,2.59-2.28,4-3.56a40.18,40.18,0,0,0,3.43-4.13C520.74,406.12,522.06,404.5,523.44,402.83Zm-6.5,1.19c3.77-3.47,3.95-6.5.83-10.55-2.16-2.81-3.5-6.27-5.08-9.5-.73-1.49-1.3-1.63-2.39-.35-3.14,3.66-6.3,7.31-9.54,10.9-1.54,1.71-.3,3.14.64,4.07,1.26,1.26,1.61-.7,2.22-1.29,1.61-1.51,3-3.24,4.56-4.81a11.08,11.08,0,0,1,1.91-1.26,8.45,8.45,0,0,1-.83,2.07,82,82,0,0,1-5.31,6.43c-1.49,1.56-.77,2.92.32,3.79,1.45,1.15,1.52-.86,2-1.48,1.67-2.23,3.09-4.63,4.69-6.9.46-.65.75-1.85,1.92-1.35a5.07,5.07,0,0,1-.6,2.33c-1.69,2.8-3.48,5.55-5.28,8.28-.58.88-1.71,1.79-.58,2.73s1.56-.68,2.07-1.25c2.07-2.32,4-4.8,6-7.15a5.1,5.1,0,0,1,2-1.35c.9.9-.09,1.62-.57,2.27-2.23,3-4.53,6-6.85,9a2,2,0,0,0-.12,2.69,11.66,11.66,0,0,0,1.08,1.15C512.35,409.52,514.32,406.42,516.94,404Zm-.46-73c1.18-.9.73-1.45,0-2.34-11.32-14.07-16.54-30.41-18-48.15a41.68,41.68,0,0,1,2.57-14.75c.27-.73.25-2,1.54-1.71.23.06.26,1.41.18,2.15-.44,4-.94,7.95-1.4,11.93a4,4,0,0,0,.1,1c.18-.09.49-.13.54-.26,2.19-5.86,7-10.71,7.46-17.17.37-5,.42-10,1.74-14.83a6.56,6.56,0,0,0,0-1.6,9.59,9.59,0,0,0-1.39.4c-7.58,3.5-15.09,7.17-22.77,10.47-8.17,3.51-12,9.34-12.41,18.34-.54,11.71-1.46,23.38-.4,35.09a9.77,9.77,0,0,1-.39,2.41,14.94,14.94,0,0,1-.76-2.47c-1.75-13.72-2.05-27.42.32-41.11a5.89,5.89,0,0,0-.25-1.83,5.38,5.38,0,0,0-1.56.95,75.26,75.26,0,0,0-6,7.76c-11.17,18.39-11.23,38.22-6.44,58.26,7.46,31.17,25.44,56.45,46.26,80a19.51,19.51,0,0,0,1.7,1.57,21.22,21.22,0,0,0-.94-2.19c-13.15-22.68-24.54-46.14-31.66-71.48a13.66,13.66,0,0,1-.23-2.73,14.68,14.68,0,0,1,1.29,2.18c6.24,16.3,12.23,32.73,20.48,48.18q.62,1.17,1.26,2.34c.4.73.61,3,2.17,1.45a158,158,0,0,0,10.83-11.73c1.34-1.63,0-3.91-1.23-5.05-.93-.87-1.56,1.15-2.19,1.95-2.53,3.22-4.94,6.53-7.43,9.78-.52.68-1.17,1.8-2.12,1.1a1.2,1.2,0,0,1-.33-.36c-.37-.65.37-1.4.8-2,3.18-4.06,6.33-8.15,9.64-12.1a3.18,3.18,0,0,0-.08-4.44c-.89-.87-1.52,1-2.14,1.78-1.86,2.18-3.53,4.52-5.39,6.71-.67.78-1.46,2.46-2.58,1.56s.34-2.11,1-2.89a67,67,0,0,1,7.26-8.31c2.49-2.23.53-4.38.66-6.54,0-.33-.3-.68-.47-1-.95,1.2-1.93,2.38-2.86,3.6s-1.73,2.62-2.77,3.76c-1.33,1.45-2,3.62-4.19,4.18-.48-2.47,1.46-3.88,2.75-5.26,4.8-5.14,7.9-10.54,8-18.07S510.34,335.66,516.48,331Zm-8.94-42.23c3.06-6.16,5.51-12.36,2.88-19.35-.17-.45-.28-.93-.42-1.39-.23.15-.55.25-.66.46a83.83,83.83,0,0,0-7,17.53,2.53,2.53,0,0,0,.13.92c.15-.28.33-.54.46-.83,1.42-3.13,2.78-6.28,4.28-9.37.34-.71,1.16-1.19,1.75-1.78.8,1,0,1.71-.4,2.44a50.44,50.44,0,0,0-4.82,16.64l.89,2.83c.38-.92.81-1.81,1.14-2.75A43.61,43.61,0,0,1,507.54,288.79Z" transform="translate(-450.88 -115.5)"/><path class="cls-3" d="M620.52,299.13c1,17.59-8.76,28.62-22.39,37.31-12,7.67-25.12,12.4-39.42,13.24-4.51.26-7.71-3-10.69-5.85-10-9.61-13.91-22.58-18.83-35-6.65-16.76-12.21-33.79-11.6-52.16.34-10.29,4.4-18.7,12.91-24.74a20.46,20.46,0,0,1,2.1-1.17c0,.77,0,1.54.06,2.3.13,1.41-.69,3.84.6,4,1.67.19,1-2.27,1.47-3.53s.57-2.38.93-3.55a3.93,3.93,0,0,1,4.4-2.77c1.2.24-.35,2.16-.38,3.38,0,1.94-1.82,4.47.1,5.57.86.49.9-3,1.77-4.48.29-.49.37-1.09.62-1.6,1.1-2.22,1.64-5,4.77-5.38-.43,1.83-.9,3.65-1.29,5.49-.57,2.66-1.41,5.33-.24,8.05.53-2.23,1-4.48,1.62-6.67.9-3,1.23-6.41,4.65-7.9a5.54,5.54,0,0,1,2.08-.05,8.24,8.24,0,0,1-.2,1.87,27.93,27.93,0,0,0-1.64,11.84,7,7,0,0,0,.76,1.89,5.78,5.78,0,0,0,.69-1.89,24.37,24.37,0,0,1,2.75-11.85,7,7,0,0,1,2.25-2.81c1-.57,2.31-.46,3.5-.64-.33.88-.58,1.79-1,2.63-3.29,6.79-2.94,14-2.39,21.21,0,.47.49.91.74,1.36a6.07,6.07,0,0,0,.52-1.74c0-7.32-.2-14.65,4.1-21.12.45-.68.95-1.34,1.46-2a4.61,4.61,0,0,1,3.76-1.48c-.47.89-.9,1.8-1.39,2.67-5.32,9.32-4.75,19.35-3.53,29.45,0,.3.43.56.66.84a3,3,0,0,0,.43-1c0-2.22,0-4.43,0-6.64.33-8.42,0-17,6.75-23.63a11.66,11.66,0,0,1,1.48-1.11l-.55,1.56a65.41,65.41,0,0,0-2.59,34.13,6.4,6.4,0,0,0,.81,1.58,8.6,8.6,0,0,0,.14-1.81A73.88,73.88,0,0,1,573.23,227c1.24-4.56,3.22-6.76,8.48-5.75a25.71,25.71,0,0,1,18,12.71C611.61,254.09,619.17,275.61,620.52,299.13ZM615,300.78c.61-1.2,1.1-2.61.2-3.72s-1.61.23-2.38.68c-1,.59-.51-.27-.47-.59a28.46,28.46,0,0,0,.52-4.37,29,29,0,0,0-.85-4.46c-1.4,1.28-.25,2.89-.55,4.33s-.21,3-.74,4.31a16.22,16.22,0,0,1-2.38,3.3c.11-1.1.21-2.2.33-3.31a8.24,8.24,0,0,0,.22-2.18c-.27-1.56,0-3.31-1.45-4.5,0,1.29,0,2.58,0,3.87a7.22,7.22,0,0,1-.2,2.19c-.46,1.32-.63,3.73-2.14,3.34s.15-2.16.27-3.33c.23-2.21.61-4.39-.84-6.35-1.79,1.35,0,3.22-.68,4.74-.46,1-.91,2-1.36,3a3.94,3.94,0,0,1-1.22-.58c-1-1.05,0-1.94.28-2.91a10.31,10.31,0,0,0,.52-3.35,10.45,10.45,0,0,0-1.14-2.81c-1.24.71-.16,1.78-.42,2.63-.35,1.14-.4,2.95-1.11,3.26-1.32.58-1.64-1.23-2.15-2.09a61.17,61.17,0,0,1-3.88-7.39c-1.41-3.33-3-6.66-3.14-10.39,2.92,2.4,4.68,5.6,6.29,8.91.31.64.61,1.63,1.51,1.08.35-.2.4-1.33.21-1.92a23.9,23.9,0,0,0-5.62-9.41c-.61-.64-2.12-1.39-1.18-2.28s1.74.68,2.29,1.32a30.42,30.42,0,0,1,5.26,9.38c.25.66,1.1,1.71,1.39,1.62,1.09-.32.55-1.31.41-2.07a25.72,25.72,0,0,0-4.89-10.36c-.44-.6-1.5-1.38-.59-2.06,1.23-.91,1.52.7,1.8,1.27,1.81,3.66,3.44,7.41,5.18,11.1a7.89,7.89,0,0,0,1.28,1.52,6,6,0,0,0,.33-2,35.9,35.9,0,0,0-5.35-12.85c-.43-.68-1.13-1.54-.23-2.16,1.1-.76,1.32.53,1.7,1.13a50.89,50.89,0,0,1,5.36,12.09,5.4,5.4,0,0,0,1,1.69c1.08-.49.45-1.39.31-2.1a46.06,46.06,0,0,0-5.16-13.49c-.3-.52-.44-1.68-.16-1.89,1-.79,1.42.37,1.73,1,2.07,4.18,4.06,8.4,6.13,12.58a6.55,6.55,0,0,0,1.36,1.43,5.73,5.73,0,0,0-.11-1.82c-2.28-5.34-4.57-10.69-7-16-.46-1-.93-1.82.18-2.52,1.33-.84,1.76.44,2.17,1.21,2.08,4,4.07,8,6.12,12a7.21,7.21,0,0,0,.83,1.1,4,4,0,0,0,.13-1.47c-3.48-10.66-8-20.79-15.25-29.5-3.79-4.55-8.93-4-11.71,1.25a29.69,29.69,0,0,0-3.22,16,61,61,0,0,0,2.1,17.73c2.59,9.8,6.67,18.87,14.23,25.92C604.26,306.46,612.4,305.9,615,300.78ZM599.4,318.14c.37.1.84-.15,1.26-.24a5.42,5.42,0,0,0-1-1.55c-6.41-5.11-12-10.91-15.28-18.58-.16-.35-.68-.55-1-.83-.11.28-.23.56-.25.61C583.38,302.38,595.07,317,599.4,318.14Zm-2.62,10c.13,0,.35-.42.93-1.17-.75-.5-1.45-.93-2.12-1.41-13.06-9.29-21.48-21.81-25.87-37.15-.12-.43-.63-.75-1-1.13a5.68,5.68,0,0,0-.09,1.63,61.69,61.69,0,0,0,6.46,16.67c5.05,8.72,10.86,16.8,19.81,22A5.46,5.46,0,0,0,596.78,328.17Zm-1.23-8.95c.85-1.08-.59-1.68-1.25-2.24a58,58,0,0,1-19.65-31.19,23.13,23.13,0,0,0-1-2.5,19.28,19.28,0,0,0,0,2.85,56.8,56.8,0,0,0,19.39,32.41C593.75,319.14,594.73,320.24,595.55,319.22Zm-8.57,8c.51.45,1.29,1.26,1.94-.18-.44-.56-.85-1.16-1.34-1.69-2.65-2.79-5.49-5.41-8-8.35a93,93,0,0,1-17-30.76,7.6,7.6,0,0,0-1-1.56c-.11.41-.42.87-.32,1.21C566,302.11,574.29,316.07,587,327.27Zm-2.23,5.47c1.08-1-.51-2-1.16-2.8-13.57-16-23.46-33.87-28.07-54.47-.13-.59-.44-1.14-1.23-3.15a23.54,23.54,0,0,0,0,3.44c4.57,20.86,13.12,39.74,27.81,55.53C582.81,332,583.66,333.73,584.75,332.74Zm-4.31,4.5c1.19-1-.14-1.93-.74-2.66a158.43,158.43,0,0,1-31.81-64.46,29.7,29.7,0,0,0-1.11-2.77,12.82,12.82,0,0,0-.25,2.66c5.4,24.46,15.21,46.82,31.61,66C578.72,336.7,579.42,338.08,580.44,337.24Zm-5.16,2.81c1.83-1.47-1.38-3.24-2.43-4.73-15.23-21.56-26.14-45-30.86-71.07a5.07,5.07,0,0,0-.91-1.48c-.16.42-.33.83-.58,1.45,3.61,26.78,14.7,50.51,30.41,72.29C572,338.07,573.67,341.35,575.28,340.05Zm-6.7,3.54c1-.91-.05-1.8-.63-2.53-17.82-22.28-29.14-47.29-31.9-75.9a8,8,0,0,0-.87-2.12c-.27.69-.55,1.37-.59,1.48,2.42,29.75,12.25,55.82,31.43,78.09C566.66,343.36,567.42,344.65,568.58,343.59Zm-10,1.62c1.18-.81-.24-2.23-.93-3.16-16.89-22.54-25.92-48-27.88-76A26.93,26.93,0,0,0,529,263a26.26,26.26,0,0,0-.38,3.22c.32,4.65.46,9.33,1.07,13.95a134.58,134.58,0,0,0,25.59,63.07C556.06,344.28,557,346.32,558.63,345.21Z" transform="translate(-450.88 -115.5)"/><path class="cls-2" d="M615.18,297.06c.9,1.11.41,2.52-.2,3.72-2.58,5.12-10.72,5.68-15.89.86-7.56-7.05-11.64-16.12-14.23-25.92a61,61,0,0,1-2.1-17.73A29.69,29.69,0,0,1,586,242c2.78-5.28,7.92-5.8,11.71-1.25,7.25,8.71,11.77,18.84,15.25,29.5a4,4,0,0,1-.13,1.47,7.21,7.21,0,0,1-.83-1.1c-2.05-4-4-8-6.12-12-.41-.77-.84-2.05-2.17-1.21-1.11.7-.64,1.51-.18,2.52,2.41,5.28,4.7,10.63,7,16a5.73,5.73,0,0,1,.11,1.82,6.55,6.55,0,0,1-1.36-1.43c-2.07-4.18-4.06-8.4-6.13-12.58-.31-.64-.68-1.8-1.73-1-.28.21-.14,1.37.16,1.89a46.06,46.06,0,0,1,5.16,13.49c.14.71.77,1.61-.31,2.1a5.4,5.4,0,0,1-1-1.69A50.89,50.89,0,0,0,600,266.38c-.38-.6-.6-1.89-1.7-1.13-.9.62-.2,1.48.23,2.16a35.9,35.9,0,0,1,5.35,12.85,6,6,0,0,1-.33,2,7.89,7.89,0,0,1-1.28-1.52c-1.74-3.69-3.37-7.44-5.18-11.1-.28-.57-.57-2.18-1.8-1.27-.91.68.15,1.46.59,2.06a25.72,25.72,0,0,1,4.89,10.36c.14.76.68,1.75-.41,2.07-.29.09-1.14-1-1.39-1.62a30.42,30.42,0,0,0-5.26-9.38c-.55-.64-1.23-2.32-2.29-1.32s.57,1.64,1.18,2.28a23.9,23.9,0,0,1,5.62,9.41c.19.59.14,1.72-.21,1.92-.9.55-1.2-.44-1.51-1.08-1.61-3.31-3.37-6.51-6.29-8.91.17,3.73,1.73,7.06,3.14,10.39a61.17,61.17,0,0,0,3.88,7.39c.51.86.83,2.67,2.15,2.09.71-.31.76-2.12,1.11-3.26.26-.85-.82-1.92.42-2.63a10.45,10.45,0,0,1,1.14,2.81,10.31,10.31,0,0,1-.52,3.35c-.25,1-1.3,1.86-.28,2.91a3.94,3.94,0,0,0,1.22.58c.45-1,.9-2,1.36-3,.71-1.52-1.11-3.39.68-4.74,1.45,2,1.07,4.14.84,6.35-.12,1.17-1.86,2.93-.27,3.33s1.68-2,2.14-3.34a7.22,7.22,0,0,0,.2-2.19c0-1.29,0-2.58,0-3.87,1.41,1.19,1.18,2.94,1.45,4.5a8.24,8.24,0,0,1-.22,2.18c-.12,1.11-.22,2.21-.33,3.31a16.22,16.22,0,0,0,2.38-3.3c.53-1.32.43-2.88.74-4.31s-.85-3,.55-4.33a29,29,0,0,1,.85,4.46,28.46,28.46,0,0,1-.52,4.37c0,.32-.56,1.18.47.59C613.57,297.29,614.22,295.86,615.18,297.06Z" transform="translate(-450.88 -115.5)"/><path class="cls-2" d="M600.66,317.9c-.42.09-.89.34-1.26.24-4.33-1.13-16-15.76-16.29-20.59,0-.05.14-.33.25-.61.35.28.87.48,1,.83,3.31,7.67,8.87,13.47,15.28,18.58A5.42,5.42,0,0,1,600.66,317.9Z" transform="translate(-450.88 -115.5)"/><path class="cls-2" d="M598.45,139.88c9.77,6.31,9.83,17.57-.22,23.51-5.24,3.09-11,4.11-17.29,4.31-6.3-.46-13-1-16.35-8-2.76-5.75-1-11,3-15.37,5.46-5.94,12.61-8.11,20.47-7.49A21.24,21.24,0,0,1,598.45,139.88Zm-4.74,10.91c0-8.77-3.08-10.3-12.19-7-6,2.15-8.49,7-6.42,12.74,2.2,6.05,8.19,9,13.83,6.8a38.24,38.24,0,0,0,4.46-2.48c-1.43.39-2.86.81-4.31,1.16a18.77,18.77,0,0,1-3.14.55,7.75,7.75,0,0,1-2-.45c.53-.4,1-1.06,1.59-1.15C591.94,159.88,592.73,154.77,593.71,150.79Z" transform="translate(-450.88 -115.5)"/><path class="cls-2" d="M597.71,327c-.58.75-.8,1.19-.93,1.17a5.46,5.46,0,0,1-1.83-.54c-9-5.22-14.76-13.3-19.81-22a61.69,61.69,0,0,1-6.46-16.67,5.68,5.68,0,0,1,.09-1.63c.32.38.83.7,1,1.13,4.39,15.34,12.81,27.86,25.87,37.15C596.26,326.07,597,326.5,597.71,327Z" transform="translate(-450.88 -115.5)"/><path class="cls-2" d="M594.3,317c.66.56,2.1,1.16,1.25,2.24s-1.8-.08-2.5-.67a56.8,56.8,0,0,1-19.39-32.41,19.28,19.28,0,0,1,0-2.85,23.13,23.13,0,0,1,1,2.5A58,58,0,0,0,594.3,317Z" transform="translate(-450.88 -115.5)"/><path class="cls-2" d="M588.92,327.09c-.65,1.44-1.43.63-1.94.18-12.69-11.2-21-25.16-25.67-41.33-.1-.34.21-.8.32-1.21a7.6,7.6,0,0,1,1,1.56,93,93,0,0,0,17,30.76c2.46,2.94,5.3,5.56,8,8.35C588.07,325.93,588.48,326.53,588.92,327.09Z" transform="translate(-450.88 -115.5)"/><path class="cls-2" d="M583.59,329.94c.65.76,2.24,1.83,1.16,2.8s-1.94-.71-2.63-1.45c-14.69-15.79-23.24-34.67-27.81-55.53a23.54,23.54,0,0,1,0-3.44c.79,2,1.1,2.56,1.23,3.15C560.13,296.07,570,314,583.59,329.94Z" transform="translate(-450.88 -115.5)"/><path class="cls-2" d="M579.7,334.58c.6.73,1.93,1.69.74,2.66-1,.84-1.72-.54-2.3-1.21-16.4-19.2-26.21-41.56-31.61-66a12.82,12.82,0,0,1,.25-2.66,29.7,29.7,0,0,1,1.11,2.77A158.43,158.43,0,0,0,579.7,334.58Z" transform="translate(-450.88 -115.5)"/><path class="cls-2" d="M572.85,335.32c1,1.49,4.26,3.26,2.43,4.73-1.61,1.3-3.24-2-4.37-3.54-15.71-21.78-26.8-45.51-30.41-72.29.25-.62.42-1,.58-1.45a5.07,5.07,0,0,1,.91,1.48C546.71,290.36,557.62,313.76,572.85,335.32Z" transform="translate(-450.88 -115.5)"/><path class="cls-2" d="M568,341.06c.58.73,1.64,1.62.63,2.53-1.16,1.06-1.92-.23-2.56-1-19.18-22.27-29-48.34-31.43-78.09,0-.11.32-.79.59-1.48a8,8,0,0,1,.87,2.12C538.81,293.77,550.13,318.78,568,341.06Z" transform="translate(-450.88 -115.5)"/><path class="cls-3" d="M564.8,465c2,4.8-1.26,9.51-6.59,9.4a4.46,4.46,0,0,1-3.79-2.36q-8.92-13.67-17.85-27.34c-1-1.54-1.37-2.46,1.07-2.78a18.37,18.37,0,0,0,9.29-3.63c2.92-2.36,3.69-1,5.16,1.51A209.31,209.31,0,0,1,564.8,465Z" transform="translate(-450.88 -115.5)"/><path class="cls-2" d="M557.7,342.05c.69.93,2.11,2.35.93,3.16-1.6,1.11-2.57-.93-3.34-2a134.58,134.58,0,0,1-25.59-63.07c-.61-4.62-.75-9.3-1.07-13.95A26.26,26.26,0,0,1,529,263a26.93,26.93,0,0,1,.81,3.08C531.78,294.09,540.81,319.51,557.7,342.05Z" transform="translate(-450.88 -115.5)"/><path class="cls-3" d="M545.92,418.47c6.16,10.72,1.34,18.32-11.43,18.56-6.1.12-13.81-5.17-15.53-10.72-.5-1.63,1.16-2.38,1.66-3.62.43-1.06,1.88-1.65,1.44-3.11-.73.81-1.45,1.64-2.21,2.43s-1.44,1.43-2.17,2.14c-.46-.56-.95-1.1-1.37-1.69-.72-1,.13-1.64.67-2.34,2.55-3.3,5.12-6.6,7.63-9.94.43-.58,1.34-1.22.54-2.07a3.82,3.82,0,0,0-1.67,1.06c-2.53,2.9-5,5.88-7.48,8.8-.48.54-.9,1.79-1.83,1.08s-.11-1.63.42-2.33c2.82-3.72,5.7-7.4,8.48-11.15,1.13-1.53,1.8-1.05,2.77.16,3,3.7,6,7.33,9.13,10.94a12.31,12.31,0,0,0,2.14,1.6,13.72,13.72,0,0,0-1.35-2.44c-9.62-11.52-17.92-23.88-23.19-38-4.94-13.23-7.29-26.52,1.72-39.19,3-4.21,6.05-7.86,11.44-2.66,3.25,3.12,9.17,1.77,11.62,6.55.37.73,1,1.2-.15,1.94-13.45,8.38-15.2,13-10.63,28.42A212.22,212.22,0,0,0,545.92,418.47Z" transform="translate(-450.88 -115.5)"/><path class="cls-3" d="M522.24,401.06a7.69,7.69,0,0,1,1.2,1.77c-1.38,1.67-2.7,3.29-4,4.91a40.18,40.18,0,0,1-3.43,4.13c-1.38,1.28-2.35,4.86-4,3.56-2-1.62,1.19-3.48,2.23-5.07,2-3,4.33-5.7,6.54-8.52C521.15,401.38,521.41,400.45,522.24,401.06Z" transform="translate(-450.88 -115.5)"/><path class="cls-3" d="M517.77,393.47c3.12,4,2.94,7.08-.83,10.55-2.62,2.4-4.59,5.5-7,8.45a11.66,11.66,0,0,1-1.08-1.15,2,2,0,0,1,.12-2.69c2.32-3,4.62-5.95,6.85-9,.48-.65,1.47-1.37.57-2.27a5.1,5.1,0,0,0-2,1.35c-2,2.35-3.92,4.83-6,7.15-.51.57-.79,2.32-2.07,1.25s0-1.85.58-2.73c1.8-2.73,3.59-5.48,5.28-8.28a5.07,5.07,0,0,0,.6-2.33c-1.17-.5-1.46.7-1.92,1.35-1.6,2.27-3,4.67-4.69,6.9-.47.62-.54,2.63-2,1.48-1.09-.87-1.81-2.23-.32-3.79a82,82,0,0,0,5.31-6.43,8.45,8.45,0,0,0,.83-2.07,11.08,11.08,0,0,0-1.91,1.26c-1.56,1.57-2.95,3.3-4.56,4.81-.61.59-1,2.55-2.22,1.29-.94-.93-2.18-2.36-.64-4.07,3.24-3.59,6.4-7.24,9.54-10.9,1.09-1.28,1.66-1.14,2.39.35C514.27,387.2,515.61,390.66,517.77,393.47Z" transform="translate(-450.88 -115.5)"/><path class="cls-3" d="M516.49,328.68c.72.89,1.17,1.44,0,2.34-6.14,4.64-9.7,11.14-9.79,18.52s-3.2,12.93-8,18.07c-1.29,1.38-3.23,2.79-2.75,5.26,2.22-.56,2.86-2.73,4.19-4.18,1-1.14,1.83-2.52,2.77-3.76s1.91-2.4,2.86-3.6c.17.34.49.69.47,1-.13,2.16,1.83,4.31-.66,6.54a67,67,0,0,0-7.26,8.31c-.63.78-2.08,2-1,2.89s1.91-.78,2.58-1.56c1.86-2.19,3.53-4.53,5.39-6.71.62-.73,1.25-2.65,2.14-1.78a3.18,3.18,0,0,1,.08,4.44c-3.31,3.95-6.46,8-9.64,12.1-.43.56-1.17,1.31-.8,2l-1,.52c-8.25-15.45-14.24-31.88-20.48-48.18a14.68,14.68,0,0,0-1.29-2.18,13.66,13.66,0,0,0,.23,2.73c7.12,25.34,18.51,48.8,31.66,71.48a21.22,21.22,0,0,1,.94,2.19,19.51,19.51,0,0,1-1.7-1.57c-20.82-23.55-38.8-48.83-46.26-80-4.79-20-4.73-39.87,6.44-58.26a75.26,75.26,0,0,1,6-7.76,5.38,5.38,0,0,1,1.56-.95,5.89,5.89,0,0,1,.25,1.83c-2.37,13.69-2.07,27.39-.32,41.11a14.94,14.94,0,0,0,.76,2.47,9.77,9.77,0,0,0,.39-2.41c-1.06-11.71-.14-23.38.4-35.09.42-9,4.24-14.83,12.41-18.34,7.68-3.3,15.19-7,22.77-10.47a9.59,9.59,0,0,1,1.39-.4,6.56,6.56,0,0,1,0,1.6c-1.32,4.86-1.37,9.85-1.74,14.83-.49,6.46-5.27,11.31-7.46,17.17-.05.13-.36.17-.54.26a4,4,0,0,1-.1-1c.46-4,1-7.95,1.4-11.93.08-.74.05-2.09-.18-2.15-1.29-.32-1.27,1-1.54,1.71a41.68,41.68,0,0,0-2.57,14.75C500,298.27,505.17,314.61,516.49,328.68Zm-15.86,5.58c.13-.21,0-.59,0-.88-.33.16-.76.23-1,.49q-7,8.83-13.91,17.7c-.39.49-.85,1.1.22,1.52a7.48,7.48,0,0,0,.79-.56C492.49,347.28,496.54,340.75,500.63,334.26Z" transform="translate(-450.88 -115.5)"/><path class="cls-3" d="M510.42,269.44c2.63,7,.18,13.19-2.88,19.35a43.61,43.61,0,0,0-1.79,5.35c-.33.94-.76,1.83-1.14,2.75l-.89-2.83a50.44,50.44,0,0,1,4.82-16.64c.37-.73,1.2-1.48.4-2.44-.59.59-1.41,1.07-1.75,1.78-1.5,3.09-2.86,6.24-4.28,9.37-.13.29-.31.55-.46.83a2.53,2.53,0,0,1-.13-.92,83.83,83.83,0,0,1,7-17.53c.11-.21.43-.31.66-.46C510.14,268.51,510.25,269,510.42,269.44Z" transform="translate(-450.88 -115.5)"/><path class="cls-3" d="M509.16,376.07c1.22,1.14,2.57,3.42,1.23,5.05a158,158,0,0,1-10.83,11.73c-1.56,1.55-1.77-.72-2.17-1.45s-.85-1.56-1.26-2.34l1-.52a1.2,1.2,0,0,0,.33.36c.95.7,1.6-.42,2.12-1.1,2.49-3.25,4.9-6.56,7.43-9.78C507.6,377.22,508.23,375.2,509.16,376.07Z" transform="translate(-450.88 -115.5)"/><path class="cls-2" d="M500.62,333.38c0,.29.14.67,0,.88-4.09,6.49-8.14,13-13.87,18.27a7.48,7.48,0,0,1-.79.56c-1.07-.42-.61-1-.22-1.52q6.93-8.86,13.91-17.7C499.86,333.61,500.29,333.54,500.62,333.38Z" transform="translate(-450.88 -115.5)"/><path class="cls-2" d="M493.63,504.64c3.22,8.67-4.21,20.76-18.82,20.5-3.87-.32-9.09,0-10.63-5.2-2-6.68,2.24-11.62,6.7-15.8,3.54-3.31,8.22-4.22,13.08-3.79l2.34.18a15.06,15.06,0,0,0-.61-2.53c-9.1-20.44-16.1-41.64-23.05-62.86a55.69,55.69,0,0,1-1.47-6.95c-.22-1.15-.82-2.56,1.24-2.72,1.61-.13,3.36-.67,4,1.6C473.91,453.49,484.09,478.94,493.63,504.64Zm-11.83,15c2.74-1.31,4-3.51,3.61-6.18.19-4.54-1.8-7.75-5.64-8.53s-6,2.46-7.74,5.38c-4,7,3.05,7.77,6.26,10.56C478.76,521.3,480.65,520.22,481.8,519.66Z" transform="translate(-450.88 -115.5)"/></svg>