<?xml version="1.0" encoding="UTF-8"?><svg id="Layer_1" xmlns="http://www.w3.org/2000/svg" viewBox="0 0 16 16"><path d="M10.79,12.91l-1.61-1.61c-1.82,.65-3.82-.3-4.47-2.12-.27-.76-.27-1.59,0-2.36l-2.06-2.06c-1.7,1.51-2.64,3.24-2.64,3.24,0,0,3,5.5,8,5.5,.96,0,1.91-.2,2.79-.59ZM5.21,3.09c.88-.38,1.83-.58,2.79-.59,5,0,8,5.5,8,5.5,0,0-.94,1.72-2.64,3.24l-2.06-2.06c.65-1.82-.3-3.82-2.12-4.47-.76-.27-1.59-.27-2.36,0l-1.61-1.61h0Z" fill="#fff"/><path d="M13.54,14.46L1.54,2.46l.92-.92L14.46,13.54l-.92,.92Z" fill="#fff"/></svg>