<svg id="Layer_1" data-name="Layer 1" xmlns="http://www.w3.org/2000/svg" viewBox="0 0 150.94 59.57"><defs><style>.cls-1{fill:#fff;}</style></defs><path class="cls-1" d="M717.79,398.52a.24.24,0,0,1-.32.08.5.5,0,0,0-.5,0c-.12.07-.27.15-.43,0s-.31,0-.45,0a8.29,8.29,0,0,1-1.7.29.4.4,0,0,1-.28-.08c-.09-.05-.19-.12-.28-.07-.68.41-1.41.15-2.12.17-.43,0-.85.07-1.28.07a6.57,6.57,0,0,1-1.65-.18,10.22,10.22,0,0,1-1.21-.31,2.64,2.64,0,0,1-1.49-2.67c0-.16,0-.32.07-.48a1.91,1.91,0,0,1,1-1.44,21.16,21.16,0,0,1,3.19-1.31c.91-.28,1.85-.5,2.73-.86.33-.14.69-.13,1-.26,1.31-.46,2.67-.78,4-1.12.62-.15,1.23-.35,1.84-.52a5.1,5.1,0,0,1,.94-.21,3.78,3.78,0,0,0,1.08-.3,16.28,16.28,0,0,1,2-.56c.87-.28,1.78-.39,2.67-.59a9.26,9.26,0,0,0,1-.32c.09,0,.18-.09.27-.11s.37.13.4-.1-.22-.2-.35-.28a3.25,3.25,0,0,0-.67-.39c-.36-.13-.42-.4-.44-.71a.46.46,0,0,1,.24-.51.42.42,0,0,1,.49.1,5.58,5.58,0,0,0,2.74,1.16,1,1,0,0,0,1.06-.14,1.24,1.24,0,0,1,.46-.13,6.79,6.79,0,0,0,2.43-1,1.44,1.44,0,0,1,.79-.27.38.38,0,0,0,.38-.39,4.47,4.47,0,0,0,.07-1.59.85.85,0,0,1,0-.42,3.15,3.15,0,0,0-.35-2.19,1.46,1.46,0,0,1-.12-.33c-.05-.48-.13-.55-.65-.57a8.34,8.34,0,0,1-1.8,0,5.19,5.19,0,0,1-1.88.22c-1.26.13-2.52.2-3.79.32s-2.37.16-3.55.27-2.49.17-3.73.33a14,14,0,0,1-2.14.2,1.14,1.14,0,0,0-.52.12.71.71,0,0,1-.57.07,2.61,2.61,0,0,0-1,.1c-1.46.16-2.92.29-4.36.57a5.62,5.62,0,0,1-1.24.09c-.38,0-.76.12-1.16.16-1.33.15-2.66.45-4,.53-1.12.07-2.19.35-3.29.49a9.88,9.88,0,0,0-1.62.16,8.22,8.22,0,0,1-1.65.25c-.24,0-.45.25-.63.2a.78.78,0,0,0-.67.07c-.05,0-.15,0-.23,0l-.42,0c-.43,0-.83.33-1.29.13-.8.62-1.77.23-2.65.44-.15,0-.32,0-.44.13a.35.35,0,0,1-.34.11c-.62-.22-1.17.21-1.77.22a3.33,3.33,0,0,1-1.22,0,.83.83,0,0,0-.46,0,1.34,1.34,0,0,1-.84,0c-.06,0-.2,0-.22,0-.2.38-.59.27-.9.35a.7.7,0,0,0-.6.56c-.38,1.21-1,2.35-1.42,3.53-.13.34-.37.47-.58.37s-.24-.26-.35-.4,0-.27.07-.41c.39-.94.76-1.88,1.1-2.84.06-.17.19-.48,0-.55s-.45-.38-.8-.29a9.69,9.69,0,0,1-1.87.09,1.77,1.77,0,0,1-.79-.23c-.06,0-.12-.08-.09-.14a.16.16,0,0,1,.14-.07,1.13,1.13,0,0,0,.85-.21.65.65,0,0,1,.34-.06,17,17,0,0,0,2.25-.21.72.72,0,0,0,.67-.58c.22-.76.48-1.51.66-2.29a5.73,5.73,0,0,1,.48-1.14c.32-.67.51-1.38.8-2.06a8,8,0,0,1,.77-1.4c.1-.17.11-.28,0-.42a5.39,5.39,0,0,1-1.25-3.79,1.19,1.19,0,0,0-.17-.5.83.83,0,0,1-.13-.57.7.7,0,0,1,.6-.5c.34,0,.41.22.51.49a6,6,0,0,1,.35,2c0,.31.25.53.3.84a6,6,0,0,0,.35,1c.06.13.14.21.31.05a7.85,7.85,0,0,0,.74-1.16c.47-.71.77-1.52,1.25-2.22,0-.05.05-.12.1-.15a4.72,4.72,0,0,0,1.33-1.58c.07-.14.23-.32.44-.17a.37.37,0,0,1,.13.52,5.28,5.28,0,0,1-.3.58,1.71,1.71,0,0,0-.33.86,1.81,1.81,0,0,1-.56.95,2.26,2.26,0,0,0-.63,1.06,2,2,0,0,1-.41.72,1.49,1.49,0,0,0-.43,1.08.21.21,0,0,1-.24.26c-.26,0-.35.18-.35.4a1,1,0,0,1-.27.59c-.4.55-.66,1.18-1,1.76s-.42,1.43-.92,2a.32.32,0,0,0-.08.22,1.63,1.63,0,0,1-.47,1.12.62.62,0,0,0-.16.62.64.64,0,0,1-.1.51c-.23.43-.17.56.33.58a6.08,6.08,0,0,0,1.6-.08c.92-.2,1.84-.28,2.76-.4,1.22-.16,2.42-.4,3.65-.51.7-.06,1.42-.18,2.12-.3s1.55-.17,2.31-.32c1.21-.24,2.45-.26,3.67-.47s2.51-.38,3.78-.52c.83-.09,1.65-.25,2.48-.34,1.19-.14,2.38-.27,3.56-.46s2.14-.18,3.19-.41c.5-.11,1,0,1.55-.12,1.22-.2,2.45-.25,3.66-.38.92-.11,1.85-.1,2.77-.24a14,14,0,0,1,2.43-.17,10.16,10.16,0,0,0,1.84-.16,30,30,0,0,1,4.53-.35,11.63,11.63,0,0,1,1.67-.13c.21,0,.33-.12.26-.35a1.32,1.32,0,0,0-.15-.39,4,4,0,0,1-.41-1c-.21-.63-.58-1.17-.81-1.79a6.77,6.77,0,0,0-.26-.71c-.1-.2-.22-.3-.42-.15-.71.52-1.13.16-1.57-.38a2.35,2.35,0,0,1-.51-1.85,11.3,11.3,0,0,1,0-1.16,1.13,1.13,0,0,1,1.19-1,2.75,2.75,0,0,1,.41,0,.49.49,0,0,0,.55-.2.73.73,0,0,1,1.28.26,2.36,2.36,0,0,1,.1,1.12,6.88,6.88,0,0,0,.34,3.33c.25.71.53,1.41.8,2.12s.53,1.24.78,1.87a.43.43,0,0,0,.41.29,5.91,5.91,0,0,0,.84,0c1-.1,2,0,3-.06a2.24,2.24,0,0,1,.89.09.38.38,0,0,0,.23,0,6.51,6.51,0,0,1,2.2,0,9.94,9.94,0,0,1,3.37.49,4.3,4.3,0,0,1,1.34.87.93.93,0,0,1,.24.6c0,.2-.27.24-.39.35a4.32,4.32,0,0,1-1,.5.25.25,0,0,1-.36-.09c-.11-.16,0-.25.13-.33.29-.18.67-.49.61-.75s-.59-.33-.93-.4a22.89,22.89,0,0,0-4.67-.45l-3.69.05a5.5,5.5,0,0,1-1.07-.07c-.51-.1-.74.14-.57.63a8.19,8.19,0,0,1,.39,1.49,6.68,6.68,0,0,1,0,2.56,1.35,1.35,0,0,0-.06.35.33.33,0,0,0,.27.33,3.89,3.89,0,0,0,1.17.16,2.32,2.32,0,0,1,.59.05c.08,0,.17,0,.17.13s-.1.11-.18.13a5.92,5.92,0,0,1-1.64.51,1.77,1.77,0,0,0-.83.42.31.31,0,0,0-.14.18c-.1.67-.65,1.06-1,1.57a1.36,1.36,0,0,1-1.35.59c-.85-.09-1.68-.3-2.54-.32a.6.6,0,0,1-.23-.06c-1.18-.62-2.33-.13-3.49.05-.49.07-.9.43-1.42.32a2,2,0,0,1-1.09.37,16.36,16.36,0,0,0-2.18.72c-.62.22-1.28.21-1.91.43-1.14.39-2.36.53-3.5,1s-2.3.68-3.45,1c-.45.13-.85.46-1.34.44a1.46,1.46,0,0,0-.89.26,4.1,4.1,0,0,1-1.38.56,19.74,19.74,0,0,0-1.9.75,3.09,3.09,0,0,0-.56.34,1.65,1.65,0,0,0-.7,1.45,1.06,1.06,0,0,0,.56,1,3.58,3.58,0,0,0,2.25.4.5.5,0,0,1,.45.06c.26.18.58,0,.86,0,.82-.09,1.63.12,2.44,0,1.09-.14,2.18-.2,3.27-.32a6.72,6.72,0,0,1,1.9-.09,3,3,0,0,0,.89-.12c.54-.09,1.1-.09,1.65-.19a4,4,0,0,1,1.14,0c.38,0,.75.25,1.16.1a.1.1,0,0,1,.12.1.19.19,0,0,1-.1.13,11.92,11.92,0,0,1-2.9.51c-.1,0-.24,0-.29.05-.33.34-.73.17-1.11.19a9.73,9.73,0,0,0-1.7.28l-.1,0Zm14.49-26.62a.92.92,0,0,0,0-.52.24.24,0,0,0-.38-.1,1.93,1.93,0,0,0-.11,1.58c.1.19.22.15.3,0A1.63,1.63,0,0,0,732.28,371.9Zm1.47,15.53,0,0a.1.1,0,0,0,0,0h0S733.74,387.44,733.75,387.43Zm-.45,0,0,0h0Z" transform="translate(-612 -345.17)"/><path class="cls-1" d="M618.05,352.59c-.08,0-.17,0-.19.11a.26.26,0,0,0,.07.15c.4.37.47,1,1,1.26.07,0,.1.17.15.26.28.63.76,1.15,1,1.79,0,.08.07.18.12.2.52.17.68.69,1,1.05.65.73,1.2,1.53,1.82,2.29.18.22.25.58.42.68a1.07,1.07,0,0,1,.59.89c0,.08.14.15.17.24.14.31.5.32.69.54.62.69,1.29,1.34,1.89,2a11.88,11.88,0,0,0,1.51,1.5,34.64,34.64,0,0,0,4.41,3.16c.13.08.32.14.32.32s.21.34.4.32.58.11.62.27c.09.4.35.36.62.38a.64.64,0,0,1,.27.11,14.09,14.09,0,0,0,1.45.92,3.18,3.18,0,0,1,1.32.9.35.35,0,0,0,.22.1c.6.05,1,.54,1.6.66.4.08.65.54,1,.63s.73.4,1.15.5a1.64,1.64,0,0,1,.65.23,3,3,0,0,0,1.34.62,1,1,0,0,1,.67.35.62.62,0,0,0,.56.27,2,2,0,0,1,1.17.51c.34.26.85.15,1.22.42l0,0a.31.31,0,0,0,.41.16.46.46,0,0,1,.39.1,8.15,8.15,0,0,0,1.84.68c2,.55,4,1,6,1.44,1.23.25,2.48.23,3.72.37A.45.45,0,0,0,660,379a2.63,2.63,0,0,1,.93-.39,2.4,2.4,0,0,0,1.52-1.23c.1-.24.37-.19.59-.21s.27.13.33.29a1,1,0,0,1,0,.95c-.25.43-.71.7-.9,1.17,0,.06-.14.08-.22.1a9.09,9.09,0,0,1-1.91.43,20,20,0,0,1-4.76-.44,36.71,36.71,0,0,1-4.47-1.06c-1.2-.38-2.38-.78-3.56-1.18-.57-.19-1.11-.45-1.67-.65-1-.33-1.85-.76-2.75-1.17s-1.72-.87-2.62-1.25a2.87,2.87,0,0,1-.54-.24c-.68-.42-1.41-.71-2.11-1.1s-1.42-.77-2.15-1.12c-.36-.17-.66-.44-1-.64-1.18-.67-2.34-1.35-3.48-2.08a33.29,33.29,0,0,1-3.14-2.26c-.39-.31-.82-.58-1.17-.92-1.06-1-1.9-2.24-3-3.25,0,0,0,0,0-.06a7.69,7.69,0,0,0-1.25-1.59c-1-1.12-1.89-2.3-2.79-3.49a6.71,6.71,0,0,1-.65-.84,10.88,10.88,0,0,0-1.07-1.82c-.38-.49-.7-1-1-1.51-.53-.83-.52-.84-1.51-.72-.56.07-.6.09-.62.66a8.09,8.09,0,0,0,.19,2.2,1.09,1.09,0,0,1-.44,1.36c-.26.18-.39.18-.59,0a.59.59,0,0,1-.2-.35,14,14,0,0,1-.11-1.83c0-.45,0-.91-.08-1.37,0-.19-.12-.28-.33-.21a2.84,2.84,0,0,1-.87.21c-.23,0-.44,0-.51-.29s-.1-.56.16-.7a8.08,8.08,0,0,1,1.21-.75.38.38,0,0,0,.28-.41,12.48,12.48,0,0,0-.15-2.73,2,2,0,0,0-.2-.93,2.29,2.29,0,0,1-.14-1.74c.09-.61.64-.78,1.16-.42l.3.19a8.18,8.18,0,0,1,1.63,1.1.93.93,0,0,0,.34.23c.49.18.88.52,1.34.74.69.32,1.33.76,2,1.15a2.82,2.82,0,0,0,.54.36,11.76,11.76,0,0,1,2,1c.71.37,1.41.74,2.14,1.05a4.35,4.35,0,0,1,1.63.83c.29.3.29.47,0,.78-.62.58-1.31.33-1.94.12a7,7,0,0,0-1.26-.29,3.82,3.82,0,0,1-.59-.09,8.9,8.9,0,0,0-2-.23Zm-3-2.19c.07.34,0,.73.13,1.08a.27.27,0,0,1,0,.11c.25.07.45-.19.73-.11.07,0,.08-.16,0-.25a1.6,1.6,0,0,0-.21-.5c-.45-.55-.2-1.19-.27-1.79a.1.1,0,0,1,.1-.12.26.26,0,0,1,.16.07,6.34,6.34,0,0,1,.51.73,12.14,12.14,0,0,0,.7,1.51.44.44,0,0,0,.58.23c.84-.22,1.74-.23,2.58-.5a2.31,2.31,0,0,1,.53,0,.2.2,0,0,0,.2-.1.18.18,0,0,0-.09-.2,2.2,2.2,0,0,0-.26-.15c-.47-.25-.94-.53-1.42-.76-1-.47-1.92-1.15-3-1.61-.39-.17-.71-.52-1.15-.67-.21-.07-.25,0-.22.2C615,348.46,614.82,349.45,615,350.4Z" transform="translate(-612 -345.17)"/><path class="cls-1" d="M702.78,376.1c0-.52.1-1,.09-1.55a7.13,7.13,0,0,0-.16-2.6c-.18-.49,0-.72.56-.63l.12,0c.2.07.37.31.6.18a1.35,1.35,0,0,0,.49-.59,1.44,1.44,0,0,1,1.06-.88,1.55,1.55,0,0,1,1.49.61c.26.34.38.74.62,1.09.13.19.23.26.38,0a9.45,9.45,0,0,1,.59-.82,1.87,1.87,0,0,1,.57-.51,1.09,1.09,0,0,1,1.62.44,5.92,5.92,0,0,1,.68,1.93,3,3,0,0,0,.6,1.59.6.6,0,0,0,.68.23c.25-.08.28-.31.26-.58a4.29,4.29,0,0,1,.35-2,1.77,1.77,0,0,1,.63-1,.94.94,0,0,1,.59-.24.28.28,0,0,0,.18,0,.71.71,0,0,1,.9,0,3.08,3.08,0,0,1,.65.65,11.12,11.12,0,0,1,.88,2.23c.11.25-.06.47-.08.7a6.35,6.35,0,0,1-.26,1.38,1.45,1.45,0,0,1-1.48,1.06,2.21,2.21,0,0,1-1.9-1.19c-.12-.19-.18-.33-.46-.18s-.52.4-.88.28a2,2,0,0,1-1-.76,2.75,2.75,0,0,1-.73-1.66c0-.51-.44-.8-.72-1.16-.08-.11-.17,0-.24,0a3,3,0,0,0-.51.81c-.25.47-.49.95-.7,1.44a2,2,0,0,0-.26.79,1.76,1.76,0,0,1-.6,1.14.53.53,0,0,1-.77,0,1.29,1.29,0,0,1-.26-1.61,4.54,4.54,0,0,0,.27-1.45,3.39,3.39,0,0,0-.68-1.69c-.05-.09-.2-.14-.26-.05s-.54.24-.47.62a.28.28,0,0,1-.08.22,2,2,0,0,0-.39,1.1c-.13,1-.29,1.92-.44,2.88a2.17,2.17,0,0,0,0,.36,1,1,0,0,1-.45,1.09c-.37.24-.67.26-.91-.12a1,1,0,0,1-.19-.62c0-.18,0-.36,0-.54Zm11.59-2.27a6.56,6.56,0,0,0,.23,1.19.66.66,0,0,0,1.29-.3,11.7,11.7,0,0,0-.62-2.34c-.08-.25-.17-.24-.38-.05A2.12,2.12,0,0,0,714.37,373.83Z" transform="translate(-612 -345.17)"/><path class="cls-1" d="M745.21,373.84c.11-.54,0-1.1.11-1.65s-.05-.86,0-1.29c0-.14,0-.28,0-.42.09-.55.25-.62.75-.34l.36.2a.49.49,0,0,0,.6-.12,4.33,4.33,0,0,0,.38-.47,1.61,1.61,0,0,1,2.3-.6c.16.1.33.2.38.37.1.36.43.61.49,1s.25.17.34,0c.21-.32.49-.57.71-.88a2.62,2.62,0,0,1,1.08-.81,1.31,1.31,0,0,1,1.34.56,6,6,0,0,1,1,2.79,2.76,2.76,0,0,1-.66,1.91.29.29,0,0,1-.47.05c-.16-.19-.47-.08-.56-.27s.16-.35.19-.54a4.35,4.35,0,0,0-.2-2.29c-.12-.32-.37-.38-.66-.2a3.66,3.66,0,0,0-1,1,2.12,2.12,0,0,0-.49.87,9.79,9.79,0,0,1-.41,1,1,1,0,0,1-.69.6.45.45,0,0,1-.6-.25,1.57,1.57,0,0,1-.17-1.15,4.85,4.85,0,0,0-.15-2c0-.07-.08-.13-.13-.2-.31-.4-.59-.42-.82,0s-.71,1-.94,1.64a10.68,10.68,0,0,0-.58,2,2.48,2.48,0,0,1-.23.73.55.55,0,0,1-.62.33c-.28,0-.41-.17-.48-.43A3,3,0,0,1,745.21,373.84Z" transform="translate(-612 -345.17)"/><path class="cls-1" d="M676.29,375.49c-.08-.58.06-1.09,0-1.61a13.36,13.36,0,0,1-.06-1.9c0-.33-.09-.43-.43-.4a8.39,8.39,0,0,0-1.33.22,4.61,4.61,0,0,1-1.85,0c-.53-.06-.75-.38-.65-.79a.4.4,0,0,1,.4-.37h.06a7.32,7.32,0,0,0,2.24-.21c.39-.05.77-.17,1.16-.26a.49.49,0,0,0,.39-.53,9.54,9.54,0,0,0,0-2.72,2.05,2.05,0,0,1,0-.89,26.76,26.76,0,0,0,.1-3.1,2.17,2.17,0,0,0,0-.36c0-.15-.15-.29,0-.44s.2-.4.44-.48a1.13,1.13,0,0,0,.48-.23.21.21,0,0,1,.28,0,.19.19,0,0,1,0,.26.94.94,0,0,0,0,.7,1.66,1.66,0,0,1,0,.7c0,.12-.05.29,0,.35.29.27.13.59,0,.83a3.55,3.55,0,0,0,0,1.45,9.87,9.87,0,0,1-.09,2,8.71,8.71,0,0,0,0,1.84c0,.23.15.33.37.24.56-.23,1.21-.16,1.75-.5.31.13.63,0,1,.06a.77.77,0,0,0,.16.07c.12,0,.28-.21.35,0a.56.56,0,0,1-.09.61c-.2.19-.34.36-.69.31a1.32,1.32,0,0,0-1,.28c-.33.25-.77.17-1.12.37a2.75,2.75,0,0,1-.5.2.26.26,0,0,0-.17.28,12.48,12.48,0,0,0,.12,2.44.25.25,0,0,1,0,.12c-.28,1,.1,1.93.06,2.9,0,.34-.2.65-.44.66a.74.74,0,0,1-.84-.66A7.47,7.47,0,0,1,676.29,375.49Z" transform="translate(-612 -345.17)"/><path class="cls-1" d="M760.31,368.19a4.4,4.4,0,0,1,1.3.19.86.86,0,0,1,.55.42.61.61,0,0,1-.07.81,4.69,4.69,0,0,1-1.92,1.37,2.85,2.85,0,0,1-1,.36c-.41,0-.49.37-.22.69a2.89,2.89,0,0,0,2.84,1,4,4,0,0,1,.77,0c.27,0,.38.15.38.42,0,.59,0,.58-.62.81a10.07,10.07,0,0,1-1.32.3.69.69,0,0,1-.35,0,5.71,5.71,0,0,1-2.81-1.6,1.14,1.14,0,0,0-.25-.24.88.88,0,0,1-.44-.86.47.47,0,0,0-.28-.5.59.59,0,0,1,0-1.07c.18-.11.23-.27.33-.42s.26-.68.53-.92a1.92,1.92,0,0,1,1.31-.62C759.48,368.3,759.89,368.15,760.31,368.19Z" transform="translate(-612 -345.17)"/><path class="cls-1" d="M720.61,371.2c0-.31.07-.63.06-.95a.93.93,0,0,1,.52-.85c.38-.24.68.09,1,.21s.15.23,0,.37a1,1,0,0,0-.4,1.26,5.59,5.59,0,0,1,0,2.54,5.38,5.38,0,0,0-.21,1.4,1,1,0,0,1-1.33.88,2.79,2.79,0,0,1-1.4-1.23,7.64,7.64,0,0,1-1-2.27c-.09-.5-.28-1-.33-1.49a.52.52,0,0,1,.37-.55.44.44,0,0,1,.55.25c.23.5.65.94.6,1.53,0,.36.28.51.38.79a2.78,2.78,0,0,0,.75,1.06c.13.11.19.1.26,0a1,1,0,0,0,.12-.46C720.43,372.82,720.58,372,720.61,371.2Z" transform="translate(-612 -345.17)"/><path class="cls-1" d="M681.91,375.16c-.06.64-.1,1.29-.19,1.93a1.22,1.22,0,0,1-.44.77c-.31.25-.61.25-.82-.09s-.49-.57-.45-1c0-.15-.09-.26-.14-.39a10.27,10.27,0,0,1-.7-2.09,1.2,1.2,0,0,0-.19-.43.35.35,0,0,1,0-.4c.1-.16.18-.39.4-.41a.47.47,0,0,1,.41.3,1.35,1.35,0,0,0,.39.43c.39.36.39.37.63-.07a2.35,2.35,0,0,0,.23-.48,5,5,0,0,1,1-1.84,1,1,0,0,1,.54-.33,2.09,2.09,0,0,1,1.66.14.89.89,0,0,1,.31.93.84.84,0,0,1-.84.29c-.53-.21-.78-.12-1,.36-.09.16-.15.33-.23.49a3.72,3.72,0,0,1-.38.67A1.58,1.58,0,0,0,681.91,375.16Z" transform="translate(-612 -345.17)"/><path class="cls-1" d="M725.31,373.52a6.12,6.12,0,0,1,.31-2.3,4.33,4.33,0,0,1,.74-1.15c.14-.24.34-.43.5-.66a.72.72,0,0,1,.88-.31c.13,0,.29,0,.41.11a1.09,1.09,0,0,1,.62.78c.13.54,0,1.12.25,1.62a3.66,3.66,0,0,0,.05,1.58,1.55,1.55,0,0,0,.46,1.18c.13.1.11.2,0,.31s-.14.36-.42.36a1.12,1.12,0,0,1-1.15-1,5.12,5.12,0,0,1-.21-1.41,9.72,9.72,0,0,0-.07-1.42,1,1,0,0,0-.05-.29c-.11-.29-.31-.33-.54-.09a2,2,0,0,0-.55,1.09,5.49,5.49,0,0,0-.09,2,.75.75,0,0,1-.33.94.38.38,0,0,1-.22.07c-.18,0-.65-.57-.64-.76S725.3,373.77,725.31,373.52Z" transform="translate(-612 -345.17)"/><path class="cls-1" d="M723.64,371.41a1.7,1.7,0,0,1-.16.69,1.35,1.35,0,0,0-.05.93,6.9,6.9,0,0,0,.46,1.37,4,4,0,0,1,.21,1c.09.33-.25.41-.46.53s-.34,0-.52-.13c-.65-.55-.62-1.33-.76-2.06a.47.47,0,0,1,.08-.34c.25-.39.29-.87.5-1.27a.67.67,0,0,0,.06-.52,3,3,0,0,1-.07-.6c0-.24.16-.29.34-.33s.3.09.33.24A2.59,2.59,0,0,1,723.64,371.41Z" transform="translate(-612 -345.17)"/><path class="cls-1" d="M716.24,402.75a2,2,0,0,1,.37.06c.76.21.9.54.55,1.24,0,.09-.06.19-.18.22a5,5,0,0,0-1,.43.31.31,0,0,1-.47-.21c-.06-.26-.18-.49-.25-.74C715.16,403.32,715.73,402.71,716.24,402.75Z" transform="translate(-612 -345.17)"/><path class="cls-1" d="M723.43,368.27A.39.39,0,0,1,723,368a6,6,0,0,0-.39-1,.57.57,0,0,1,.09-.61.54.54,0,0,1,.49-.18c.21,0,.25.18.29.33s0,.43.08.65,0,.44.22.6.1.24,0,.38S723.59,368.28,723.43,368.27Z" transform="translate(-612 -345.17)"/><path class="cls-1" d="M740.6,384.64a1.1,1.1,0,0,0,.78,0,.28.28,0,0,1,.24.14c0,.12-.1.14-.18.18-.37.21-.8.24-1.18.42-.16.08-.26-.05-.38-.11s-.11-.16,0-.24A1.14,1.14,0,0,1,740.6,384.64Z" transform="translate(-612 -345.17)"/><path class="cls-1" d="M676.38,361.09c0-.29.13-.35.26-.32s.36.11.36.31-.15.21-.31.17S676.37,361.17,676.38,361.09Z" transform="translate(-612 -345.17)"/></svg>