<svg id="Layer_1" data-name="Layer 1" xmlns="http://www.w3.org/2000/svg" viewBox="0 0 569.74 485"><defs><style>.cls-1{fill:#e3c8ff;}.cls-2{fill:#c58cff;}.cls-3{fill:#fff;}</style></defs><ellipse class="cls-1" cx="332.24" cy="242.5" rx="237.5" ry="242.5"/><path class="cls-2" d="M799.13,369.36l-.1,2c-1.45,1.63-3.2,3.77-5.38,2.79-6.33-2.87-5.23,1.84-5.59,5.1-1.94,17.63-3.94,35.25-8.57,52.45-5.1,18.94-13.76,36.27-23.4,53.26-13.11,23.12-27,45.88-36.82,70.73-3.83,9.65-6.37,19.53-6.65,30-.06,2.09.4,2.41,2.27,2.71,6.12,1,11.55,8.14,12.16,15.67.57,7.06-2.25,11.6-9.41,13.93-10.83,3.51-22,3.09-33.07,1.61a9.43,9.43,0,0,0-5.18.37c-9.59,3.78-19.75,4.24-29.88,3.9-10.43-.34-14.66-7.8-17.5-16.51q-1.49-4.53-3.07-9c-5.05-14.39-10.57-28.62-14-43.54-.13-.59-.53-1.47-1-1.57-1.24-.3-1,1-1.25,1.62a143.3,143.3,0,0,1-13.42,25.58c-2,3-.21,3,1.91,2.79a23.14,23.14,0,0,1,17.24,5.14,24.13,24.13,0,0,1,7.91,10.86,19.26,19.26,0,0,1,.46,10.3c-1.8,8.33-8.69,12.23-16.25,14.71-6.36,2.08-13.1,2.2-19.68,2.89-10.57,1.12-21.2,1.6-31.81,2.35H537c-4.13-.39-8.3-.53-12.36-1.26-3.59-.65-7.48-1.69-9.22-5.28A92.26,92.26,0,0,1,506,585.57a160.22,160.22,0,0,1,6.69-53.08c.36-1.16,1.26-2.68.31-3.72s-2.21.07-3.2.51c-10.65,4.7-21.54,4.38-32.68,2s-19.68-8.54-26.92-16.86c-1.13-1.3-3.24-3.4-1.17-5.19s1-3.12.51-4.77c-1.13-4-4.49-6-7.58-8.17v-2c3.38-3.74,7.86-3.6,12-2.6s4-.29,3.1-3.57c-4.57-16.38-5.93-32.95-2.18-49.72a9.09,9.09,0,0,1,.48-1.93c.62-1.28.9-3.2,2.88-2.86,1.62.27,1.48,1.9,1.73,3.21a104.65,104.65,0,0,0,9.47,27.71c11.5,22.66,38.15,27.21,57.16,19.2a67.82,67.82,0,0,0,19.26-12.39,66.45,66.45,0,0,1,12.34-9.28,16.54,16.54,0,0,0,6.66-7.24c10.66-21.08,20.23-42.71,31.68-63.4a22.65,22.65,0,0,0,1.07-2.22l1.81.81c-9.77,21.78-20.57,43.05-31.05,64.48-.45.94-1.73,2-.83,3,.39.43,1.89.09,2.8-.18,20.77-6.1,38.31,13.28,43.79,28.09,4.43,12,6.66,24.24,5.74,37a52.2,52.2,0,0,1-2,12.16c-3.15,10,1.37,18.73,4.09,27.59,4.9,15.92,10.62,31.6,16.13,47.33,2.49,7.08,6.73,9.82,14.38,9.89,7.45.08,14.88.13,22.19-1.9,2.37-.65,4.15-1.53,4.22-4.06.07-2.88,1.13-6.71-2.3-8-8.67-3.29-8.93-10.82-9.56-18-1.53-17.28-3.18-34.57-3.87-51.89-.44-10.94-1.76-21.85-1.28-32.85.2-4.43-1.07-8.44-6.42-9.41-1.8-.32-2.25-2-2.38-3.39a31.89,31.89,0,0,1,0-6.48,19.09,19.09,0,0,1,1.43-4.09c.13,1.41.32,2.82.39,4.24.07,1.66,0,3.33.06,5,.09,1.43.45,2.71,2.42,2.07,2.19-.71,3.45,0,3.89,2.37.12.65.91,1.17,1.39,1.75a12.68,12.68,0,0,0,1.43-1.91,25.43,25.43,0,0,0,2-6.6c.18-1,.5-2.55,2-2.46s1.66,1.36,1.78,2.59c.65,6.56,1.79,13.12,1.91,19.69.31,16.09,1.86,32.1,2.38,48.18.41,13,.53,26.12,2.71,39a7.39,7.39,0,0,0,3.21,5.27c5,3.56,6.26,7.61,3.85,13.43-1.17,2.83-.41,3.24,2.2,3.65a72.64,72.64,0,0,0,30-1.49c1.27-.33,2.77-1.49,2.43-2.8-.89-3.54-.39-7.87-4.55-9.89s-7.43-5.32-7.88-10.09c-.47-5-.83-10.11,0-15,3-17.21,6.48-34.36,13.73-50.45,3.81-8.44,7.15-17.13,11.48-25.3,11.77-22.22,19.25-45.91,25.66-70.1,4.09-15.42,7.51-30.8,6.85-46.84a90.42,90.42,0,0,0-1-11.27c-.26-1.57-.17-2.89,1.22-3.25,1.78-.47,2.45,1.15,2.9,2.58a23.28,23.28,0,0,0,.75,2.84c.44.93,1,2.62,2.32.69,2.44-3.46,5.27-1.85,7.2.07,3.18,3.18,4.13,1.24,5.67-1.44,1.64-2.84,1.73-6.42,4.41-8.74,1.27-1.1-.11-2.15-.46-3.13-.78-2.17-1.77-4.25-1.84-6.64-.08-3,1.15-4.4,4.23-3.82.73.14,1.49,1.13,2.09.23.16-.23-.81-1.29-1.33-1.91-7.65-9.29-10.91-20.27-11.88-32-.44-5.41,2.17-7.35,8.49-7.54,1.35,0,3.3.89,3.88-1,.17-.55-1.57-1.9-2.62-2.6a58.63,58.63,0,0,1-8.55-7.58c-1.66-1.65-1.75-3.39.14-4.62,2.53-1.66,2.07-2.43,0-4.42-7.67-7.45-11.94-17.17-13.7-27.28l2.71-.49c.15.58.49,1.27.74,1.93,3.32,9.15,7.48,17.78,15.27,24.13,3,2.44,4.29,5.84.93,8.43-2.54,2-1,2.35.15,3.43a34.22,34.22,0,0,0,8.68,5.8c1.54.78,2.92,1.66,2.81,3.69s-1.45,3-3,3.67c-2.59,1.17-5.42,2.3-8.17,1.59-3.71-1-3.9.85-3.8,3.58a40.79,40.79,0,0,0,2.25,12.18c2.43,6.92,5.31,13.63,11.18,18.56,1.78,1.5,3.21,3.57,2.07,6.15-1,2.27-2.86,3.1-5.32,2.52-2.7-.64-1.76.7-1.13,2C793,363.8,796.29,366.35,799.13,369.36ZM621.06,606.46a18.12,18.12,0,0,0-17.94-18.32,17.87,17.87,0,0,0-4.71.57c-8.57,2.22-16.12,6.66-23.24,11.87-1.11.81-2.47,2.31-3.94,1.14-1.67-1.33,0-2.71.64-3.87,2.68-4.94,5.58-9.76,8.23-14.71,7.66-14.31,13.78-29.33,19.7-44.41,7.52-19.12,11.39-38.46,4.46-58.84a26.12,26.12,0,0,0-12-15c-15.23-8.88-32.23-.42-42.4,9.45-8.78,8.51-15.1,19-20.63,30-11.66,23.33-17.85,47.78-18.48,79-.46,6.84,2.25,18.42,5.44,29.89,1.09,3.89,3.15,7.68,7.43,8.73,8.39,2,17.11,2.18,25.62,2.08,13.18-.16,26.36-1.64,39.52-2.8,7.85-.69,15.8-1,23.3-4C616.74,615.38,621,610.44,621.06,606.46Zm-89.19-117.8c.31-.53.7-1.49.47-1.78-.73-.94-1.47.06-2.14.36-8.22,3.67-16.92,4.66-25.73,4-14.05-1.09-25.62-6.85-33.93-18.71-6.08-8.69-9.7-18.33-12.44-28.42-.16-.6-.38-1.17-.58-1.75-.16.34-.47.69-.46,1,.4,11.74-1.14,23.54,1.55,35.21,1.65,7.16,4.78,13.7,7.71,20.33.41.93,1.08,1.92.26,2.74-1,1-1.68-.3-2.48-.71a28.5,28.5,0,0,0-11.21-3.59c-.74,0-3-.72-1.73,1.46,2.44,4,2.92,9.79,9.14,10.74a2.83,2.83,0,0,1,2.41,2.83c-.11,1.66-1.59,1.82-3,1.93-.76.07-2,.21-2.16.66-.57,1.33,1,1.38,1.64,2,8.89,9.38,20.84,9.85,30.93,11.19v0c9.8.1,17.06-3.91,24.82-6,.64-.17,1.24-1.09,1.53-1.8A244.47,244.47,0,0,1,531.87,488.66Z" transform="translate(-441.99 -151.67)"/><path class="cls-3" d="M790,349.82c.52.62,1.49,1.68,1.33,1.91-.6.9-1.36-.09-2.09-.23-3.08-.58-4.31.82-4.23,3.82.07,2.39,1.06,4.47,1.84,6.64.35,1,1.73,2,.46,3.13-2.68,2.32-2.77,5.9-4.41,8.74-1.54,2.68-2.49,4.62-5.67,1.44-1.93-1.92-4.76-3.53-7.2-.07-1.32,1.93-1.88.24-2.32-.69a23.28,23.28,0,0,1-.75-2.84c-.45-1.43-1.12-3.05-2.9-2.58-1.39.36-1.48,1.68-1.22,3.25a90.42,90.42,0,0,1,1,11.27c.66,16-2.76,31.42-6.85,46.84-6.41,24.19-13.89,47.88-25.66,70.1-4.33,8.17-7.67,16.86-11.48,25.3-7.25,16.09-10.73,33.24-13.73,50.45-.83,4.89-.47,10,0,15,.45,4.77,3.72,8.07,7.88,10.09s3.66,6.35,4.55,9.89c.34,1.31-1.16,2.47-2.43,2.8a72.64,72.64,0,0,1-30,1.49c-2.61-.41-3.37-.82-2.2-3.65,2.41-5.82,1.15-9.87-3.85-13.43a7.39,7.39,0,0,1-3.21-5.27c-2.18-12.88-2.3-26-2.71-39-.52-16.08-2.07-32.09-2.38-48.18-.12-6.57-1.26-13.13-1.91-19.69-.12-1.23-.28-2.5-1.78-2.59s-1.82,1.46-2,2.46a25.43,25.43,0,0,1-2,6.6,12.68,12.68,0,0,1-1.43,1.91c-.48-.58-1.27-1.1-1.39-1.75-.44-2.37-1.7-3.08-3.89-2.37-2,.64-2.33-.64-2.42-2.07-.06-1.67,0-3.34-.06-5-.07-1.42-.26-2.83-.39-4.24a19.09,19.09,0,0,0-1.43,4.09,31.89,31.89,0,0,0,0,6.48c.13,1.39.58,3.07,2.38,3.39,5.35,1,6.62,5,6.42,9.41-.48,11,.84,21.91,1.28,32.85.69,17.32,2.34,34.61,3.87,51.89.63,7.18.89,14.71,9.56,18,3.43,1.29,2.37,5.12,2.3,8-.07,2.53-1.85,3.41-4.22,4.06-7.31,2-14.74,2-22.19,1.9-7.65-.07-11.89-2.81-14.38-9.89-5.51-15.73-11.23-31.41-16.13-47.33-2.72-8.86-7.24-17.64-4.09-27.59a52.2,52.2,0,0,0,2-12.16c.92-12.76-1.31-25-5.74-37-5.48-14.81-23-34.19-43.79-28.09-.91.27-2.41.61-2.8.18-.9-1,.38-2.06.83-3,10.48-21.43,21.28-42.7,31.05-64.48l.42-.93a3.21,3.21,0,0,1,2-1.86c3.67-1.51,7.26-3.2,10.9-4.78a7.63,7.63,0,0,1,1.77-.3,6,6,0,0,1-.21,1.33c-.63,1.62-2.09,3.15.07,4.81s3.9,1,6.07.35c6.55-1.93,12.08-6.05,18.42-8.44,1.28-.49,4-.55,3.21-2.78-.62-1.81-2.9-1.16-4.47-.81a15.05,15.05,0,0,0-3.13,1.51c-4.29,2.12-8.59,4.22-12.87,6.35-1,.51-2.16,1.43-3.16.32-.84-.92.34-1.8.6-2.69a8.4,8.4,0,0,1,1.09-2.23l.18-.23a3,3,0,0,0-.79-4.17c-1.61-1.39-2.75-.06-3.89.74-2.61,1.8-5,3.83-7.61,5.51-1.71,1.1-4.29,2.85-5.66,1.52s1.17-3.43,1.73-5.28c.31-.94,1.09-1.73,1.31-2.67.55-2.33,2.1-5-.26-6.9-2-1.65-3.29,1.23-5,1.87-1.17.44-2.39,1.8-3.62.56-1.06-1.06-.53-2.44.08-3.7a78.64,78.64,0,0,1,8.87-13.72c7.26-9.44,9.89-20.76,13.39-31.76.36-1.14.69-3-.49-3.72-1.49-.93-2.17.93-3.17,1.71-4.46,3.74-9,7.32-14.7,9-1.1.32-2.27,1.18-3.15.07s0-2.2.59-3.2c1.44-2.4,2.9-4.81,4.51-7.1,5.25-7.41,10.76-14.65,14.87-22.8.38-.76.83-1.46.31-2.31a7.62,7.62,0,0,0-1.23,1.11l-2-1.49c8.8-7.34,13.92-17.82,19.58-27.8,4.67-8.16,3.07-17.17,3-25.87,0-6,1.49-11.09,5.31-15.56,1.23-1.44,2.82-2.93.82-4.59s-3.08.66-3.9,1.76c-5.52,7.4-8.77,15.46-6.45,25a21.93,21.93,0,0,1-.07,8.39c-1.22,8.5-5.75,15.48-10.47,22.19-4.43,6.3-8.69,13-15.9,16.79-6.44,3.35-9.4,1.65-9.18-5.56a104.51,104.51,0,0,0-5.66-36.53c-2.13-6.34-1.74-12.34,1.71-18.12a96.63,96.63,0,0,0,8-18.58c4.77-14,12.24-26.1,24.44-35.23,9.2-6.88,19.67-7.75,27.08-2.89a19.34,19.34,0,0,1,6.12,6.58c.73,1.27,1.23,3.83,1.81,3.83,2.9,0-.52-2.36.9-3.2a10.88,10.88,0,0,1,2.09-1.15c4.56-1.45,9.13-2.91,13.73-4.21,11-3.1,22.06-6,33.51-5.7,7.09.21,11.93-.91,16-7.91,4.18-7.19,13.43-10.25,21.28-1.81,6.5,7,12.53,14.06,15.79,23.19.67,2,1.49,4.3,3,5.64,7.06,6.29,10.47,14.82,14.63,22.9,6.31,12.26,5.5,24.63-.13,36.77-3.72,8-10,8.2-15.08,1.11A60.82,60.82,0,0,1,758,235.55C753.68,222.46,747.41,211,734.1,205c-1.44-.65-3.29-2.62-4.36-1.13-1.37,1.94,1.51,2.72,2.51,4,.18.24.6.29.87.47,7.92,5.33,14.63,11.44,18.06,20.94,2.84,7.82,5.83,15.74,10.24,23,1.81,3,3.54,5.63,4.21,9.77,0,.24.08.48.13.72,1.76,10.11,6,19.83,13.7,27.28,2.07,2,2.53,2.76,0,4.42-1.89,1.23-1.8,3-.14,4.62a58.63,58.63,0,0,0,8.55,7.58c1,.7,2.79,2.05,2.62,2.6-.58,1.89-2.53,1-3.88,1-6.32.19-8.93,2.13-8.49,7.54C779.09,329.55,782.35,340.53,790,349.82ZM774.23,217.46c-.5-2.29-.82-4.07-1.3-5.81-.15-.56-.68-1.44-1.06-1.44-1.34,0-.8,1.17-.8,1.8.15,5.7-3.13,10.47-4.43,15.78-.33,1.34-2.42,2.42-.55,3.89a2.59,2.59,0,0,0,1.31.6,2.65,2.65,0,0,0,3-2.2A31,31,0,0,1,774.23,217.46ZM745.42,391.7a5.49,5.49,0,0,0,5.11-5.84c-.31-1.42-.5-2.52-.8-3.65-1.35.5-1.38,1.9-2.06,2.9-.84,1.2-.43,3.78-2,3.7A85.88,85.88,0,0,1,733,387c-.81-.17-1.78-2.48-2.34-1.92-1,1,.44,2.33,1.09,3.33,1,1.5,2.59,2.55,4.24,1.72,2.53-1.29,4.37-.09,6.46.91A5.48,5.48,0,0,0,745.42,391.7Zm.38-105c.72-1.09,2.23-2.86.51-3.94-1.94-1.21-2.58,1-3.67,2.2-4.83,5.49-9.8,10.73-17.31,12.81a12,12,0,0,1-11.51-2.66c-3.83-3.16-3.58-6.87.08-10.16a36.52,36.52,0,0,0,7.44-9.25c4.7-8.34,0-15.47-8.68-14.47-8.45.83-16.63,2.5-23.73,7.73-5.27,3.93-5.32,8.63-.14,12.63,4.12,3.18,8.71,5.55,14,5.67,3.39.08,4.35,1.58,4.17,4.64-.69,11.94-7.55,16.46-18.88,11.94-4.91-2-9.5-4.7-14.25-7.07a23.15,23.15,0,0,0-9-2.39c-1.08-.07-2.53-.32-2.69,1.38-.13,1.36,1,1.46,2,1.71,1.59.42,3.16.91,4.76,1.32a7.17,7.17,0,0,1,5.47,5A82.15,82.15,0,0,0,681,317.14c1.75,2.93,3.31,6.89,6.6,7.82,7.19,2,5.86,6.49,4.38,11.43a46.32,46.32,0,0,0-1.86,7.17c-.52,4.39-.29,8.66,4,11.46,4.09,2.67,7.89,1.29,11.56-.89a31.34,31.34,0,0,0,4.31-3.3c6.43-5.57,9.1-13.3,12-20.87.81-2.11,1.14-4.25,3.58-5.54,8.6-4.54,13.23-11.89,15.6-21.22C742.57,297.7,742.5,291.7,745.8,286.7Zm-.42,171.62c.25-1-5.58-7.29-6.31-6.82-4.38,2.82-3.56-1.52-3.89-3.09-.5-2.4-.14-5-.2-7.46a4.56,4.56,0,0,0-1.49-3,1.81,1.81,0,0,0-1.4,1.84c.1,4.47-.67,9,.44,13.39.41,1.6.53,4.41,2.9,3.95,2.9-.57,4.08,1.08,5.6,2.68.69.73,1.33,1.32,2.55.73A3.21,3.21,0,0,0,745.38,458.32ZM742,234.81a9.24,9.24,0,0,0-8.84-9.47c-6.74-.11-12.16,4.24-12.16,9.66.06,5.59,4.3,9.41,10.65,9.34S742,240.56,742,234.81ZM691,442.27c-.34-.7.54-2.3-1.08-2.66-2.16-.43-1.82,1.32-1.93,2.57-.29,2.71-1.95,4.21-4,5.89-2.53,2.09-3.49,1.75-4-1.25-.67-4.27-2.6-8.18-4-12.18-.28-.8-.72-1.78-1.44-1.55s.1,1.1.16,1.7c.55,5.27,3.32,10,3.49,15.43a2.31,2.31,0,0,0,.06.52,2.87,2.87,0,0,0,3.38,2.24C684.88,452.47,690.72,446,691,442.27ZM676,243c0-5.78-2.81-8.66-8.87-8.69s-12,5.19-12.13,10.73c-.13,4.67,4.09,9.26,8.53,9.26C670.27,254.33,676,249.13,676,243Zm-19.4,87c.73-1.92-.91-2.85-2.14-3.35-10.13-4.07-18.8-10.06-25.46-18.81a9.65,9.65,0,0,0-1.63-1.36c-.43.27-1,.43-1.09.77-.44,1,.12,1.94.67,2.77,6.71,9.89,16.47,15.74,27.13,20.38C655,330.8,656.13,331.31,656.63,330Zm-5,77a1.52,1.52,0,0,0-.18-2.14c-.83-.66-1.48.13-2.1.66-3.13,2.67-5.38,6.34-9.19,8.24-.55.29-.86,1.86-2,.17-2.13-3.19-1.44-5.82.51-8.77a95.67,95.67,0,0,0,5-9.1,4.64,4.64,0,0,0,.05-1.87,6.15,6.15,0,0,0-1.22,1.17c-3,5.32-6.08,10.58-8.86,16-1.19,2.3,1.22,6.89,3.46,7a4.29,4.29,0,0,0,1.23-.26c5.44-2.38,9.32-6.71,13.21-11ZM617.37,242c.24-1.69-1.56-1.82-2.9-1.39-1.9.6-1.93-1.14-2.16-1.93-1.6-5.5-2.6-11.06-.6-16.71a5.19,5.19,0,0,0-.14-4.07c-.67,2.18-1.31,4.19-1.9,6.26-1.87,6.44.6,12.71.89,19.07.07,1.56,1.66,2.47,3.34,2S617.16,243.48,617.37,242Z" transform="translate(-441.99 -151.67)"/><path class="cls-2" d="M782.17,208c8,14.38,9.46,29.13,3.08,44.48-2.81,6.76-7.4,10.15-13.75,8.71-3-.65-3.32,0-3,1.15l-2.71.49c0-.24-.09-.48-.13-.72-.67-4.14-2.4-6.8-4.21-9.77-4.41-7.26-7.4-15.18-10.24-23-3.43-9.5-10.14-15.61-18.06-20.94-.27-.18-.69-.23-.87-.47-1-1.33-3.88-2.11-2.51-4,1.07-1.49,2.92.48,4.36,1.13,13.31,6,19.58,17.5,23.89,30.59a60.82,60.82,0,0,0,8.42,16.79c5.12,7.09,11.36,6.92,15.08-1.11,5.63-12.14,6.44-24.51.13-36.77-4.16-8.08-7.57-16.61-14.63-22.9-1.51-1.34-2.33-3.63-3-5.64-3.26-9.13-9.29-16.2-15.79-23.19-7.85-8.44-17.1-5.38-21.28,1.81-4.07,7-8.91,8.12-16,7.91-11.45-.34-22.54,2.6-33.51,5.7-4.6,1.3-9.17,2.76-13.73,4.21a10.88,10.88,0,0,0-2.09,1.15c-1.42.84,2,3.17-.9,3.2-.58,0-1.08-2.56-1.81-3.83a19.34,19.34,0,0,0-6.12-6.58l.89-1.33a37,37,0,0,1,5.52,4.73c1.32,1.36,2.21.9,3.44.42,18.13-7,36.79-11.41,56.3-11.74a3.59,3.59,0,0,0,3.61-2c3.3-6.43,8.67-10.23,15.58-12h2c3.65,1.52,7.38,2.87,10.17,5.88,7.29,7.82,14,16,17.58,26.33a10,10,0,0,0,2.51,4.25C775.88,195.49,778.77,201.84,782.17,208Z" transform="translate(-441.99 -151.67)"/><path class="cls-2" d="M772.93,211.65c.48,1.74.8,3.52,1.3,5.81a31,31,0,0,0-3.8,12.62,2.65,2.65,0,0,1-3,2.2,2.59,2.59,0,0,1-1.31-.6c-1.87-1.47.22-2.55.55-3.89,1.3-5.31,4.58-10.08,4.43-15.78,0-.63-.54-1.84.8-1.8C772.25,210.21,772.78,211.09,772.93,211.65Z" transform="translate(-441.99 -151.67)"/><path class="cls-2" d="M750.53,385.86a5.49,5.49,0,0,1-8.08,5.2c-2.09-1-3.93-2.2-6.46-.91-1.65.83-3.29-.22-4.24-1.72-.65-1-2.13-2.29-1.09-3.33.56-.56,1.53,1.75,2.34,1.92a85.88,85.88,0,0,0,12.67,1.79c1.57.08,1.16-2.5,2-3.7.68-1,.71-2.4,2.06-2.9C750,383.34,750.22,384.44,750.53,385.86Z" transform="translate(-441.99 -151.67)"/><path class="cls-2" d="M746.31,282.76c1.72,1.08.21,2.85-.51,3.94-3.3,5-3.23,11-4.63,16.5-2.37,9.33-7,16.68-15.6,21.22-2.44,1.29-2.77,3.43-3.58,5.54-2.9,7.57-5.57,15.3-12,20.87a31.34,31.34,0,0,1-4.31,3.3c-3.67,2.18-7.47,3.56-11.56.89-4.29-2.8-4.52-7.07-4-11.46a46.32,46.32,0,0,1,1.86-7.17c1.48-4.94,2.81-9.4-4.38-11.43-3.29-.93-4.85-4.89-6.6-7.82a82.15,82.15,0,0,1-6.63-13.35,7.17,7.17,0,0,0-5.47-5c-1.6-.41-3.17-.9-4.76-1.32-1-.25-2.13-.35-2-1.71.16-1.7,1.61-1.45,2.69-1.38a23.15,23.15,0,0,1,9,2.39c4.75,2.37,9.34,5.11,14.25,7.07,11.33,4.52,18.19,0,18.88-11.94.18-3.06-.78-4.56-4.17-4.64-5.29-.12-9.88-2.49-14-5.67-5.18-4-5.13-8.7.14-12.63,7.1-5.23,15.28-6.9,23.73-7.73,8.64-1,13.38,6.13,8.68,14.47A36.52,36.52,0,0,1,713.9,285c-3.66,3.29-3.91,7-.08,10.16a12,12,0,0,0,11.51,2.66c7.51-2.08,12.48-7.32,17.31-12.81C743.73,283.73,744.37,281.55,746.31,282.76ZM723.42,308c.52-3.5,1.29-5.56-3.44-5.87a12.35,12.35,0,0,1-7.91-3.81c-1.65-1.75-2.25-.9-2.82.67-1.63,4.56-4.14,8.23-9.18,9.53-2.1.55-1.94,2.34-2.06,4-.31,4.61.43,9.2-.73,13.86-1.56,6.21-2.34,12.61-3.32,18.12.24,3.56-.89,6.89,2.42,8.37s5.91-.08,8.75-1.87c4-2.51,6.4-6.13,8.62-10C719.6,330.75,721.7,319.46,723.42,308Zm-7.11-36.85c1.18.82,2.32-1.16,2.09-2a4.85,4.85,0,0,0-5.5-3.79c-1.3,0-3.47,0-3.2,1.38C710.32,270,714.1,269.58,716.31,271.13Z" transform="translate(-441.99 -151.67)"/><path class="cls-2" d="M739.07,451.5c.73-.47,6.56,5.84,6.31,6.82a3.21,3.21,0,0,1-1.8,2.22c-1.22.59-1.86,0-2.55-.73-1.52-1.6-2.7-3.25-5.6-2.68-2.37.46-2.49-2.35-2.9-3.95-1.11-4.4-.34-8.92-.44-13.39a1.81,1.81,0,0,1,1.4-1.84,4.56,4.56,0,0,1,1.49,3c.06,2.49-.3,5.06.2,7.46C735.51,450,734.69,454.32,739.07,451.5Z" transform="translate(-441.99 -151.67)"/><path class="cls-2" d="M733.19,225.34a9.24,9.24,0,0,1,8.84,9.47c0,5.75-4,9.46-10.35,9.53S721.09,240.59,721,235C721,229.58,726.45,225.23,733.19,225.34ZM738,235c1.09.1,1-1.1,1-1.85-.15-2.05-1.48-3.11-3.2-3.72-.73.14-1.8.68-1.39.93C736.26,231.48,735.41,234.71,738,235Z" transform="translate(-441.99 -151.67)"/><path class="cls-3" d="M739,233.12c0,.75.09,1.95-1,1.85-2.59-.26-1.74-3.49-3.59-4.64-.41-.25.66-.79,1.39-.93C737.52,230,738.85,231.07,739,233.12Z" transform="translate(-441.99 -151.67)"/><path class="cls-3" d="M720,302.11c4.73.31,4,2.37,3.44,5.87-1.72,11.48-3.82,22.77-9.67,33-2.22,3.87-4.62,7.49-8.62,10-2.84,1.79-5.59,3.29-8.75,1.87S694.2,348,694,344.48c1-5.51,1.76-11.91,3.32-18.12,1.16-4.66.42-9.25.73-13.86.12-1.66,0-3.45,2.06-4,5-1.3,7.55-5,9.18-9.53.57-1.57,1.17-2.42,2.82-.67A12.35,12.35,0,0,0,720,302.11Z" transform="translate(-441.99 -151.67)"/><path class="cls-3" d="M718.4,269.13c.23.84-.91,2.82-2.09,2-2.21-1.55-6-1.14-6.61-4.41-.27-1.38,1.9-1.38,3.2-1.38A4.85,4.85,0,0,1,718.4,269.13Z" transform="translate(-441.99 -151.67)"/><path class="cls-2" d="M690,439.61c1.62.36.74,2,1.08,2.66-.31,3.68-6.15,10.2-9.36,10.71a2.87,2.87,0,0,1-3.38-2.24,2.31,2.31,0,0,1-.06-.52c-.17-5.4-2.94-10.16-3.49-15.43-.06-.6-.88-1.47-.16-1.7s1.16.75,1.44,1.55c1.4,4,3.33,7.91,4,12.18.51,3,1.47,3.34,4,1.25,2.05-1.68,3.71-3.18,4-5.89C688.13,440.93,687.79,439.18,690,439.61Z" transform="translate(-441.99 -151.67)"/><path class="cls-2" d="M667.16,234.34c6.06,0,8.87,2.91,8.87,8.69,0,6.1-5.76,11.3-12.47,11.3-4.44,0-8.66-4.59-8.53-9.26C655.2,239.53,661.1,234.31,667.16,234.34Zm4,9.67c.28.11,1.37-.8,1.32-1.12a5.69,5.69,0,0,0-3-4.26c-.76,0-1.5.35-1.13,1.06C669.13,241.23,669.25,243.28,671.16,244Z" transform="translate(-441.99 -151.67)"/><path class="cls-3" d="M672.48,242.89c0,.32-1,1.23-1.32,1.12-1.91-.73-2-2.78-2.82-4.32-.37-.71.37-1.06,1.13-1.06A5.69,5.69,0,0,1,672.48,242.89Z" transform="translate(-441.99 -151.67)"/><path class="cls-2" d="M654.49,326.65c1.23.5,2.87,1.43,2.14,3.35-.5,1.31-1.62.8-2.52.4C643.45,325.76,633.69,319.91,627,310c-.55-.83-1.11-1.74-.67-2.77.09-.34.66-.5,1.09-.77a9.65,9.65,0,0,1,1.63,1.36C635.69,316.59,644.36,322.58,654.49,326.65Z" transform="translate(-441.99 -151.67)"/><path class="cls-2" d="M653.65,175l-.89,1.33c-7.41-4.86-17.88-4-27.08,2.89-12.2,9.13-19.67,21.21-24.44,35.23a96.63,96.63,0,0,1-8,18.58c-3.45,5.78-3.84,11.78-1.71,18.12a104.51,104.51,0,0,1,5.66,36.53c-.22,7.21,2.74,8.91,9.18,5.56,7.21-3.75,11.47-10.49,15.9-16.79,4.72-6.71,9.25-13.69,10.47-22.19a21.93,21.93,0,0,0,.07-8.39c-2.32-9.54.93-17.6,6.45-25,.82-1.1,1.9-3.42,3.9-1.76s.41,3.15-.82,4.59c-3.82,4.47-5.35,9.59-5.31,15.56.07,8.7,1.67,17.71-3,25.87-5.66,10-10.78,20.46-19.58,27.8a38.79,38.79,0,0,1-8.36,5.35c-6.11,2.89-13-.95-12.85-7.66A145.55,145.55,0,0,0,588,248.25a18.5,18.5,0,0,1,1.77-14c5.74-10.2,9.05-21.43,14.26-31.83a68.29,68.29,0,0,1,23.14-26.36C636.81,169.57,645.38,169.26,653.65,175Z" transform="translate(-441.99 -151.67)"/><path class="cls-2" d="M651.45,404.84a1.52,1.52,0,0,1,.18,2.14l-.09.1c-3.89,4.29-7.77,8.62-13.21,11a4.29,4.29,0,0,1-1.23.26c-2.24-.11-4.65-4.7-3.46-7,2.78-5.42,5.86-10.68,8.86-16a6.15,6.15,0,0,1,1.22-1.17,4.64,4.64,0,0,1-.05,1.87,95.67,95.67,0,0,1-5,9.1c-1.95,2.95-2.64,5.58-.51,8.77,1.14,1.69,1.45.12,2-.17,3.81-1.9,6.06-5.57,9.19-8.24C650,405,650.62,404.18,651.45,404.84Z" transform="translate(-441.99 -151.67)"/><path class="cls-2" d="M642.1,377.41c.76,2.23-1.93,2.29-3.21,2.78-6.34,2.39-11.87,6.51-18.42,8.44-2.17.64-4.06,1.21-6.07-.35s-.7-3.19-.07-4.81a6,6,0,0,0,.21-1.33,7.63,7.63,0,0,0-1.77.3c-3.64,1.58-7.23,3.27-10.9,4.78a3.21,3.21,0,0,0-2,1.86l-.42.93-1.81-.81c2.19-5.3,2.62-11.33,5.93-16.25.29-.42,0-1.22,0-1.84a10,10,0,0,0-1.78.41c-.93.36-1.79.91-2.72,1.24-3.62,1.27-5.66-.31-4.92-4.06a21.54,21.54,0,0,1,4.75-9.77c8.47-10.14,13.84-21.83,17.22-34.5.21-.77.61-2.16.45-2.23-1.14-.52-1.52.78-2.29,1.23-3.61,2.06-7.11,4.33-10.85,6.13-2.23,1.07-4.88,3.06-7.31.47-2.62-2.79-.24-5.38,1-7.71a70.69,70.69,0,0,1,5.09-7.39c4.74-6.62,9.92-12.94,13.87-20.12a4.87,4.87,0,0,1,.35-.42,7.62,7.62,0,0,1,1.23-1.11c.52.85.07,1.55-.31,2.31-4.11,8.15-9.62,15.39-14.87,22.8-1.61,2.29-3.07,4.7-4.51,7.1-.58,1-1.47,2.09-.59,3.2s2,.25,3.15-.07c5.72-1.68,10.24-5.26,14.7-9,1-.78,1.68-2.64,3.17-1.71,1.18.73.85,2.58.49,3.72-3.5,11-6.13,22.32-13.39,31.76a78.64,78.64,0,0,0-8.87,13.72c-.61,1.26-1.14,2.64-.08,3.7,1.23,1.24,2.45-.12,3.62-.56,1.71-.64,3-3.52,5-1.87,2.36,1.87.81,4.57.26,6.9-.22.94-1,1.73-1.31,2.67-.56,1.85-3.1,3.95-1.73,5.28s4-.42,5.66-1.52c2.64-1.68,5-3.71,7.61-5.51,1.14-.8,2.28-2.13,3.89-.74a3,3,0,0,1,.79,4.17l-.18.23a8.4,8.4,0,0,0-1.09,2.23c-.26.89-1.44,1.77-.6,2.69,1,1.11,2.13.19,3.16-.32,4.28-2.13,8.58-4.23,12.87-6.35a15.05,15.05,0,0,1,3.13-1.51C639.2,376.25,641.48,375.6,642.1,377.41Z" transform="translate(-441.99 -151.67)"/><path class="cls-3" d="M603.12,588.14a18.12,18.12,0,0,1,17.94,18.32c-.1,4-4.32,8.92-9,10.78-7.5,3-15.45,3.31-23.3,4-13.16,1.16-26.34,2.64-39.52,2.8-8.51.1-17.23-.08-25.62-2.08-4.28-1.05-6.34-4.84-7.43-8.73-3.19-11.47-5.9-23.05-5.44-29.89.63-31.22,6.82-55.67,18.48-79,5.53-11,11.85-21.49,20.63-30C560,464.47,577,456,592.26,464.89a26.12,26.12,0,0,1,12,15c6.93,20.38,3.06,39.72-4.46,58.84-5.92,15.08-12,30.1-19.7,44.41-2.65,5-5.55,9.77-8.23,14.71-.64,1.16-2.31,2.54-.64,3.87,1.47,1.17,2.83-.33,3.94-1.14,7.12-5.21,14.67-9.65,23.24-11.87A17.87,17.87,0,0,1,603.12,588.14ZM558.67,544a1.92,1.92,0,0,0,1.19-2.43c-.59-1.32-1.29,0-1.86.24-.94.47-2,.31-1.81-.69.85-5.33-3.73-10-1.82-15.43.72-2,1.13-4.12,1.72-6.33-.13-.72-.24-2.2-.45-2.24-1.28-.1-1.3,1.08-1.69,2-3.11,7.24-2.52,14.57-.52,21.89.67,2.5,2.27,4.23,5.2,3Z" transform="translate(-441.99 -151.67)"/><path class="cls-2" d="M614.47,240.6c1.34-.43,3.14-.3,2.9,1.39-.21,1.49-1.79,2.76-3.47,3.23s-3.27-.44-3.34-2c-.29-6.36-2.76-12.63-.89-19.07.59-2.07,1.23-4.08,1.9-6.26a5.19,5.19,0,0,1,.14,4.07c-2,5.65-1,11.21.6,16.71C612.54,239.46,612.57,241.2,614.47,240.6Z" transform="translate(-441.99 -151.67)"/><path class="cls-2" d="M559.86,541.55a1.92,1.92,0,0,1-1.19,2.43h0c-2.93,1.23-4.53-.5-5.2-3-2-7.32-2.59-14.65.52-21.89.39-.92.41-2.1,1.69-2,.21,0,.32,1.52.45,2.24-.59,2.21-1,4.32-1.72,6.33-1.91,5.45,2.67,10.1,1.82,15.43-.16,1,.87,1.16,1.81.69C558.57,541.5,559.27,540.23,559.86,541.55Z" transform="translate(-441.99 -151.67)"/><path class="cls-2" d="M537,629.45H559.1a6.4,6.4,0,0,0-.07.88H537A6.54,6.54,0,0,0,537,629.45Z" transform="translate(-441.99 -151.67)"/><path class="cls-3" d="M532.34,486.88c.23.29-.16,1.25-.47,1.78a244.47,244.47,0,0,0-15.4,31.64c-.29.71-.89,1.63-1.53,1.8-7.76,2.09-15,6.1-24.82,6v0c-10.09-1.34-22-1.81-30.93-11.19-.64-.62-2.21-.67-1.64-2,.16-.45,1.4-.59,2.16-.66,1.41-.11,2.89-.27,3-1.93a2.83,2.83,0,0,0-2.41-2.83c-6.22-1-6.7-6.74-9.14-10.74-1.27-2.18,1-1.51,1.73-1.46a28.5,28.5,0,0,1,11.21,3.59c.8.41,1.48,1.71,2.48.71.82-.82.15-1.81-.26-2.74-2.93-6.63-6.06-13.17-7.71-20.33-2.69-11.67-1.15-23.47-1.55-35.21,0-.31.3-.66.46-1,.2.58.42,1.15.58,1.75,2.74,10.09,6.36,19.73,12.44,28.42,8.31,11.86,19.88,17.62,33.93,18.71,8.81.66,17.51-.33,25.73-4C530.87,486.94,531.61,485.94,532.34,486.88Z" transform="translate(-441.99 -151.67)"/></svg>