<svg xmlns="http://www.w3.org/2000/svg" width="2344" height="506" viewBox="0 0 2344 506">
  <defs>
    <style>
      .cls-1 {
        fill: #fff;
        fill-rule: evenodd;
      }
    </style>
  </defs>
  <path id="radio_copy_2" data-name="radio copy 2" class="cls-1" d="M270.2,380.774q-4.373-.733-11.475-1.287t-14.753-1.1q-7.65-.547-14.571-0.735t-10.928-.188q-16.392,0-27.866,5.844a57.31,57.31,0,0,0-18.76,14.792,58.55,58.55,0,0,0-10.564,19.178,60.738,60.738,0,0,0,2.368,45.283,106.529,106.529,0,0,0,14.206,23.011,202.99,202.99,0,0,0,18.4,19.9q9.835,9.312,18.395,17.167a175.467,175.467,0,0,1,14.207,14.428q5.643,6.579,5.646,11.688,0,7.305-2.914,11.688a19.6,19.6,0,0,1-7.65,6.755,33.009,33.009,0,0,1-11.11,3.105,112.838,112.838,0,0,1-12.931.729,89.238,89.238,0,0,1-11.84-.912q-6.744-.9-12.567-2-6.923-1.452-13.842-3.28v33.173a63.892,63.892,0,0,0,15.117,6.014q7.828,2,14.389,3.1a81.887,81.887,0,0,0,15.3,1.458,142.971,142.971,0,0,0,30.417-2.916,54.985,54.985,0,0,0,22.4-10.025,44.347,44.347,0,0,0,13.842-18.956q4.73-11.841,4.735-30.074,0-9.476-5.646-19.321A125.325,125.325,0,0,0,258,507.605q-8.562-9.842-18.4-19.5t-18.4-18.591A147.361,147.361,0,0,1,207,452.56q-5.652-8.015-5.646-14.946,0-8.014,3.642-12.394a22.745,22.745,0,0,1,8.925-6.562,34.835,34.835,0,0,1,11.292-2.552q6.01-.358,11.11-0.364,2.544,0,8.2.364t11.475,0.729q6.557,0.368,14.207.729v-36.79Zm70.122,223.8h42.984V381.11H340.321V604.572Zm197.616,0h45.534L544.13,492.3,586.385,381.11H539.758l-29.141,80.928L481.475,381.11H434.848L477.1,492.3,437.762,604.572H483.3l26.956-79.833Zm171.755,0V417.929h36.791V381.11H630.645v36.819h36.428V604.572h42.619ZM870.519,471.881L841.377,381.11H798.029l51,149.1v74.366h42.984V530.206l51-149.1H899.661ZM270.2,646.431q-4.373-.734-11.475-1.287t-14.753-1.1q-7.65-.548-14.571-0.735t-10.928-.188q-16.392,0-27.866,5.844a57.31,57.31,0,0,0-18.76,14.792,58.544,58.544,0,0,0-10.564,19.179,60.735,60.735,0,0,0,2.368,45.282,106.56,106.56,0,0,0,14.206,23.012,203.207,203.207,0,0,0,18.4,19.9q9.835,9.314,18.395,17.167a175.467,175.467,0,0,1,14.207,14.428q5.643,6.579,5.646,11.688,0,7.305-2.914,11.688a19.615,19.615,0,0,1-7.65,6.756,33.009,33.009,0,0,1-11.11,3.1,112.838,112.838,0,0,1-12.931.729,89.39,89.39,0,0,1-11.84-.911q-6.744-.906-12.567-2.006-6.923-1.452-13.842-3.28v33.173a63.892,63.892,0,0,0,15.117,6.014q7.828,2,14.389,3.1a81.887,81.887,0,0,0,15.3,1.458,142.971,142.971,0,0,0,30.417-2.916,54.985,54.985,0,0,0,22.4-10.025,44.353,44.353,0,0,0,13.842-18.956q4.73-11.841,4.735-30.074,0-9.476-5.646-19.321A125.325,125.325,0,0,0,258,773.262q-8.562-9.843-18.4-19.5t-18.4-18.592A147.361,147.361,0,0,1,207,718.217q-5.652-8.014-5.646-14.946,0-8.014,3.642-12.394a22.745,22.745,0,0,1,8.925-6.562,34.835,34.835,0,0,1,11.292-2.552q6.01-.359,11.11-0.364,2.544,0,8.2.364t11.475,0.729q6.557,0.368,14.207.729v-36.79Zm151.083,37.155V646.767H320.015V870.229H421.282V833.046H362.635V779.824h48.083V743.006H362.635v-59.42h58.647ZM555.608,870.229q5.823-25.152,12.021-53.587t12.567-57.6q6.369-29.16,12.567-57.779t12.386-54.5H560.708L528.652,822.839,495.5,646.767H450.7L500.6,870.229h55ZM741.3,683.586V646.767H640.03V870.229H741.3V833.046H682.649V779.824h48.084V743.006H682.649v-59.42H741.3ZM889.465,785.292l-60.1-138.525H785.283V870.229h43.349V745.922l59.012,124.307h44.441V646.767h-42.62V785.292Zm322.765,84.925h90.92l-66.19-185.159a191.916,191.916,0,0,0,39.08-43.9q15.945-24.727,15.95-52.674V499.1q0-27.927-12.36-49.881a118.454,118.454,0,0,0-32.7-37.112,152.246,152.246,0,0,0-45.86-23.145,173.07,173.07,0,0,0-51.84-7.981H1009.66V870.217h94.11V707.405h50.24Zm-14.35-303.278q0,23.157-10.77,40.7-10.77,17.565-37.88,17.558h-45.46V461.59h45.46q13.545,0,23.13,4.789a38.538,38.538,0,0,1,15.15,13.168,56.269,56.269,0,0,1,7.97,19.155,100.666,100.666,0,0,1,2.4,21.947v46.29Zm366.71-185.957H1425.81l-99.69,489.235h94.91l19.14-104.551h110.06l19.14,104.551h94.91ZM1456.12,685.058l39.08-213.891,39.88,213.891h-78.96Zm255.05-304.076V870.217h131.59a161.362,161.362,0,0,0,50.65-7.981,134.761,134.761,0,0,0,43.46-23.544,138.165,138.165,0,0,0,31.9-37.112q12.75-21.549,15.96-49.482V498.3a126.131,126.131,0,0,0-15.96-49.083,130.61,130.61,0,0,0-31.9-37.112,139.524,139.524,0,0,0-43.46-23.145,161.737,161.737,0,0,0-50.65-7.981H1711.17Zm180.24,348.769q0,23.159-10.76,41.1t-37.89,17.958h-38.28V461.59h38.28q13.56,0,23.13,4.789a38.469,38.469,0,0,1,15.15,13.168,56.284,56.284,0,0,1,7.98,19.155,101.277,101.277,0,0,1,2.39,21.947v209.1Zm160.14,140.466h94.11V380.982h-94.11V870.217ZM2307,380.982a145.975,145.975,0,0,0-45.86,23.145,120.13,120.13,0,0,0-32.3,37.112q-12.375,21.96-12.37,49.881V760.877q0,27.947,12.37,49.881a119.857,119.857,0,0,0,32.3,37.112A145.471,145.471,0,0,0,2307,871.015,176.83,176.83,0,0,0,2359.23,879a173.021,173.021,0,0,0,51.84-7.981,151.581,151.581,0,0,0,45.86-23.145,118.067,118.067,0,0,0,32.7-37.112q12.36-21.941,12.37-49.881V491.12q0-27.927-12.37-49.881a118.33,118.33,0,0,0-32.7-37.112,152.13,152.13,0,0,0-45.86-23.145A173.021,173.021,0,0,0,2359.23,373,176.83,176.83,0,0,0,2307,380.982ZM2407.88,738.53q0,23.159-10.36,39.9-10.38,16.761-38.29,18.357-27.915-1.59-38.28-18.357t-10.37-39.9V513.467q0-23.139,10.37-39.9t38.28-18.357q27.915,1.61,38.29,18.357,10.35,16.76,10.36,39.9V738.53Z" transform="translate(-158 -373)"/>
</svg>
