<svg xmlns="http://www.w3.org/2000/svg" width="460" height="371.878" viewBox="0 0 460 371.878">
  <defs>
    <style>
      .cls-1 {
        fill: #fff;
        fill-rule: evenodd;
      }
    </style>
  </defs>
  <path id="SVG_Shape" data-name="SVG Shape" class="cls-1" d="M1754.75,981.257q-2.565-.43-6.72-0.753t-8.65-.642q-4.485-.319-8.54-0.43c-2.7-.073-4.84-0.11-6.4-0.11q-9.6,0-16.33,3.416a33.526,33.526,0,0,0-10.99,8.647,34.172,34.172,0,0,0-6.19,11.205,35.484,35.484,0,0,0,1.38,26.47,62.132,62.132,0,0,0,8.33,13.45,118.871,118.871,0,0,0,10.78,11.64q5.76,5.445,10.78,10.03a102.759,102.759,0,0,1,8.32,8.43q3.315,3.855,3.31,6.84a12.143,12.143,0,0,1-1.71,6.83,11.473,11.473,0,0,1-4.48,3.95,19.413,19.413,0,0,1-6.51,1.81,65.518,65.518,0,0,1-7.58.43,51.878,51.878,0,0,1-6.93-.54c-2.64-.35-5.09-0.74-7.37-1.17-2.7-.56-5.41-1.2-8.11-1.91v19.39a37.872,37.872,0,0,0,8.86,3.51c3.06,0.78,5.87,1.39,8.43,1.81a47.794,47.794,0,0,0,8.97.85,83.716,83.716,0,0,0,17.82-1.7,32.356,32.356,0,0,0,13.13-5.86,25.945,25.945,0,0,0,8.11-11.08q2.775-6.915,2.77-17.58a22.509,22.509,0,0,0-3.31-11.29,72.855,72.855,0,0,0-8.32-11.51q-5.025-5.745-10.78-11.4t-10.78-10.87a84.912,84.912,0,0,1-8.32-9.9q-3.315-4.695-3.31-8.74c0-3.12.71-5.54,2.13-7.24a13.291,13.291,0,0,1,5.23-3.84,20.43,20.43,0,0,1,6.62-1.49c2.35-.14,4.51-0.21,6.51-0.21q1.485,0,4.8.21c2.21,0.14,4.45.29,6.72,0.42,2.57,0.15,5.34.29,8.33,0.43v-21.5Zm41.09,130.813h25.19V981.453h-25.19V1112.07Zm115.8,0h26.68l-23.05-65.63,24.76-64.987H1912.7l-17.07,47.307-17.08-47.307h-27.32l24.76,64.987-23.05,65.63h26.68l15.79-46.66Zm100.64,0v-109.1h21.56V981.453h-67.88v21.517h21.35v109.1h24.97Zm94.24-77.56-17.08-53.057h-25.4l29.89,87.147v43.47h25.18V1068.6L2149,981.453h-25.4Zm-351.77,102.03q-2.565-.435-6.72-0.75c-2.78-.22-5.66-0.43-8.65-0.65s-5.84-.35-8.54-0.43-4.84-.11-6.4-0.11q-9.6,0-16.33,3.42a33.52,33.52,0,0,0-10.99,8.65,34.114,34.114,0,0,0-6.19,11.21,35.457,35.457,0,0,0,1.38,26.46,62.2,62.2,0,0,0,8.33,13.46,119.911,119.911,0,0,0,10.78,11.63q5.76,5.445,10.78,10.03a104.334,104.334,0,0,1,8.32,8.44q3.315,3.84,3.31,6.83a12.143,12.143,0,0,1-1.71,6.83,11.473,11.473,0,0,1-4.48,3.95,19.413,19.413,0,0,1-6.51,1.81,65.518,65.518,0,0,1-7.58.43,53.422,53.422,0,0,1-6.93-.53c-2.64-.36-5.09-0.75-7.37-1.18-2.7-.56-5.41-1.2-8.11-1.91v19.39a37.872,37.872,0,0,0,8.86,3.51c3.06,0.78,5.87,1.39,8.43,1.81a47.809,47.809,0,0,0,8.97.86,83.676,83.676,0,0,0,17.82-1.71,32.224,32.224,0,0,0,13.13-5.86,25.945,25.945,0,0,0,8.11-11.08q2.775-6.915,2.77-17.58a22.509,22.509,0,0,0-3.31-11.29,72.855,72.855,0,0,0-8.32-11.51q-5.025-5.745-10.78-11.4t-10.78-10.86a85.783,85.783,0,0,1-8.32-9.91q-3.315-4.68-3.31-8.74c0-3.12.71-5.54,2.13-7.24a13.291,13.291,0,0,1,5.23-3.84,20.43,20.43,0,0,1,6.62-1.49c2.35-.14,4.51-0.21,6.51-0.21q1.485,0,4.8.21c2.21,0.14,4.45.29,6.72,0.43,2.57,0.14,5.34.28,8.33,0.42v-21.5Zm88.53,21.72v-21.53h-59.34v130.62h59.34v-21.73h-34.37v-31.11h28.18v-21.52h-28.18v-34.73h34.37Zm78.71,109.09q3.42-14.7,7.05-31.32t7.36-33.67q3.735-17.04,7.36-33.77t7.26-31.86h-26.04l-18.78,102.92-19.43-102.92h-26.25l29.24,130.62h32.23Zm108.81-109.09v-21.53h-59.34v130.62h59.34v-21.73h-34.37v-31.11h28.18v-21.52h-28.18v-34.73h34.37Zm86.82,59.44-35.22-80.97h-25.82v130.62h25.4v-72.66l34.58,72.66h26.04V1136.73h-24.98v80.97Zm-401.86,132.5h10.37l-7.55-21.09a21.84,21.84,0,0,0,4.46-5,10.892,10.892,0,0,0,1.81-6v-10.18a11.342,11.342,0,0,0-1.41-5.68,13.471,13.471,0,0,0-3.72-4.23,17.513,17.513,0,0,0-5.23-2.64,19.906,19.906,0,0,0-5.91-.91h-15.91v55.73h10.73v-18.54h5.73Zm-1.63-34.54a8.658,8.658,0,0,1-1.23,4.63c-0.82,1.34-2.26,2-4.32,2h-5.18v-18.63h5.18a5.919,5.919,0,0,1,2.64.54,4.329,4.329,0,0,1,1.72,1.5,6.333,6.333,0,0,1,.91,2.18,11.078,11.078,0,0,1,.28,2.5v5.28Zm111.56-21.19h-15.82l-11.37,55.73h10.82l2.18-11.91h12.55l2.18,11.91h10.82Zm-12.37,34.64,4.46-24.36,4.54,24.36h-9Zm98.83-34.64v55.73h15a18.35,18.35,0,0,0,5.78-.91,15.207,15.207,0,0,0,4.95-2.68,15.586,15.586,0,0,0,3.64-4.23,14.106,14.106,0,0,0,1.82-5.63v-28.91a14.4,14.4,0,0,0-1.82-5.59,14.74,14.74,0,0,0-3.64-4.23,15.9,15.9,0,0,0-4.95-2.64,18.64,18.64,0,0,0-5.78-.91h-15Zm20.55,39.73a8.885,8.885,0,0,1-1.23,4.68q-1.23,2.055-4.32,2.05h-4.36v-37.27h4.36a5.919,5.919,0,0,1,2.64.54,4.358,4.358,0,0,1,1.73,1.5,6.533,6.533,0,0,1,.91,2.18,11.671,11.671,0,0,1,.27,2.5v23.82Zm88.01,16h10.73v-55.73h-10.73v55.73Zm98.88-55.73a16.827,16.827,0,0,0-5.23,2.64,13.729,13.729,0,0,0-3.68,4.23,11.369,11.369,0,0,0-1.41,5.68v30.73a11.369,11.369,0,0,0,1.41,5.68,13.729,13.729,0,0,0,3.68,4.23,16.6,16.6,0,0,0,5.23,2.63,20.056,20.056,0,0,0,5.96.91,19.525,19.525,0,0,0,5.9-.91,17.145,17.145,0,0,0,5.23-2.63,13.379,13.379,0,0,0,3.73-4.23,11.369,11.369,0,0,0,1.41-5.68v-30.73a11.369,11.369,0,0,0-1.41-5.68,13.379,13.379,0,0,0-3.73-4.23,17.4,17.4,0,0,0-5.23-2.64,19.841,19.841,0,0,0-5.9-.91A20.384,20.384,0,0,0,2119.59,1294.47Zm11.5,40.73a8.472,8.472,0,0,1-1.18,4.55q-1.185,1.9-4.36,2.09c-2.13-.12-3.58-0.82-4.37-2.09a8.472,8.472,0,0,1-1.18-4.55v-25.64a8.436,8.436,0,0,1,1.18-4.54c0.79-1.27,2.24-1.97,4.37-2.09q3.18,0.18,4.36,2.09a8.436,8.436,0,0,1,1.18,4.54v25.64Z" transform="translate(-1689 -979.312)"/>
</svg>
