<?xml version="1.0" encoding="UTF-8"?>
<svg id="Layer_1" data-name="Layer 1" xmlns="http://www.w3.org/2000/svg" viewBox="0 0 2344 506">
  <defs>
    <style>
      .cls-1 {
        fill-rule: evenodd;
      }
    </style>
  </defs>
  <path id="radio_copy_2" data-name="radio copy 2" class="cls-1" d="M112.2,7.77c-2.92-.49-6.74-.92-11.48-1.29-4.73-.37-9.65-.74-14.75-1.1-5.1-.36-9.96-.61-14.57-.73-4.61-.13-8.26-.19-10.93-.19-10.93,0-20.22,1.95-27.87,5.84-7.22,3.56-13.62,8.6-18.76,14.79-4.7,5.67-8.28,12.18-10.56,19.18-5.09,14.83-4.24,31.06,2.37,45.28,3.74,8.24,8.51,15.98,14.21,23.01,5.68,7.04,11.83,13.68,18.4,19.9,6.56,6.21,12.69,11.93,18.4,17.17,5.01,4.53,9.75,9.35,14.21,14.43,3.76,4.39,5.64,8.28,5.65,11.69,0,4.87-.97,8.77-2.91,11.69-1.91,2.89-4.55,5.22-7.65,6.76-3.49,1.68-7.25,2.73-11.11,3.1-4.29,.49-8.61,.73-12.93,.73-3.96-.04-7.92-.35-11.84-.91-4.5-.6-8.69-1.27-12.57-2-4.62-.97-9.23-2.06-13.84-3.28v33.17c4.76,2.64,9.84,4.66,15.12,6.01,5.22,1.33,10.01,2.37,14.39,3.1,5.04,.96,10.17,1.45,15.3,1.46,10.21,.12,20.41-.86,30.42-2.92,8.13-1.61,15.78-5.04,22.4-10.03,6.23-4.96,11.01-11.51,13.84-18.96,3.15-7.89,4.73-17.92,4.73-30.07,0-6.32-1.88-12.76-5.65-19.32-4.09-7.01-8.84-13.6-14.21-19.69-5.71-6.56-11.84-13.06-18.4-19.5s-12.69-12.64-18.4-18.59c-5.15-5.29-9.9-10.95-14.2-16.95-3.77-5.34-5.65-10.33-5.65-14.95,0-5.34,1.21-9.47,3.64-12.39,2.39-2.89,5.45-5.14,8.93-6.56,3.6-1.47,7.41-2.34,11.29-2.55,4.01-.24,7.71-.36,11.11-.36,1.7,0,4.43,.12,8.2,.36s7.6,.49,11.48,.73c4.37,.25,9.11,.49,14.21,.73V7.77h0Zm70.12,223.8h42.98V8.11h-42.99V231.57h0Zm197.62,0h45.53l-39.34-112.27L428.39,8.11h-46.63l-29.14,80.93-29.14-80.93h-46.63l42.25,111.19-39.34,112.27h45.54l26.96-79.83,27.68,79.83Zm171.76,0V44.93h36.79V8.11h-115.84V44.93h36.43V231.57h42.62Zm160.83-132.69l-29.14-90.77h-43.35l51,149.1v74.37h42.98v-74.37L785.01,8.11h-43.35l-29.14,90.78ZM112.2,273.43c-2.92-.49-6.74-.92-11.48-1.29-4.73-.37-9.65-.74-14.75-1.1-5.1-.37-9.96-.61-14.57-.73s-8.26-.19-10.93-.19c-10.93,0-20.22,1.95-27.87,5.84-7.22,3.56-13.62,8.6-18.76,14.79-4.7,5.67-8.28,12.18-10.56,19.18-5.09,14.83-4.24,31.06,2.37,45.28,3.74,8.24,8.51,15.98,14.21,23.01,5.68,7.04,11.83,13.68,18.4,19.9,6.56,6.21,12.69,11.93,18.4,17.17,5.01,4.53,9.75,9.35,14.21,14.43,3.76,4.39,5.64,8.28,5.65,11.69,0,4.87-.97,8.77-2.91,11.69-1.91,2.89-4.55,5.22-7.65,6.76-3.49,1.68-7.25,2.73-11.11,3.1-4.29,.49-8.61,.73-12.93,.73-3.96-.04-7.92-.35-11.84-.91-4.5-.6-8.69-1.27-12.57-2.01-4.62-.97-9.23-2.06-13.84-3.28v33.17c4.76,2.64,9.84,4.66,15.12,6.01,5.22,1.33,10.01,2.37,14.39,3.1,5.04,.96,10.17,1.45,15.3,1.46,10.21,.12,20.41-.86,30.42-2.92,8.13-1.61,15.78-5.04,22.4-10.03,6.23-4.96,11.01-11.51,13.84-18.96,3.15-7.89,4.73-17.92,4.73-30.07,0-6.32-1.88-12.76-5.65-19.32-4.09-7-8.84-13.59-14.21-19.68-5.71-6.56-11.84-13.06-18.4-19.5s-12.69-12.64-18.4-18.59c-5.15-5.29-9.9-10.95-14.2-16.95-3.77-5.34-5.65-10.32-5.65-14.95,0-5.34,1.21-9.47,3.64-12.39,2.39-2.89,5.45-5.14,8.93-6.56,3.6-1.47,7.41-2.34,11.29-2.55,4.01-.24,7.71-.36,11.11-.36,1.7,0,4.43,.12,8.2,.36s7.6,.49,11.48,.73c4.37,.25,9.11,.49,14.21,.73v-36.79h0Zm151.08,37.16v-36.82h-101.27v223.46h101.27v-37.18h-58.65v-53.22h48.08v-36.82h-48.08v-59.42h58.65Zm134.32,186.64c3.88-16.77,7.89-34.63,12.02-53.59,4.13-18.96,8.32-38.16,12.57-57.6,4.25-19.44,8.44-38.7,12.57-57.78,4.13-19.08,8.26-37.25,12.39-54.5h-44.44l-32.06,176.08-33.15-176.07h-44.8l49.9,223.46h55.01Zm185.69-186.64v-36.82h-101.27v223.46h101.27v-37.18h-58.65v-53.22h48.08v-36.82h-48.08v-59.42h58.65Zm148.17,101.71l-60.1-138.53h-44.08v223.46h43.35v-124.31l59.01,124.31h44.44v-223.46h-42.62v138.52Zm322.76,84.92h90.92l-66.19-185.16c15.2-12.54,28.38-27.35,39.08-43.9,10.63-16.48,15.95-34.04,15.95-52.67V126.1c0-18.62-4.12-35.25-12.36-49.88-8.17-14.53-19.31-27.18-32.7-37.11-13.87-10.26-29.37-18.08-45.86-23.14-16.77-5.28-34.25-7.97-51.84-7.98h-139.57V497.22h94.11v-162.81h50.24l58.22,162.81Zm-14.35-303.28c0,15.44-3.59,29-10.77,40.7-7.18,11.71-19.81,17.56-37.88,17.56h-45.46V88.59h45.46c9.03,0,16.74,1.6,23.13,4.79,6.12,2.97,11.35,7.52,15.15,13.17,3.82,5.84,6.52,12.33,7.97,19.15,1.6,7.21,2.41,14.57,2.4,21.95v46.29ZM1406.59,7.98h-138.78l-99.69,489.23h94.91l19.14-104.55h110.06l19.14,104.55h94.91L1406.59,7.98Zm-108.47,304.08l39.08-213.89,39.88,213.89h-78.96ZM1553.17,7.98V497.22h131.59c17.2,.06,34.3-2.64,50.65-7.98,15.81-5.1,30.55-13.08,43.46-23.54,12.76-10.37,23.56-22.94,31.9-37.11,8.5-14.37,13.82-30.86,15.96-49.48V125.3c-1.88-17.29-7.31-34-15.96-49.08-8.2-14.27-19.02-26.86-31.9-37.11-13-10.23-27.72-18.07-43.46-23.14-16.35-5.34-33.45-8.03-50.65-7.98h-131.59Zm180.24,348.77c0,15.44-3.59,29.14-10.76,41.1s-19.8,17.95-37.89,17.96h-38.28V88.59h38.28c9.04,0,16.75,1.6,23.13,4.79,6.13,2.97,11.35,7.52,15.15,13.17,3.82,5.84,6.53,12.33,7.98,19.15,1.59,7.21,2.4,14.57,2.39,21.95v209.1h0Zm160.14,140.47h94.11V7.98h-94.11V497.22ZM2149,7.98c-16.53,4.94-32.06,12.78-45.86,23.14-13.21,10.01-24.21,22.65-32.3,37.11-8.25,14.64-12.37,31.27-12.37,49.88V387.88c0,18.63,4.12,35.26,12.37,49.88,8.08,14.47,19.08,27.11,32.3,37.11,13.79,10.37,29.32,18.21,45.86,23.15,16.91,5.26,34.52,7.95,52.23,7.98,17.59-.01,35.07-2.7,51.84-7.98,16.49-5.05,32-12.88,45.86-23.15,13.4-9.92,24.54-22.57,32.7-37.11,8.24-14.63,12.36-31.25,12.37-49.88V118.12c0-18.62-4.12-35.24-12.37-49.88-8.16-14.54-19.31-27.18-32.7-37.11-13.86-10.26-29.37-18.09-45.86-23.14-16.77-5.28-34.25-7.97-51.84-7.98-17.71,.03-35.32,2.72-52.23,7.98Zm100.88,357.55c0,15.44-3.45,28.74-10.36,39.9-6.92,11.17-19.68,17.29-38.29,18.36-18.61-1.06-31.37-7.18-38.28-18.36-6.91-11.18-10.37-24.48-10.37-39.9V140.47c0-15.43,3.46-28.73,10.37-39.9,6.91-11.17,19.67-17.29,38.28-18.36,18.61,1.07,31.37,7.19,38.29,18.36,6.9,11.17,10.35,24.47,10.36,39.9v225.06Z"/>
</svg>