<svg id="Layer_1" data-name="Layer 1" xmlns="http://www.w3.org/2000/svg" viewBox="0 0 641.89 485"><defs><style>.cls-1{fill:#e3c8ff;}.cls-2{fill:#c58cff;}.cls-3{fill:#fff;}</style></defs><ellipse class="cls-1" cx="237.5" cy="242.5" rx="237.5" ry="242.5"/><path class="cls-2" d="M1178.63,447.76v18c-2.27,7.28-4.61,15-13.54,16.17-15,2-24.41-7.53-33.38-17.49-1-1.06-2.07-2-3.1-3-.44,1.21-.92,2.4-1.3,3.63-2.54,8.26-8,13.65-16.53,14.77-10.14,1.33-16.66-5.12-21.49-12.78-3.42-5.43-4.89-7.26-9.7-.89-6.58,8.72-15.69,12.28-26.49,7.11-5.32-2.55-3.3,1.95-3.29,3.61.11,41.34.07,42.56-41.64,40.73-64.92-2.85-129.51,1.84-194,7.12-25.37,2.08-33.13-7.17-31.48-30.06.69-9.63.59-19.32,1.32-28.94.36-4.73.45-6.55-5.44-4.73-3.81,1.18-10.84,1-12.49-1.4-9.71-13.84-12.56-3.29-19,3.36-12,12.46-23.42,10.77-31.53-5.31-.36-.71-.61-1.46-.91-2.19-1,1.22-2.13,2.38-3,3.69-7.37,10.78-15.08,21.48-30,20.74-10.28-.51-12-9.68-15-17.17v-19c6-20.21,13.39-39.69,25.51-57.23Q733.3,327,779.72,382c.85,1,1.77,1.94,2.66,2.9.31-.48,1-1,.9-1.43-8.18-48.45,30.89-38.24,54.06-39.55,64.81-3.64,129.64-10.55,194.88-3,41.79,4.85,21.25,32.48,22.45,52.57.15,2.67.2,5.35.3,8,2.25-1.62,4.67-3.05,6.75-4.87,20.07-17.5,38-47.51,69.36-23.34,18.69,14.41,31.41,36.45,41.84,58.47C1175.33,436.88,1176.75,442.42,1178.63,447.76Zm-13,22.44c6.32-3.58,4-10.39,2.72-15.92-6.8-28.17-23.63-50.41-43.23-70.71-6-6.25-14.36-8.15-23.19-5.42-30.09,9.29-50.35,36.79-52.24,67.68-1.24,20.4,11.86,18.05,20,11.12,10.78-9.2,17.38-25,26.49.22.12.34,1.22.36,1.88.45,28.87,4,15.87-13.73,13.54-26-.77-4.06-4.77-9.31,1.51-11.69,6-2.27,7.24,3.71,9.06,7.61,6.56,14,13,28.11,25.46,38.21l0,0C1152.84,470.6,1159,474,1165.64,470.2ZM1046.37,369.66c-1-3.33-2.27-7.46-3.52-11.59-2.51,2.46-4.91,5.06-7.57,7.35-3.9,3.35-7.62,7.17-12.06,9.61-21.55,11.84-38.15,28.67-51.35,49.19-1.76,2.73-2,3.9.8,6.3,19.57,16.8,38.87,33.91,58.28,50.9,1.93,1.69,4,3.21,6,4.8.77-2.83,2.24-5.67,2.2-8.49C1038.69,441.92,1040,406.23,1046.37,369.66Zm-17.71-14c1.23-.77,1.73-2.69,2.57-4.07-1.44-.62-2.87-1.78-4.31-1.78-26-.11-51.92-.08-77.88-.08-46.62.3-93.76-3.14-139.09,11.7-2.17.71-10.32,1.73-5.57,5.73,31.66,26.64,60.67,57,98.54,75.36,12.67,6.15,29.17,13.11,38.87-.11C966.45,408.85,993.12,378,1028.66,355.67Zm-9.59,149.42c8.6-.76,15-4.57,4.66-13.94-19.36-17.56-38.06-35.85-57.18-53.68-.84-.78-3.81-.7-4.64.12-34.75,34.94-40,35.34-79.31,6-1.22-.92-4.49-1-5.47-.06-18.7,17.73-37,35.88-55.84,53.47-6.2,5.79-13.65,10.23-20.52,15.29L830,514l125.81-5.72C976.91,507.34,998.05,506.94,1019.07,505.09ZM867.34,436.63c3-3.45.46-4.85-1.74-6.68Q833,402.77,800.34,375.6a29.36,29.36,0,0,0-4.52-2.57,30.28,30.28,0,0,0-.88,5.19c-.05,40.09,0,80.17,0,115.17l2.85,7.78a21.93,21.93,0,0,0,3.47-1.71C826.14,481.54,847.16,459.53,867.34,436.63Zm-83.17-9c0-4.38.15-7.72,0-11-1.48-29.71-34.39-56.86-57.46-47.45-23.37,9.54-54.46,67.1-49.36,92,.67,3.26,2.87,7.77,5.41,8.62,2.36.8,6.84-1.78,9.13-4.11,14.2-14.47,20.77-33.53,30.08-51,1.12-2.1,4.5-4.67,6.38-4.35,4.11.71,4,4.52,3.16,8.08-2.28,9.85-4.87,19.66-6.47,29.63-.75,4.67.05,10.63,5.34,12.33,5.51,1.76,8.51-3.69,10.41-7.55,4.43-9,7.68-18.66,11.86-27.83,1-2.26,3.81-3.71,5.79-5.53,1.52,2.15,4.64,4.59,4.31,6.4-2.85,15.54,6.52,17.9,17.83,15.66C789.56,439.72,781.17,431.2,784.17,427.62Z" transform="translate(-536.73 -151.67)"/><path class="cls-3" d="M1168.36,454.28c1.33,5.53,3.6,12.34-2.72,15.92-6.61,3.75-12.8.4-18-4.42l0,0c-12.43-10.1-18.9-24.18-25.46-38.21-1.82-3.9-3-9.88-9.06-7.61-6.28,2.38-2.28,7.63-1.51,11.69,2.33,12.28,15.33,30-13.54,26-.66-.09-1.76-.11-1.88-.45-9.11-25.2-15.71-9.42-26.49-.22-8.11,6.93-21.21,9.28-20-11.12,1.89-30.89,22.15-58.39,52.24-67.68,8.83-2.73,17.16-.83,23.19,5.42C1144.73,403.87,1161.56,426.11,1168.36,454.28Z" transform="translate(-536.73 -151.67)"/><path class="cls-3" d="M1042.85,358.07c1.25,4.13,2.51,8.26,3.52,11.59-6.41,36.57-7.68,72.26-7.18,108.07,0,2.82-1.43,5.66-2.2,8.49-2-1.59-4.11-3.11-6-4.8-19.41-17-38.71-34.1-58.28-50.9-2.81-2.4-2.56-3.57-.8-6.3,13.2-20.52,29.8-37.35,51.35-49.19,4.44-2.44,8.16-6.26,12.06-9.61C1037.94,363.13,1040.34,360.53,1042.85,358.07Z" transform="translate(-536.73 -151.67)"/><path class="cls-3" d="M1031.23,351.6c-.84,1.38-1.34,3.3-2.57,4.07-35.54,22.36-62.21,53.18-86.87,86.75-9.7,13.22-26.2,6.26-38.87.11-37.87-18.39-66.88-48.72-98.54-75.36-4.75-4,3.4-5,5.57-5.73C855.28,346.6,902.42,350,949,349.74c26,0,51.92,0,77.88.08C1028.36,349.82,1029.79,351,1031.23,351.6Z" transform="translate(-536.73 -151.67)"/><path class="cls-3" d="M1023.73,491.15c10.34,9.37,3.94,13.18-4.66,13.94-21,1.85-42.16,2.25-63.26,3.22L830,514l-29.23-1.7c6.87-5.06,14.32-9.5,20.52-15.29,18.83-17.59,37.14-35.74,55.84-53.47,1-.94,4.25-.86,5.47.06,39.29,29.3,44.56,28.9,79.31-6,.83-.82,3.8-.9,4.64-.12C985.67,455.3,1004.37,473.59,1023.73,491.15Z" transform="translate(-536.73 -151.67)"/><path class="cls-3" d="M865.6,430c2.2,1.83,4.78,3.23,1.74,6.68-20.18,22.9-41.2,44.91-66.12,62.83a21.93,21.93,0,0,1-3.47,1.71l-2.85-7.78c0-35,0-75.08,0-115.17a30.28,30.28,0,0,1,.88-5.19,29.36,29.36,0,0,1,4.52,2.57Q833,402.74,865.6,430Z" transform="translate(-536.73 -151.67)"/><path class="cls-3" d="M784.15,416.58c.17,3.32,0,6.66,0,11-3,3.58,5.39,12.1-3.61,13.88-11.31,2.24-20.68-.12-17.83-15.66.33-1.81-2.79-4.25-4.31-6.4-2,1.82-4.76,3.27-5.79,5.53-4.18,9.17-7.43,18.79-11.86,27.83-1.9,3.86-4.9,9.31-10.41,7.55-5.29-1.7-6.09-7.66-5.34-12.33,1.6-10,4.19-19.78,6.47-29.63.82-3.56,1-7.37-3.16-8.08-1.88-.32-5.26,2.25-6.38,4.35-9.31,17.43-15.88,36.49-30.08,51-2.29,2.33-6.77,4.91-9.13,4.11-2.54-.85-4.74-5.36-5.41-8.62-5.1-24.88,26-82.44,49.36-92C749.76,359.72,782.67,386.87,784.15,416.58Z" transform="translate(-536.73 -151.67)"/></svg>