<svg id="Layer_1" data-name="Layer 1" xmlns="http://www.w3.org/2000/svg" viewBox="0 0 434.94 435.13"><defs><style>.cls-1{fill:#fff;}</style></defs><path class="cls-1" d="M683.19,602.16c-121.12-1-217.47-96.89-217.16-218.22S563.22,166.6,684.31,167c120.73.43,217,96.72,216.66,218C900.67,506.14,804.16,601.49,683.19,602.16Zm48.93-77a36.44,36.44,0,0,0,1.24,4.63A40.5,40.5,0,0,1,736,549.92a53.28,53.28,0,0,0,1.41,19.77c.17.6.35,1.61.05,1.87-3,2.62-1.11,4.9.13,7.29C795.41,565.4,872.9,508.06,884.52,407c10.26-89.18-39.87-177.42-129-211.51-88-33.64-186.89-2.26-239.88,76.13-49.34,73-39.49,161.15-8.3,210.81,3.67-8.25,7.14-16.53,11-24.61,3.95-8.24,7.47-16.86,12.67-24.26a112.68,112.68,0,0,1,21.38-23,60.22,60.22,0,0,0,5.89-5.4,4.23,4.23,0,0,0,1.21-3c-1.61-9.59,2.6-17.67,6.19-26.58,4.87,4,9.2,7.55,13.6,11a32.57,32.57,0,0,0,4.94,3.28,20.79,20.79,0,0,0,10.1,2.25c9.49-.05,18.84-.07,28.17-2.87,6.8-2.05,11.6-5.35,15.45-11.4,4.35-6.85,7.14-13.86,7.12-21.95,0-4.83-.27-9.65-.15-14.48.22-8.89-1.16-17.58-3-26.22-3.77-17.42-1-33.53,10.15-47.65,4.31-5.46,9.49-10.23,14.26-15.33.78-.83,1.44-1.78,2.16-2.67l-.72-.69c-2.94,2.07-5.86,4.16-8.83,6.2-.95.65-2,1.11-3,1.75a35.56,35.56,0,0,0-5.67,3.94c-2.22,2.17-4.55,4.5-5.93,7.22s-4.91,4.35-4.18,8.4c.25,1.38-1.76,3.05-2.32,4.73-2,6.1-3.58,12.39-5.92,18.37a17.1,17.1,0,0,0,.07,14c.44,1,.95,2.69.48,3.22-2,2.25-.78,4.36-.28,6.57.18.78.48,1.85.12,2.38-1.35,2-.59,3.76,0,5.69a12.1,12.1,0,0,1,.24,3.36,49.84,49.84,0,0,0,0,5.86c1.6,12.12.68,23.55-7.47,33.57-2.12,2.61-4.33,4.5-7.54,5.3-7,1.74-14,2.94-21.24,2.53a10,10,0,0,1-6.66-2.86,61,61,0,0,0-8.09-6.64c-6.06-4-10.2-9.27-13.36-15.76a27.64,27.64,0,0,0-7.57-9.58,7,7,0,0,1-3-5.09c-.27-1.55-1.12-4.15-2-4.24-3.69-.42-3.82-3.1-4.55-5.64a15,15,0,0,0-1.85-4.59c-3.53-4.95-7.25-9.76-10.73-14.4-1.61,1.08-2.84,2.57-4,2.49-2.12-.15-1.71-2.47-2.14-4a4.37,4.37,0,0,0-.12-.49c-.9-2.16.35-5.65-3.7-5.93-.26,0-.58-1.13-.65-1.75-1.16-10.29.61-19.69,8.8-26.83a102.69,102.69,0,0,1,13-10.08c9.32-5.81,19.19-10.75,28.35-16.78a110.53,110.53,0,0,1,25.19-12.71c8.72-3,17.29-5.76,26.61-6.13,3.79-.16,7.86-.23,11.3-3,1.62-1.31,4.57,1,6.65-1,.31-.3,1.27.05,1.93.12a.73.73,0,0,1,.45.19c2.2,2.48,4.87,1.28,7.45,1,4.12-.46,8.25-1.24,12.38-1.24,11.3,0,22.54-.17,33.86,1.5,14.88,2.19,29.56,4.72,43.73,9.89a28.91,28.91,0,0,0,9.73,1.77,30.16,30.16,0,0,1,17.81,5.48,72.43,72.43,0,0,1,24.23,28.65,19.49,19.49,0,0,0,3,5.16c4.25,4.43,6.57,10,9.17,15.34,3.13,6.45,4,13.61,5.64,20.54.86,3.73,1.52,7.5,2.47,11.21,1.53,5.94,3.31,11.82,4.83,17.77a7.36,7.36,0,0,1-3.57,8.53,7.13,7.13,0,0,1-9-1.93,17.79,17.79,0,0,1-4.28-9.41,63.39,63.39,0,0,0-1.79-8.24c-.63-2.42-1.89-4.73-2.12-7.17-.77-8.19-7.53-13.64-9.07-22.32-2.12,4.43-3.47,8.06-5.49,11.26A22.08,22.08,0,0,0,786,326.87a31.08,31.08,0,0,1-1.58,10.24c-1.12,2.93-.92,5.2.89,7.34,4.07,4.83,8.29,9.52,12.47,14.25,2.3,2.6,4.7,5.13,7,7.78,2.13,2.49,4.13,5.1,6.25,7.73,3.25-2.2,5-5.51,8.82-6l-7,6.38.55.8,8.78-3.36.37.84-7.92,5c2.09,2.6,3.5,5.59,5.86,7,4.78,2.88,6.55,7,6.5,12.09-.07,7.18-.61,14.35-1,21.7,2.11,1.08,4.53,2.2,6.84,3.5,4.44,2.5,4.42,2.54,6,5.34l-14.11-6.76c-.85,4.19-2.9,7.8.86,11,.09.08-.16.55-.32,1.08l-2.62-1.41c-.93,2.79-2.35,5.36.17,8.79-3-1.43-3.43.26-4.16,1.56a28.41,28.41,0,0,1-11,11.38c-3.71,2-7.62,2.67-11.49.85-2.1-1-3.63-.51-5.59.22-5.76,2.12-11.64,3.93-17.47,5.84-1,.34-2.11.55-3.61.94,1,1.65,1.82,2.88,2.61,4.1s1.47,2.25,2.21,3.37a3.33,3.33,0,0,1-2.71-1.54c-2.44-5.77-6.84-6-12.22-5.1-5.71.94-11.55,1.07-17.62,1.58a37.92,37.92,0,0,0-.47,4c0,2,.2,4,.22,6,0,2.6-.49,2.8-3.72,1.07-.31,4-.63,7.78-.89,11.57-.14,2.12,1.36,4.81-2.23,5.69-.35.09-.56,1.81-.41,2.7.51,2.93,1.21,5.83,1.88,9l-2.56,1.26c-1.55,4.34,3.19,8.78-1.1,12.7.81,1.92,1.66,3.89,2.56,6Z" transform="translate(-466.03 -167.03)"/></svg>