<svg id="Layer_1" data-name="Layer 1" xmlns="http://www.w3.org/2000/svg" viewBox="0 0 787.36 578.21"><defs><style>.cls-1{fill:#cecece;}.cls-2{fill:#3f3d56;}.cls-3{fill:#ffb6b6;}.cls-4{fill:#2f2e41;}.cls-5{fill:#db5f44;}</style></defs><path class="cls-1" d="M767.74,252c.22-3.37-7.67-5-7.31-7.95s8.31-2.32,16.72-7.62c1.52-1,11.08-7,10.15-11.49-1.77-8.55-39.67-4.19-43.36-16.64-.81-2.73-.05-6.56-2.29-15.15-.88-3.41-1.62-5.19-3.13-5.75-2.13-.79-3.95,1.55-9.2,5-7.86,5.19-9.3,3.57-14.94,8.14-4.19,3.4-5.6,6.08-7.42,5.54-2.59-.77-1.43-6.62-4.39-8.05s-8.27,2.68-11.5,6.26c-6,6.73-6.67,13.48-8.68,19.64-2.19,6.7-7,15.85-19,25.28L553.75,329c23.07-16,87.6-58.88,112.74-74,7.26-4.38,14.88-8.64,23.2-6.68,8,1.89,15.7,9.31,28.62,14.23,1.51.57,5.73,2.12,7.63.32,1.57-1.49.12-3.92,1.57-5.33,1.94-1.9,6.11.92,13,1.89a36.84,36.84,0,0,0,11.71-.41c1-.15,15.28-2.52,15.57-7Z"/><path class="cls-1" d="M582.54,206.68c-1.59-1.08-4.67,2.32-6,1.29s1.26-4.75,1.09-10.41c0-1-.23-7.44-2.72-8.29-4.71-1.6-13.5,18.26-20.67,16.48-1.58-.39-3.24-1.87-8.1-3.25-1.93-.55-3-.7-3.72-.12-1,.82-.38,2.39-.2,6,.28,5.36-.93,5.59-.32,9.68.46,3,1.37,4.5.58,5.24-1.12,1.05-3.66-1.21-5.22-.17s-1.07,4.84-.24,7.45c1.56,4.91,4.69,7.17,7.13,9.93,2.66,3,5.76,8,6.92,16.64l7.53,76.81c-1.18-15.93-3.63-60-3.81-76.69,0-4.83.06-9.8,3.42-13.32s9.1-5,15.24-9.94c.72-.57,2.7-2.2,2.36-3.65-.28-1.2-1.89-1.19-2.16-2.31-.37-1.5,2.21-2.73,4.66-5.81a20.86,20.86,0,0,0,3.18-5.86c.2-.52,3.17-8.23,1.06-9.66Z"/><path class="cls-1" d="M609.26,235.39l4.87-9.17.88-.34a19.15,19.15,0,0,0,9-6.58c.3-.43.58-.89.87-1.35a16,16,0,0,1,5.46-5.89c1.62-1,5.71-3.08,8.15-.8a3.7,3.7,0,0,1,1.14,2l.4-.17a11.2,11.2,0,0,1,3.81-.9,13.45,13.45,0,0,0,3.07-.6c.65-.19,1.19-.39,1.65-.56,1.38-.5,3.1-1,4.71.09s1.6,3.33,1.55,4.69a24.81,24.81,0,0,1-.66,5,6.36,6.36,0,0,0-.18.95c0,1.2,5.06,3.54,7,4.44,4.28,2,8,3.71,7.7,7.08-.21,2.4-2.51,4.2-7,5.47a17.07,17.07,0,0,1-3.82.58,3.42,3.42,0,0,1,.14,2.72h0c-.89,2.42-4.08,3.27-9.48,2.55a17,17,0,0,1-5.25-1.39,19.39,19.39,0,0,1-2.51-1.41,3.37,3.37,0,0,1-1.21,1c-1.59.81-3.48.42-5.59-1.24a41.71,41.71,0,0,1-5.52-5.25,18.47,18.47,0,0,0-3.52-3.27c-2-1.17-4.6-.64-7.72.17l-7.87,2.12Z"/><path class="cls-1" d="M648.39,187.74l-10.1-2.39-.56-.77a19,19,0,0,0-8.64-7c-.5-.19-1-.34-1.53-.5a16.12,16.12,0,0,1-7.08-3.78c-1.37-1.33-4.42-4.75-2.84-7.69a3.74,3.74,0,0,1,1.65-1.61l-.27-.35a11.44,11.44,0,0,1-1.83-3.45,13.84,13.84,0,0,0-1.35-2.82c-.36-.58-.69-1.06-1-1.45-.84-1.21-1.8-2.74-1.11-4.58s2.81-2.4,4.14-2.7a24.44,24.44,0,0,1,5-.62,7.81,7.81,0,0,0,1-.07c1.17-.3,2.15-5.8,2.53-7.87.84-4.65,1.57-8.67,4.9-9.24,2.38-.41,4.7,1.36,7.07,5.41a16.73,16.73,0,0,1,1.53,3.55,3.42,3.42,0,0,1,2.6-.83h0c2.57.25,4.2,3.12,4.87,8.53a17.06,17.06,0,0,1,0,5.42,19.58,19.58,0,0,1-.73,2.79,3.4,3.4,0,0,1,1.3.91c1.19,1.33,1.29,3.26.22,5.72a41.12,41.12,0,0,1-3.68,6.67,18.13,18.13,0,0,0-2.26,4.23c-.62,2.28.54,4.61,2.12,7.43l4,7.08Z"/><path class="cls-1" d="M661.14,159.63l4.88-9.16.88-.35a19.07,19.07,0,0,0,9-6.57c.3-.44.58-.89.87-1.35a16.1,16.1,0,0,1,5.45-5.9c1.63-1,5.72-3.07,8.16-.79a3.74,3.74,0,0,1,1.14,2l.4-.17a11.4,11.4,0,0,1,3.8-.9,13.2,13.2,0,0,0,3.07-.59c.66-.2,1.2-.4,1.65-.56,1.38-.5,3.1-1,4.71.09s1.61,3.33,1.56,4.69a24.5,24.5,0,0,1-.67,5,8.41,8.41,0,0,0-.18.95c0,1.21,5.07,3.55,7,4.44,4.28,2,8,3.72,7.7,7.08-.2,2.41-2.51,4.2-7,5.47a16.44,16.44,0,0,1-3.82.58,3.49,3.49,0,0,1,.15,2.73h0c-.9,2.42-4.09,3.27-9.49,2.54a17.1,17.1,0,0,1-5.25-1.38,22.09,22.09,0,0,1-2.51-1.41,3.35,3.35,0,0,1-1.21,1c-1.59.81-3.48.43-5.59-1.24a42.33,42.33,0,0,1-5.52-5.24,17.56,17.56,0,0,0-3.52-3.27c-2-1.17-4.59-.64-7.72.17l-7.87,2.11Z"/><path class="cls-1" d="M556.69,330.82l-1-2.34,1-2.36-1,2.36-2.24-1.19c.1-.21.29-.74.6-1.55a360.29,360.29,0,0,1,16.89-37.83,416.44,416.44,0,0,1,23.87-40.81c8.79-13.25,16.21-22.75,22.17-30.38,4.5-5.76,8.88-11.18,13.15-16.46,11.4-14.09,22.17-27.4,32-43.57A50.24,50.24,0,0,0,670,135a47.57,47.57,0,0,0-2-18.68l4.88-1.5A52.42,52.42,0,0,1,675,135.47a54.8,54.8,0,0,1-8.54,23.88c-10,16.45-20.89,29.89-32.41,44.12-4.25,5.26-8.61,10.65-13.09,16.39-5.91,7.56-13.26,17-21.93,30a412.88,412.88,0,0,0-23.59,40.32,356.31,356.31,0,0,0-16.66,37.31c-.88,2.34-1.06,2.83-2.11,3.28Z"/><path class="cls-1" d="M655.67,117.68c-.17-.12-.34-.24-.51-.38-3.45-2.64-5.3-7.06-5.5-13.13-.09-2.85.68-5.5,2.22-10.79a63.46,63.46,0,0,1,4-10c1.65-3.33,2.58-4.56,4-5.27a7.69,7.69,0,0,1,4.82-.68,2.86,2.86,0,0,1,1-1.13c1.92-1.26,3.67.27,4.63,1.09a12.42,12.42,0,0,0,1.79,1.4,6.58,6.58,0,0,0,3.2.91,14,14,0,0,1,4.47,1A15.18,15.18,0,0,1,686,85.76c3.52,4.64,3.34,9.71,3.13,15.59a39.12,39.12,0,0,1-2,10.29c-1.18,3.54-2.2,4.77-3.12,5.58-1.89,1.65-3.91,2-8.75,2.38a69.45,69.45,0,0,1-9.56.51c-4.54-.35-7.39-.57-10.1-2.43Z"/><path class="cls-2" d="M635.56,0h-286a19,19,0,0,0-19,19V314a19,19,0,0,0,19,19h286a19,19,0,0,0,19-19V19A19,19,0,0,0,635.56,0Zm17,314a17,17,0,0,1-17,17h-286a17,17,0,0,1-17-17V19a17,17,0,0,1,17-17H501.07A151.51,151.51,0,0,1,652.58,153.51Z"/><path id="b-78" class="cls-3" d="M324.53,221.68c-10,2.71-16.75,10.08-15,16.46s11.24,9.35,21.27,6.64A26,26,0,0,0,341.61,239l42.33-12-6.07-19.74L336.8,221.2a26.12,26.12,0,0,0-12.27.48Z"/><path class="cls-2" d="M501.88,162.46s12,17.53-15,30.75-76.7,32.1-76.7,32.1l-68.74,15.92-10.37-22.76,81.55-22.22,66.46-37.08,22.78,3.29Z"/><path class="cls-4" d="M493.89,115.81c-.31,8.31,5.67,18.17,12,18.37,7.61.25,43.57,2.81,44.73-.18,8-20.71-29.78-63.67-38.3-64.91-4.58-.67-10.07,5.91-12.17,11.34-3,7.6,1.4,11.19-1.06,21.44C497.21,109.68,494.1,110,493.89,115.81Z"/><polygon class="cls-3" points="431.28 443.34 406.04 449.13 431.4 524.38 448.51 520.47 431.28 443.34"/><path class="cls-4" d="M422.26,500.91l9.77,1.44,1.5,5.23s.33-6.66,11.11-11.21l2.8,4.68s5.77,3.71,7.64,12.92l4.14,24.9-8.47,2.25-6.22-16.36s-3.43-3.13-8.87,18c0,0-2.21,7.12-22.2,6.29a6.38,6.38,0,0,1-5.91-4.6,3.24,3.24,0,0,1,1.47-4c4.29-2.58,9.29-2.34,11.22-6.92s2-32.66,2-32.66Z"/><polygon class="cls-3" points="486.12 477.56 463.58 477 466.74 556.25 484.28 556.56 486.12 477.56"/><path class="cls-4" d="M463.51,531.27l9.13,3.74.21,5.44s1.91-6.38,13.48-8.21l1.59,5.22s4.71,5,4.3,14.37l-2,25.17-8.77.14-2.1-17.37s-2.57-3.86-12.94,15.37c0,0-3.85,6.37-23.07.76a6.35,6.35,0,0,1-4.62-5.88,3.23,3.23,0,0,1,2.38-3.52c4.79-1.47,9.58,0,12.56-4s9.82-31.2,9.82-31.2Z"/><polygon class="cls-4" points="532.64 391 413.42 381.77 446.97 244.24 527.24 232.68 532.64 391"/><polygon class="cls-5" points="516.2 138.19 541.31 124.81 561.6 148.76 520.84 279.4 446.28 246.39 502.91 149.57 516.2 138.19"/><path class="cls-4" d="M519.38,255.81s8,41.25-16.77,62.68L495,342.6l-8.19,44.49L487.58,502l-30-3-12-110-.14-54.74-44.29,37.93,46.35,91-37.77,16.53L363.6,370.05a19.53,19.53,0,0,1,2.21-20.45l80.47-103.21Z"/><path class="cls-2" d="M550.48,135.63l-49.25,46c-11.66,94.58-5.29,181.42,28.24,256.61l82.76-38.36c-68.24-20.7-61.55-134.34-48.31-256.11l-13.44-8.09Z"/><polygon class="cls-2" points="508.01 149.72 515.58 138 473.68 162.63 440.55 254.46 501.67 178.18 508.01 149.72"/><path id="c-79" class="cls-3" d="M612.82,322.44c2.89,10,10.38,16.56,16.72,14.72s9.15-11.41,6.26-21.39A26,26,0,0,0,629.85,305l-12.78-42.1-19.62,6.42,14.67,40.82a26,26,0,0,0,.7,12.26Z"/><path class="cls-2" d="M548.56,144.7s17.18-12.45,31.17,14.09S614,234.54,614,234.54l17.89,68.25-22.45,11-24.55-80.89-39-65.36,2.63-22.87Z"/><circle class="cls-3" cx="528.14" cy="95.84" r="27.9"/><path class="cls-4" d="M528.23,85c-1.57-.16-2.38,1.5-8.37,3.82a15.32,15.32,0,0,1-4.46,1.31c-3.8.24-6.74-1.85-8.71-3.25-3.21-2.28-5.27-3.74-5.67-6.09-.53-3.06,2.93-6.47,9.88-13.18a68.85,68.85,0,0,1,8.8-7.63c5.59-4,8.38-5.95,12.29-6.33,5.18-.52,9.13,2,14.81,5.52a13.79,13.79,0,0,0,6.1,1.61,18.25,18.25,0,0,1,16.37,13.12c.16.57.29,1.08.39,1.52A102.63,102.63,0,0,1,567,129.72c-.15.48-.28.92-.38,1.32-2.62,10.72-38.66,14.89-42.87,5.83-2.65-5.7,9.75-11.41,11.6-28.42,1.29-11.84-3.19-23.11-7.11-23.49Z"/><rect class="cls-1" x="117.33" y="91.25" width="302.25" height="1.55"/><path class="cls-1" d="M376.91,68.6H160a6.2,6.2,0,1,1,0-12.39H376.91a6.2,6.2,0,1,1,0,12.39Z"/><circle class="cls-1" cx="118" cy="90.58" r="13"/><circle class="cls-1" cx="158" cy="62.58" r="13"/><rect class="cls-2" x="15.33" y="236.25" width="302.25" height="1.55"/><path class="cls-5" d="M274.91,213.6H58a6.2,6.2,0,1,1,0-12.39H274.91a6.2,6.2,0,1,1,0,12.39Z"/><circle class="cls-5" cx="13" cy="235.58" r="13"/><circle class="cls-5" cx="53" cy="207.58" r="13"/><rect class="cls-1" x="51.33" y="396.25" width="302.25" height="1.55"/><path class="cls-1" d="M310.91,373.6H94a6.2,6.2,0,1,1,0-12.39H310.91a6.2,6.2,0,1,1,0,12.39Z"/><circle class="cls-1" cx="88" cy="366.58" r="13"/><circle class="cls-1" cx="49" cy="396.58" r="13"/></svg>