<?xml version="1.0" encoding="UTF-8"?><svg id="Layer_2" xmlns="http://www.w3.org/2000/svg" viewBox="0 0 220.25 202.5"><path d="M26.82,0V147s142.55,0,142.55,0c2.54,.55,4.45,2.77,4.45,5.48v50.02s46.43,0,46.43,0v-49.25c0-3.52-2.85-6.37-6.37-6.37h-22.82v-8.85h4.71c3.28,0,5.95-2.66,5.95-5.95v-3.48s13.05-3.61,13.05-3.61c2.4-1.08,4.19-3.1,4.99-5.51,.32-.93,.49-1.93,.49-2.95V50.55c0-4.84-2.75-9.26-7.09-11.39l-11.44-5.63V10.03C201.72,4.49,197.23,0,191.69,0H26.82Z" style="fill:#5a6987;"/><path d="M0,153.72v48.78s173.82,0,173.82,0v-50.02c0-2.92-2.21-5.31-5.06-5.6-.19-.02-.38-.03-.58-.03H6.88c-.18,0-.36,.01-.53,.03C2.8,147.14,0,150.11,0,153.72Z" style="fill:#bfcadb;"/><rect x="26.82" y="138" width="128.94" height="8.85" style="fill:#8a99b1;"/><rect x="8.89" y="0" width="155.93" height="138" style="fill:#bfcadb;"/><rect x="17.67" y="9.83" width="129.15" height="119.32" transform="translate(164.49 138.97) rotate(-180)" style="fill:#8b9ab2;"/><path d="M26.82,18.89h120v110.25H30.83c-2.21,0-4.01-1.8-4.01-4.01V18.89h0Z" transform="translate(173.64 148.04) rotate(-180)" style="fill:#252b44;"/><path d="M36.27,27.82h110.55v101.33H42.2c-3.27,0-5.93-2.66-5.93-5.93V27.82h0Z" transform="translate(183.09 156.96) rotate(-180)" style="fill:#3a4467;"/><path d="M146.82,9.83h8.94v119.32h-3.8c-2.84,0-5.14-2.3-5.14-5.14V9.83h0Z" transform="translate(302.58 138.97) rotate(-180)" style="fill:#fff;"/><g><rect x="155.79" y="156.74" width="9.01" height="9" style="fill:#8c9bb2;"/><rect x="146.79" y="165.74" width="9" height="9" style="fill:#8c9bb2;"/><rect x="137.78" y="156.74" width="9" height="9" style="fill:#8c9bb2;"/><rect x="128.78" y="165.74" width="9" height="9" style="fill:#8c9bb2;"/><rect x="155.79" y="174.74" width="9" height="9" style="fill:#8c9bb2;"/><rect x="146.79" y="183.73" width="9" height="9" style="fill:#8c9bb2;"/><rect x="137.78" y="174.74" width="9" height="9" style="fill:#8c9bb2;"/><rect x="128.78" y="183.73" width="9" height="9" style="fill:#8c9bb2;"/></g><path d="M73.24,165.86v6.77c0,1.17-.95,2.12-2.12,2.12H17.89v-8.89h55.36Z" style="fill:#8c9bb2;"/><g><rect x="43.73" y="36.76" width="8.74" height="8.93" rx="2.3" ry="2.3" style="fill:#65c452;"/><rect x="61.67" y="36.76" width="27.6" height="8.93" rx="2.73" ry="2.73" style="fill:#65c452;"/><rect x="98.47" y="36.76" width="8.74" height="8.93" rx="2.7" ry="2.7" style="fill:#65c452;"/><rect x="43.73" y="55.5" width="27.6" height="8.93" rx="2.3" ry="2.3" style="fill:#65c452;"/><rect x="80.53" y="55.5" width="8.74" height="8.93" rx="2.67" ry="2.67" style="fill:#65c452;"/></g><rect x="204.9" y="106.76" width="15.35" height="7.95" style="fill:#3a4466;"/><rect x="204.9" y="89.99" width="15.35" height="7.95" style="fill:#3a4466;"/><rect x="204.9" y="72.98" width="15.35" height="7.95" style="fill:#3a4466;"/><rect x="204.9" y="56.68" width="15.35" height="7.95" style="fill:#3a4466;"/></svg>