<?xml version="1.0" encoding="UTF-8"?>
<svg id="Layer_1" data-name="Layer 1" xmlns="http://www.w3.org/2000/svg" viewBox="0 0 16 16">
  <path d="M6.72,3.55c.17,.08,.28,.26,.28,.45V12c0,.28-.22,.5-.5,.5-.11,0-.22-.04-.31-.11l-2.36-1.89H1.5c-.28,0-.5-.22-.5-.5V6c0-.28,.22-.5,.5-.5H3.83l2.36-1.89c.15-.12,.36-.14,.53-.06Zm-.72,1.49l-1.69,1.35c-.09,.07-.2,.11-.31,.11H2v3h2c.11,0,.22,.04,.31,.11l1.69,1.35V5.04Zm7.85,.61c.2,.2,.2,.51,0,.71,0,0,0,0,0,0l-1.65,1.65,1.65,1.65c.2,.2,.2,.51,0,.71s-.51,.2-.71,0l-1.65-1.65-1.65,1.65c-.2,.2-.51,.2-.71,0s-.2-.51,0-.71l1.65-1.65-1.65-1.65c-.2-.2-.2-.51,0-.71s.51-.2,.71,0h0l1.65,1.65,1.65-1.65c.2-.2,.51-.2,.71,0,0,0,0,0,0,0Z"/>
</svg>