<?xml version="1.0" encoding="UTF-8"?>
<svg id="Layer_1" data-name="Layer 1" xmlns="http://www.w3.org/2000/svg" viewBox="0 0 16 16">
  <path d="M10.12,12.6c1.22-1.22,1.91-2.87,1.9-4.6,0-1.72-.68-3.38-1.9-4.6l-.71,.71c1.03,1.03,1.61,2.43,1.61,3.89,0,1.46-.58,2.86-1.61,3.89,0,0,.71,.71,.71,.71Z"/>
  <path d="M10.02,8c0,1.19-.47,2.34-1.32,3.18l-.71-.71c.66-.66,1.03-1.55,1.02-2.48,0-.97-.39-1.84-1.03-2.47l.71-.71c.85,.84,1.32,1.99,1.32,3.18Zm-3.02-4c0-.28-.22-.5-.5-.5-.11,0-.22,.04-.31,.11l-2.36,1.89H1.5c-.28,0-.5,.22-.5,.5v4c0,.28,.22,.5,.5,.5H3.83l2.36,1.89c.22,.17,.53,.14,.7-.08,.07-.09,.11-.2,.11-.31V4Zm-2.69,2.39l1.69-1.35v5.92l-1.69-1.35c-.09-.07-.2-.11-.31-.11H2v-3h2c.11,0,.22-.04,.31-.11Z"/>
</svg>